/* XPM */
static char *f7356039ca9d4751c1be7a19d27d4a017O40HfwPzngyNaYm[] = {
/* columns rows colors chars-per-pixel */
"64 64 176 2 ",
"   c #010000",
".  c #0A0500",
"X  c #010903",
"o  c #0A0C02",
"O  c #110700",
"+  c #130A00",
"@  c #1A0D00",
"#  c #011506",
"$  c #0A1003",
"%  c #011F08",
"&  c #1C1000",
"*  c #1B1B19",
"=  c #230E00",
"-  c #280F00",
";  c #231300",
":  c #2B1300",
">  c #2F1C00",
",  c #321500",
"<  c #341900",
"1  c #3C1B00",
"2  c #02210A",
"3  c #04280D",
"4  c #0B2C0B",
"5  c #01360E",
"6  c #01390F",
"7  c #052E12",
"8  c #0A3A15",
"9  c #3E2200",
"0  c #252423",
"q  c #393736",
"w  c #393837",
"e  c #421C00",
"r  c #4C1F00",
"t  c #432300",
"y  c #4C2200",
"u  c #432800",
"i  c #4E2B00",
"p  c #532300",
"a  c #592600",
"s  c #552B00",
"d  c #5D2900",
"f  c #5D3200",
"g  c #632B00",
"h  c #6B2E00",
"j  c #653100",
"k  c #6C3300",
"l  c #623800",
"z  c #6D3D00",
"x  c #733400",
"c  c #7B3700",
"v  c #743A00",
"b  c #7C3A00",
"n  c #084617",
"m  c #014B15",
"M  c #00471B",
"N  c #01491B",
"B  c #08561A",
"V  c #156119",
"C  c #095520",
"Z  c #075A22",
"A  c #085B22",
"S  c #0A6524",
"D  c #0B7B25",
"F  c #05742C",
"G  c #017D2F",
"H  c #007730",
"J  c #007B30",
"K  c #774300",
"L  c #7E4600",
"P  c #5D5C5C",
"I  c #6F6E6E",
"U  c #706F6F",
"Y  c #70706F",
"T  c #727271",
"R  c #843D00",
"E  c #893E00",
"W  c #D40400",
"Q  c #D60C00",
"!  c #D71100",
"~  c #D81400",
"^  c #D71801",
"/  c #D91C03",
"(  c #D81B12",
")  c #DA240B",
"_  c #DB2B14",
"`  c #DC2F19",
"'  c #DC321B",
"]  c #DE3722",
"[  c #DE3A25",
"{  c #DE3E2A",
"}  c #E03F2A",
"|  c #844400",
" . c #8D4200",
".. c #834900",
"X. c #8C4B00",
"o. c #924400",
"O. c #994700",
"+. c #934D00",
"@. c #9C4A00",
"#. c #945100",
"$. c #9C5300",
"%. c #A24D00",
"&. c #A84F00",
"*. c #A55200",
"=. c #AB5300",
"-. c #AC5C00",
";. c #B15500",
":. c #B35C00",
">. c #B95E00",
",. c #B36100",
"<. c #BB6300",
"1. c #C36500",
"2. c #C76A00",
"3. c #C96C00",
"4. c #D16F00",
"5. c #DE402C",
"6. c #DF4531",
"7. c #DF4935",
"8. c #E0402C",
"9. c #E04632",
"0. c #E04935",
"q. c #E24F3B",
"w. c #E2513F",
"e. c #E25543",
"r. c #E35947",
"t. c #E45D4C",
"y. c #E25A52",
"u. c #E56555",
"i. c #E66B5B",
"p. c #E67262",
"a. c #E87768",
"s. c #E87A6D",
"d. c #E97F72",
"f. c #04832D",
"g. c #09862D",
"h. c #068B2B",
"j. c #0B8A2D",
"k. c #079129",
"l. c #0C932A",
"z. c #0F982A",
"x. c #129B2A",
"c. c #17A22A",
"v. c #1AA42A",
"b. c #1EAA29",
"n. c #20AE29",
"m. c #E98478",
"M. c #878786",
"N. c #A2A2A1",
"B. c #EA8C80",
"V. c #EB9186",
"C. c #ED968B",
"Z. c #ED998F",
"A. c #EE9C92",
"S. c #EFA9A1",
"D. c #F1ADA5",
"F. c #F2B3AB",
"G. c #F3BBB4",
"H. c #F3BBB5",
"J. c #F4C0BB",
"K. c #D5D5D5",
"L. c #F5C7C2",
"P. c #F6CDC8",
"I. c #F7D1CD",
"U. c #F8DAD6",
"Y. c #F8DCD8",
"T. c #FAE1DF",
"R. c #FAE4E2",
"E. c #FBE8E6",
"W. c #FBEBE9",
"Q. c #FCECEB",
"!. c #FEF0EF",
"~. c #FEF2F1",
"^. c #FDF5F4",
"/. c #FEFAFA",
"(. c #FFFCFC",
"). c white",
/* pixels */
"G G G G G J J J G G G G G G J J J J J G J J J G G G G G G G G G G G G G G G G G G G G G J G J G G G G G G G G G G G J J G G G G ",
"G G G G G G G G G G G G G G G G G G G G G G G G G G G G G G G G G G G G G G G G G G G G G G G G G G G G G G G G G G G G G G G G ",
"j.j.G G G G j.j.G G G G G n 8 8 8 8 8 8 8 8 8 8 8 8 8 8 8 8 8 8 8 8 8 8 8 8 8 8 8 8 8 8 8 8 8 8 n n 8 B G G G G G G j.j.G G G G ",
"j.j.G G G G j.j.G G G G F . 0 w q q q q q q q q q q q q q q q q q q q q q w q q q q q q q q q q w w * % G G G J G G j.j.G G G G ",
"G G G G G G G G G G G G F X N.).).).).).).).).).).).).).).).).).).).).).).).).).).).).).).).).).).).Y 4 G G G G G G j.j.G G G G ",
"G G G G G G G G G G G G F X N.).).~.~.).)./.Q./.).).~.!.~.~.).).).~.~.).).).).~.~.).).!.~.~.!.~.).).Y 4 G G G G G G j.j.G G G G ",
"G G G G G G G G G G G G F X N.).Y.' e./.).Z.( Z.).E.8.` ' ' P.).R.] { R.).).Q.6.9.).J._ ' ' _ e./.).I 2 G G l.l.G G G G G G G G ",
"G G G G G G G G G G G G F X N.).U./ 6./.).V.W C.W.5.) ) ) ) ' H.W._ / 6.W.Y.{ / [ ).H.^ ) ) / 0./.).I 2 G G l.l.G G G G G G G G ",
"G G g.g.G G G G l.l.G G F X N.).U.) 0.).).C.Q Z.E./ 0.U.U.i.Q F.Q._ ) ~ p.m.! / { ).H.~ A.R.T.T.).).U 2 G G G G G G G G j.j.G J ",
"G G j.j.G G G G l.l.G G F X N.).U.) 5.P.I.s.Q Z.E.) e.).).s.! F.Q._ ' 9._ ' 0._ { ).H.~ C.U.U.).).).U 2 G G J G G G G G j.j.G G ",
"J G G G G G G G G G x.x.F X N.).U._ ) ^ ^ ) ^ Z.E.) w.).).a.! F.Q.) t.D.^ ^ H.9.[ ).H./ / ~ ) R.).).I 2 G G G G G G G G G G G G ",
"J G G G G G G G G G x.x.F X N.).U._ _ r.r.} ~ Z.E.) w.).).a.! F.Q.) w.W.9.d.Q.{ [ ).H.^ 9.r.t.W.).).I 2 G G G G G G G G G G G G ",
"G G G G G G G G G G x.x.F X N.).U.) 0.).).C.Q Z.E.) e.).).s.! F.Q.) q.).u.D.).[ [ ).H.! H.).).).).).I 2 G G G G c.c.G G G G G G ",
"G G G G G G G G G G x.x.F X N.).U.) 7.).).V.Q Z.E./ 5.D.D.r.! F.Q.) q.).Q.^.^.[ [ ).H.^ s.D.S.L.).).I 2 G G G G c.c.G G G G G G ",
"G G G G l.l.G G G G G G F X N.).U.^ { /.).B.W V.!.i./ ! ! ^ ) H.W.^ 6.).).).^.' ` ).H.! ~ ! W t.).).I 4 G G G G G G G G G G G G ",
"J G G G l.l.G G G f.G G F X N.).E.i.m.).).F.y.F.)./.a.i.i.i.I./.Q.i.m.).).)./.s.s.).I.u.i.i.u.Z.).).I 4 G G G G G G G G G G G G ",
"G G G G G G G G v.b.j.f.F X N.).).).).).).).).).).).).).).).).).).).).).).).).).).).).).).).).).).).T 2 G G G G x.x.G G g.g.G G ",
"G G G G G G G f.b.n.j.g.F X M.K.K.K.K.K.K.K.K.K.K.K.K.K.K.K.K.K.K.K.K.K.K.K.K.K.K.K.K.K.K.K.K.K.K.K.P 2 G G G G x.x.G G g.g.G G ",
"G G G G G G c.b.b.v.j.g.F . X X X X X X X X X X X X X X X X X X X X X X   X X X X X X X X X X X X X X 3 G G G G G G G G G G G G ",
"G G G G G f.b.n.v.c.g.f.G S S S S 7 . r r r r r r r r r r r r r r r r r r r r r r r r r r e   V S A A S G G G G J G G G G G G G ",
"G G G G j.l.v.v.l.D B C C A A A A 7 . 1 e e e e e e e e e e e e e e e e e e e e e e e e e 1   n A A Z Z C C A G G G c.c.G G G G ",
"G G G G j.l.c.c.h.m   . . . . . . . . . .     . . . . . . . . .   . . . . . . . . .   . . . . . . . . . . .   G G G v.v.G G G G ",
"G G G G G G h.h.G N 9 ,.-.-.-.-.-.-.-.-.,.p j ,.-.-.-.-.-.:.<.+.e -.,.:.-.-.-.-.:.$.1 X.,.-.-.-.-.-.-.-.,.$.o h.G G G G G G G G ",
"G G G G G G h.h.G M t <.:.:.:.:.:.:.:.:.<.d k :.-.-.:.:.:.+...l , K L $.:.-.-.:.:.*.e @.<.:.:.:.:.:.:.:.>.*.$ h.G G G G G G G G ",
"G G j.j.G G G G G N 1 &.@.@.@.@.@.@.@.@.@.p d O. .k d d g @           1 g a d x O.E e R @.@.@.@.@.@.@.@.%. .$ b.b.c.G G l.l.G G ",
"G G j.j.G G G G G N < O.o.o.o.o. .o. . .o.p p R c . . . . . O . . . O . . .   : R c e b O.o.o.o.o.o.o.o.O.R o v.b.v.G G l.l.G G ",
"G G G G G G G G G N = a p p p p r y p p r r : . O . z <.,.,.,.+.e =.,.,.-.,.u . O . 1 r y p p r y p p p p y X g.l.l.G G G G G G ",
"G G G G G G G G G N 9 ,.:.:.,.=.y #.,.:.: .     #.,.=.*.*.*.=. .e @.=.*.*.*.=.,...    . f <.,.k j ,.:.:.,.$.o f.h.h.G G G G G J ",
"G G G G h.h.G G G N t :.=.=.=.*.p @.$.u   u ....=.-.*.%.&.&.&.E r @.&.&.&.@.=.:.*.....& @ f :.x h :.=.=.;.@.o g.G G G G G G G G ",
"G G G G h.h.G G G N 1 &.%.%.%.O.p h y   9 +.1.>.%.%.%.| j j j p : g j j k @.%.@.*.<.3.K ;   j a h &.%.%.&.o.o g.G G G G G G G G ",
"G G G G G G J G G N <  .E E R E r @   < =.:.@.@.@.b v e                   k c | %.%.-.3...&   : g  .E E  .b o G G G G G G G G G ",
"G G G G G G G G G N @ p p p p r O . > <.*.%.O. .R +                           : o. .@.-.1.+..   , y p p p y X G G G G G G G G G ",
"G G G G G G z.z.G M u <.,.<.=.+   i <.%.@.&.g . .                               . O R %.%.*.-.O   u <.,.<.*.o G G G x.x.G G g.g.",
"G G G G G G z.z.G M 1 ;.=.=.%.. l $.=.@.&.t O                                       @ b &.%.*.X.; < ;.*.=.@.o G G G x.x.f.G g.g.",
"G G g.g.G G G G J M 1 &.%. .d   #.<.@.@.k +                                           t b %.@.2.< + j @.&.o.o G G G G f.v.v.G G ",
"G G g.g.G G G G G N < O.@.d   @ #.:.@.R O                                               < o.@.<.i .   R O.R o G G G H G v.v.G G ",
"G G G G G G x.c.c.B = a p , . -.=.%.b .                                                   ; @.%.<.z   y p y X G j.j.G G G G G G ",
"G G G G G G x.c.c.B 9 ,.s . . :.=.%.b                                                     @ @.@.<.v   O ..$.o G j.j.G G G J G G ",
"G G G G J G G G G N t 1.i + X.*.&.x :                                                     . 1 o.=.*.z   X.*.o G G f.g.g.g.g.G G ",
"G G G G G G J G G M 1 ;.e ; 1.%.%.s                                                            .%.:.*.  b O.o f.f.f.g.g.g.g.G G ",
"G G h.k.k.h.G G g.m < %.1 ; <.%.R e                                                         . h o.:.$.  x  .o v.x.x.G J G G G G ",
"G G h.k.k.h.G G g.N = h = ; <.*.h -                                                         . e R :.$.  y d o v.x.l.G G G G G G ",
"G G G G G G G G G N 9 <.i + R b p =                                                         . 1 h R k   ..$.o G G G G G h.h.G G ",
"G G G G G G G G G N t 1.y + o.R h ,                                                         . y x  .c   X.*.o G G G G G h.h.G G ",
"G G G G G G x.x.G M 1 =.e ; 1.*.R e                                                         . g o.:.$.  c O.o G l.l.G G G G G G ",
"G G G G G G z.x.G M < %.1 ; <.%.R 1                                                         . g o.:.$.  x  .o G l.l.f.G G G G G ",
"G G G G h.h.G G G N ; h = ; <.&.R 1                                                         . g  .:.$.  p g X G G f.z.l.G G G G ",
"G G G G h.h.G G G M 9 <.i + R b g ,                                                           e h R k   ..$.o G G G l.l.G G G G ",
"G G G G G G G G G N t 1.i O R b g :                                                         . r x R k   | *.o l.G G G G G G G G ",
"G G G G G G G G G N 1 ;.t ; <.*.R 1                                                         . g o.:.$.  b O.o l.G G G G G G G G ",
"G G G G l.l.G G G N < O.1 ; <.%.R 1                                                         . g  .:.#.  k R o G G G G G g.g.G G ",
"G G G G l.l.G G G N : c : ; <.%.R 1                                                         . g  .:.$.  p k o G G G G G g.g.G G ",
"G G G G G G G G G N u 3.i + R c g :                                                         . e h R k   X.-.o G l.l.G G G G G G ",
"G G G G J G G G G N 1 :.t +  .b h ,                                                         . r x  .v   | @.o G l.l.G G G G G G ",
"G G l.l.G G G G G N 1 ;.e ; <.%.R 1                                                         . d  .:.$.  b @.o G G G G G G G G G ",
"G G x.x.G G G f.G N , E , ; <.@.b 1                                                         . d E :.$.  g c o G G G G G G G G G ",
"G G G G G G l.l.j.B , o.< ; :.@.c 1                                                         . a R =.+.  j b o G G G G G l.l.G J ",
"G G G J G G l.l.j.B t 4.s O b x p :                                                           1 g c h   #.:.o G G G G G l.l.G G ",
"G G G G j.j.G G G N 1 >.y @ O.R g :                                                         . r x o.b   | @.o G j.j.G G G G G G ",
"G G G G j.g.G G G N < O.< ; 1.%.c ,       # 2 2 2 2 2 % 2 % % % % % % % 2 2 2 2 2 2 2 2 #   . a E :.$.  k R o G j.j.G G G G G G ",
"G G G G G G G G G M = g = @ o.c a - X 3 3 5 6 6 6 6 6 6 6 6 5 5 5 5 5 5 5 6 6 6 6 5 5 5 5 2 . e h | v   e p X g.G G G G G G G G ",
"G G G G G G G G G N X X X X X X X X # m m m m m m m m m m m m m m m m m m m m m m m m m m m X X X X X X X X # g.G G G G G G G G ",
"G G G G G G G G G G G G G G G G G G G G G G G G G G G G G G G G G G G G G G G G G G G G G G G G G G G G G G G G G G G G G G G G ",
"G G G G G G G G G G G J G G G G G G G G G G J G G G G G G G G G G G G G J G J G G G G G G G G G G G G G G G G G G G G G J G G G "
};
