/* XPM */
static char *result[] = {
/* columns rows colors chars-per-pixel */
"64 64 149 2 ",
"   c #010000",
".  c #0A0500",
"X  c #010F04",
"o  c #0E0901",
"O  c #110500",
"+  c #130A00",
"@  c #1A0D00",
"#  c #170F08",
"$  c #001506",
"%  c #001F08",
"&  c #1C1000",
"*  c #1B1B19",
"=  c #230E00",
"-  c #280F00",
";  c #231300",
":  c #2B1300",
">  c #2F1C00",
",  c #321500",
"<  c #341900",
"1  c #3C1B00",
"2  c #002109",
"3  c #002B0C",
"4  c #01360E",
"5  c #01390F",
"6  c #013B10",
"7  c #3E2200",
"8  c #252423",
"9  c #393736",
"0  c #393837",
"q  c #421C00",
"w  c #4C1F00",
"e  c #432300",
"r  c #4C2200",
"t  c #432800",
"y  c #4E2B00",
"u  c #532300",
"i  c #592600",
"p  c #552B00",
"a  c #5D2900",
"s  c #5D3200",
"d  c #632B00",
"f  c #6B2E00",
"g  c #653100",
"h  c #6C3300",
"j  c #623800",
"k  c #6D3D00",
"l  c #733400",
"z  c #7B3700",
"x  c #743A00",
"c  c #7C3A00",
"v  c #014512",
"b  c #014A13",
"n  c #774300",
"m  c #7E4600",
"M  c #5D5C5C",
"N  c #6F6E6E",
"B  c #706F6F",
"V  c #70706F",
"C  c #727271",
"Z  c #843D00",
"A  c #893E00",
"S  c #D40400",
"D  c #D60C00",
"F  c #D71100",
"G  c #D81400",
"H  c #D71801",
"J  c #D91C03",
"K  c #D81B12",
"L  c #DA240B",
"P  c #DB2B14",
"I  c #DC2F19",
"U  c #DC321B",
"Y  c #DE3722",
"T  c #DE3A25",
"R  c #DE3E2A",
"E  c #E03F2A",
"W  c #844400",
"Q  c #8D4200",
"!  c #834900",
"~  c #8C4B00",
"^  c #924400",
"/  c #994700",
"(  c #934D00",
")  c #9C4A00",
"_  c #945100",
"`  c #9C5300",
"'  c #A24D00",
"]  c #A84F00",
"[  c #A55200",
"{  c #AB5300",
"}  c #AD5C00",
"|  c #B15500",
" . c #B35C00",
".. c #B95E00",
"X. c #B36100",
"o. c #BB6300",
"O. c #C36500",
"+. c #C76A00",
"@. c #C96C00",
"#. c #D16F00",
"$. c #DE402C",
"%. c #DF4531",
"&. c #DF4935",
"*. c #E0402C",
"=. c #E04632",
"-. c #E04935",
";. c #E24F3B",
":. c #E2513F",
">. c #E25543",
",. c #E35947",
"<. c #E45D4C",
"1. c #E25A52",
"2. c #E56555",
"3. c #E66B5B",
"4. c #E67262",
"5. c #E87768",
"6. c #E87A6D",
"7. c #E97F72",
"8. c #E98376",
"9. c #EA887B",
"0. c #878786",
"q. c #A2A2A1",
"w. c #EA8C80",
"e. c #EB9186",
"r. c #ED968B",
"t. c #ED998F",
"y. c #EE9C92",
"u. c #EFA9A1",
"i. c #F1ADA5",
"p. c #F2B3AB",
"a. c #F2B7B0",
"s. c #F3BBB5",
"d. c #F4BEB8",
"f. c #F4C0BB",
"g. c #D5D5D5",
"h. c #F5C7C2",
"j. c #F6CDC8",
"k. c #F7D1CD",
"l. c #F8D7D3",
"z. c #F8DAD7",
"x. c #F9DEDB",
"c. c #FAE1DF",
"v. c #FAE4E2",
"b. c #FBE9E7",
"n. c #FCECEA",
"m. c #FEF0EF",
"M. c #FEF2F2",
"N. c #FFFFFF",
"B. c None",
/* pixels */
"B.B.B.B.B.B.B.B.B.B.B.B.B.B.B.B.B.B.B.B.B.B.B.B.B.B.B.B.B.B.B.B.B.B.B.B.B.B.B.B.B.B.B.B.B.B.B.B.B.B.B.B.B.B.B.B.B.B.B.B.B.B.B.B.",
"B.B.B.B.B.B.B.B.B.B.B.B.B.B.B.B.B.B.B.B.B.B.B.B.B.B.B.B.B.B.B.B.B.B.B.B.B.B.B.B.B.B.B.B.B.B.B.B.B.B.B.B.B.B.B.B.B.B.B.B.B.B.B.B.",
"B.B.B.B.B.B.B.B.B.B.B.B.B.# o . . O . o O O O O o O O O O O O . . O O O . O o O O O O + O O O . O . + B.B.B.B.B.B.B.B.B.B.B.B.B.",
"B.B.B.B.B.B.B.B.B.B.B.B.B.. 8 0 9 0 0 0 0 0 0 0 0 9 9 9 9 9 0 0 0 0 0 0 9 9 0 0 0 0 0 9 0 0 0 0 0 0 * . B.B.B.B.B.B.B.B.B.B.B.B.",
"B.B.B.B.B.B.B.B.B.B.B.B.B.  q.N.N.N.N.N.N.N.N.N.N.N.N.N.N.N.N.N.N.N.N.N.N.N.N.N.N.N.N.N.N.N.N.N.N.N.V   B.B.B.B.B.B.B.B.B.B.B.B.",
"B.B.B.B.B.B.B.B.B.B.B.B.B.  q.N.N.M.M.N.N.N.n.N.N.N.M.M.m.M.N.N.N.m.M.N.N.N.N.M.M.N.N.n.M.m.M.M.N.N.B   B.B.B.B.B.B.B.B.B.B.B.B.",
"B.B.B.B.B.B.B.B.B.B.B.B.B.  q.N.x.U :.N.N.r.K t.N.b.E I U U j.N.v.Y R b.N.N.b.%.-.N.f.P U U P >.N.N.N   B.B.B.B.B.B.B.B.B.B.B.B.",
"B.B.B.B.B.B.B.B.B.B.B.B.B.  q.N.z.J $.N.N.w.S r.b.R L L L L U s.b.P J %.b.v.R J T N.d.H L L J -.N.N.N   B.B.B.B.B.B.B.B.B.B.B.B.",
"B.B.B.B.B.B.B.B.B.B.B.B.B.  q.N.z.L &.N.N.r.D t.b.J -.z.z.3.D i.n.P L G 4.8.G J *.N.s.G y.v.v.c.N.N.B   B.B.B.B.B.B.B.B.B.B.B.B.",
"B.B.B.B.B.B.B.B.B.B.B.B.B.  q.N.z.L $.j.k.6.D t.b.L >.N.N.6.G p.n.P U *.P U -.P R N.s.G r.l.z.N.N.N.B . B.B.B.B.B.B.B.B.B.B.B.B.",
"B.B.B.B.B.B.B.B.B.B.B.B.B.  q.N.z.P L J H L H t.b.L >.N.N.5.G p.n.L <.i.H J d.%.T N.s.L J H L v.N.N.B   B.B.B.B.B.B.B.B.B.B.B.B.",
"B.B.B.B.B.B.B.B.B.B.B.B.B.  q.N.z.P P >.,.$.H t.n.J ;.N.N.5.D p.n.L :.n.%.8.n.R E N.s.H =.>.2.b.N.N.B . B.B.B.B.B.B.B.B.B.B.B.B.",
"B.B.B.B.B.B.B.B.B.B.B.B.B.  q.N.z.L &.N.N.e.D y.b.J >.N.N.6.G p.n.L ;.N.2.i.N.T U N.s.F s.N.N.N.N.N.N   B.B.B.B.B.B.B.B.B.B.B.B.",
"B.B.B.B.B.B.B.B.B.B.B.B.B.  q.N.l.L &.N.N.e.D y.b.J $.i.i.,.F p.m.L :.N.n.M.M.T T N.s.H 6.i.u.h.N.N.B . B.B.B.B.B.B.B.B.B.B.B.B.",
"B.B.B.B.B.B.B.B.B.B.B.B.B.  q.N.l.H R N.N.w.S w.M.2.J F G H L p.n.J *.N.N.N.M.I U N.s.H H D S <.N.N.N   B.B.B.B.B.B.B.B.B.B.B.B.",
"B.B.B.B.B.B.B.B.B.B.B.B.B.  q.N.v.3.8.N.N.p.1.p.N.N.5.3.3.3.k.N.n.3.9.N.N.N.N.5.5.N.k.2.3.3.2.y.N.N.B   B.B.B.B.B.B.B.B.B.B.B.B.",
"B.B.B.B.B.B.B.B.B.B.B.B.B.  q.N.N.N.N.N.N.N.N.N.N.N.N.N.N.N.N.N.N.N.N.N.N.N.N.N.N.N.N.N.N.N.N.N.N.N.C   B.B.B.B.B.B.B.B.B.B.B.B.",
"B.B.B.B.B.B.B.B.B.B.B.B.B.  0.g.g.g.g.g.g.g.g.g.g.g.g.g.g.g.g.g.g.g.g.g.g.g.g.g.g.g.g.g.g.g.g.g.g.g.M   B.B.B.B.B.B.B.B.B.B.B.B.",
"B.B.B.B.B.B.B.B.B.B.B.B.B..   X   X .     .   X X .       .       X .     . . X   X .     X . X . X . o B.B.B.B.B.B.B.B.B.B.B.B.",
"B.B.B.B.B.B.B.B.B.B.B.B.B.B.B.B.B.. . w w w w w w r u w w w r w w w w w w w w w w w w w w q   B.B.B.B.B.B.B.B.B.B.B.B.B.B.B.B.B.",
"B.B.B.B.B.B.B.B.B.B.B.B.B.B.B.B.B.. X q q q q q q q q 1 1 1 q 1 q q q q q q q q q q q q q 1   B.B.B.B.B.B.B.B.B.B.B.B.B.B.B.B.B.",
"B.B.B.B.B.B.B.B.B.B.  . . . . . . . . . .     . .   . . . . . .   . .     . .   . .     o   .     . . . o     B.B.B.B.B.B.B.B.B.",
"B.B.B.B.B.B.B.B.B.B.e X.} }  .} } } } } X.u d X.} } } } } X.o.( q } X. .} } } } X.` 1 (  .} } } } } } X.X.`   B.B.B.B.B.B.B.B.B.",
"B.B.B.B.B.B.B.B.B.B.e o.X. . . . . . . .X.a g X.} }  . . .~ ! j , n ! `  .}  .}  .[ q ) o... . . ...X. ...[ o B.B.B.B.B.B.B.B.B.",
"B.B.B.B.B.B.B.B.B.B.1 ' ) ) ) ) / / ) ) ) u a ^ A h a i a @           1 d i a h ^ A q Z ' ) ) / ) ) ) ) ' Q o B.B.B.B.B.B.B.B.B.",
"B.B.B.B.B.B.B.B.B.B.< / ^ Q ^ Q ^ ^ ^ Q ^ u i Z z O   o o o + .   o + o . o   : Z z w z ^ ^ ^ ^ ^ ^ Q ^ ^ W   B.B.B.B.B.B.B.B.B.",
"B.B.B.B.B.B.B.B.B.B.= i u u u w w u w u r w : . o o k o.} X.X.( q } X.} } X.e o o . 1 r w u u w w u u u u w   B.B.B.B.B.B.B.B.B.",
"B.B.B.B.B.B.B.B.B.B.e X.}  . .} r _ X. .:       _  .} [ [ ] { Q w ) [ ] [ [ } X.!       s O.X.h g X. .X.X.` . B.B.B.B.B.B.B.B.B.",
"B.B.B.B.B.B.B.B.B.B.e  .{ { { [ u ) ` e   t ! ! } { ] ' ] ' [ A r ) ] ] ] ) {  .[ ! ! & & s  .h f  .{ |  .) . B.B.B.B.B.B.B.B.B.",
"B.B.B.B.B.B.B.B.B.B.1 ] ' ' ' / u d y   7 ( O...' ' ' W g d g u : a d g g ) ' ) ' o.+.n ;   d i d ' ' ' ' Q . B.B.B.B.B.B.B.B.B.",
"B.B.B.B.B.B.B.B.B.B.< ^ A A A A w #   < }  .) ) ) c x 1                   h c A [ ' } @.! &   : d Q Q Z Q c . B.B.B.B.B.B.B.B.B.",
"B.B.B.B.B.B.B.B.B.B.@ i u r r w O   < o.[ ) / W A +                           : ^ Q )  .o._ o   , r u u u u   B.B.B.B.B.B.B.B.B.",
"B.B.B.B.B.B.B.B.B.B.t o.X.o.} +   y X.[ ) ] d . .                               . O Z ' ) { } +   t o.X.o.` . B.B.B.B.B.B.B.B.B.",
"B.B.B.B.B.B.B.B.B.B.e { { { ) . j ` { ) ] e o                                       @ c ] [ [ ~ ; <  .{ { ) . B.B.B.B.B.B.B.B.B.",
"B.B.B.B.B.B.B.B.B.B.1 ] ' Q a   _ o.) ) h +                                           e c ' ) @.< @ d ) ] ^ . B.B.B.B.B.B.B.B.B.",
"B.B.B.B.B.B.B.B.B.B.< / ) a   & (  ./ Z +                                               < Q ) o.y o   A / W . B.B.B.B.B.B.B.B.B.",
"B.B.B.B.B.B.B.B.B.B.= i i < . } [ ' c                                                     & ) ' X.k   r u w   B.B.B.B.B.B.B.B.B.",
"B.B.B.B.B.B.B.B.B.B.7  .p .    .{ ' c                                                     @ ) ) o.n   O ! [ . B.B.B.B.B.B.B.B.B.",
"B.B.B.B.B.B.B.B.B.B.e O.y + ~ [ ] l :                                                     . 1 Q { [ k   ~ [ . B.B.B.B.B.B.B.B.B.",
"B.B.B.B.B.B.B.B.B.B.1 | e & +.' ' p                                                           Q )  .`   c / . B.B.B.B.B.B.B.B.B.",
"B.B.B.B.B.B.B.B.B.B.< ) 1 ; o.' Z q                                                           f ^  .`   l Q . B.B.B.B.B.B.B.B.B.",
"B.B.B.B.B.B.B.B.B.B.- f ; ; o.' f -                                                           w Z  .`   r d   B.B.B.B.B.B.B.B.B.",
"B.B.B.B.B.B.B.B.B.B.7 o.y + A c u -                                                           1 f Z h   ! ` . B.B.B.B.B.B.B.B.B.",
"B.B.B.B.B.B.B.B.B.B.e O.r + ^ A f ,                                                         . u l A x   ~ [ . B.B.B.B.B.B.B.B.B.",
"B.B.B.B.B.B.B.B.B.B.1 { q ; o.] A 1                                                           d ^ ..`   c ^ . B.B.B.B.B.B.B.B.B.",
"B.B.B.B.B.B.B.B.B.B.< ] 1 ; o.' c 1                                                           d A | `   l A . B.B.B.B.B.B.B.B.B.",
"B.B.B.B.B.B.B.B.B.B.: f - ; O.' Z 1                                                           d Q  .`   r d . B.B.B.B.B.B.B.B.B.",
"B.B.B.B.B.B.B.B.B.B.1  .y + A c d -                                                           w f A h   m ` . B.B.B.B.B.B.B.B.B.",
"B.B.B.B.B.B.B.B.B.B.e o.r + A c d ,                                                           q l A l   ! [ . B.B.B.B.B.B.B.B.B.",
"B.B.B.B.B.B.B.B.B.B.1 | e ; o.] Z 1                                                         . d ^  .`   c ^ . B.B.B.B.B.B.B.B.B.",
"B.B.B.B.B.B.B.B.B.B.< / 1 ; o.' Z 1                                                         . d Q  ._   h Z . B.B.B.B.B.B.B.B.B.",
"B.B.B.B.B.B.B.B.B.B.: z : ; o.' Z q                                                           d Q  .`   i g . B.B.B.B.B.B.B.B.B.",
"B.B.B.B.B.B.B.B.B.B.e @.y + A z d :                                                           q f Z h   ~ } . B.B.B.B.B.B.B.B.B.",
"B.B.B.B.B.B.B.B.B.B.1 ..e @ Q c d ,                                                         . w l A x   W ' . B.B.B.B.B.B.B.B.B.",
"B.B.B.B.B.B.B.B.B.B.1 { q ; o.' Z 1                                                           d A  .`   c ) . B.B.B.B.B.B.B.B.B.",
"B.B.B.B.B.B.B.B.B.B., A < ; o.) c 1                                                           a A  .)   d l . B.B.B.B.B.B.B.B.B.",
"B.B.B.B.B.B.B.B.B.B.< ^ < ; X.) z 1                                                           i A { _   g c . B.B.B.B.B.B.B.B.B.",
"B.B.B.B.B.B.B.B.B.B.e #.p O z l u -                                                           1 d z d   _ X.. B.B.B.B.B.B.B.B.B.",
"B.B.B.B.B.B.B.B.B.B.q ..y @ / Z d -                                                           r l ^ c   W ) . B.B.B.B.B.B.B.B.B.",
"B.B.B.B.B.B.B.B.B.B.< / < ; O.) z <       $ 2 2 2 2 % % 2 2 % % % % 2 % 2 2 2 2 2 2 2 2 $   . a A  .`   h A . B.B.B.B.B.B.B.B.B.",
"B.B.B.B.B.B.B.B.B.B.@ d = @ ( c a ;   3 3 4 5 6 6 6 5 5 5 5 5 5 4 4 5 5 6 5 5 5 5 4 4 4 4 2 . q d Q x   q u   B.B.B.B.B.B.B.B.B.",
"B.B.B.B.B.B.B.B.B.B.                $ b b b b b b v b v b v v v v v v v v b v v v v v v v v                   B.B.B.B.B.B.B.B.B.",
"B.B.B.B.B.B.B.B.B.B.B.B.B.B.B.B.B.B.B.B.B.B.B.B.B.B.B.B.B.B.B.B.B.B.B.B.B.B.B.B.B.B.B.B.B.B.B.B.B.B.B.B.B.B.B.B.B.B.B.B.B.B.B.B.",
"B.B.B.B.B.B.B.B.B.B.B.B.B.B.B.B.B.B.B.B.B.B.B.B.B.B.B.B.B.B.B.B.B.B.B.B.B.B.B.B.B.B.B.B.B.B.B.B.B.B.B.B.B.B.B.B.B.B.B.B.B.B.B.B."
};
