/* XPM */
static char *_25d0f0146464b39f6f914bad80d5d6dp5bi1ZXguNuP2TJM[] = {
/* columns rows colors chars-per-pixel */
"64 64 251 2 ",
"   c #190E0E",
".  c #1C1715",
"X  c #2A0400",
"o  c #320A00",
"O  c #3E0E0E",
"+  c #2A170C",
"@  c #39150B",
"#  c #221514",
"$  c #251915",
"%  c #291C14",
"&  c #231E18",
"*  c #341A14",
"=  c #0E2F12",
"-  c #19261A",
";  c #0E3212",
":  c #0C3B1A",
">  c #103212",
",  c #173718",
"<  c #2C2A0E",
"1  c #292614",
"2  c #342216",
"3  c #362A13",
"4  c #3B2419",
"5  c #372819",
"6  c #26371B",
"7  c #1B2824",
"8  c #193529",
"9  c #143929",
"0  c #242A2A",
"q  c #363628",
"w  c #2A3B36",
"e  c #313E36",
"r  c #373B3C",
"t  c #383B3C",
"y  c #491B07",
"u  c #561808",
"i  c #641400",
"p  c #6B1600",
"a  c #54250E",
"s  c #59260A",
"d  c #59290D",
"f  c #51310C",
"g  c #4B2715",
"h  c #442C1B",
"j  c #5A2C16",
"k  c #552E1A",
"l  c #47341B",
"z  c #573418",
"x  c #682A06",
"c  c #792709",
"v  c #6A380A",
"b  c #77360A",
"n  c #643C1A",
"m  c #763A17",
"M  c #7A3D1D",
"N  c #483721",
"B  c #593D21",
"V  c #603F21",
"C  c #0B491D",
"Z  c #174319",
"A  c #18571E",
"S  c #29471C",
"D  c #2C4B1D",
"F  c #116D18",
"G  c #164622",
"H  c #1B4627",
"J  c #174922",
"K  c #1C4C22",
"L  c #0C5D24",
"P  c #0A5729",
"I  c #0E532D",
"U  c #1C5323",
"Y  c #115A26",
"T  c #155628",
"R  c #194A37",
"E  c #1A573A",
"W  c #294629",
"Q  c #344523",
"!  c #255327",
"~  c #225B20",
"^  c #2F4237",
"/  c #2F413B",
"(  c #324337",
")  c #33443C",
"_  c #305430",
"`  c #0B6324",
"'  c #08652A",
"]  c #09652E",
"[  c #056C2A",
"{  c #09692D",
"}  c #146425",
"|  c #1A6A26",
" . c #02762E",
".. c #0C7628",
"X. c #017C2F",
"o. c #167724",
"O. c #0B6B34",
"+. c #166639",
"@. c #037431",
"#. c #0B7233",
"$. c #027B31",
"%. c #0A7B39",
"&. c #127238",
"*. c #27672A",
"=. c #2F712A",
"-. c #484B1A",
";. c #52511A",
":. c #664717",
">. c #76471B",
",. c #7D411E",
"<. c #6F5018",
"1. c #47532D",
"2. c #48542D",
"3. c #455A2F",
"4. c #4D5D2C",
"5. c #4E4B33",
"6. c #644323",
"7. c #6A4524",
"8. c #644E27",
"9. c #6A4A26",
"0. c #6B4E28",
"q. c #764B26",
"w. c #794D24",
"e. c #6B5427",
"r. c #755228",
"t. c #4F7021",
"y. c #767132",
"u. c #373F40",
"i. c #393D42",
"p. c #1C4D40",
"a. c #284442",
"s. c #364344",
"d. c #2F5945",
"f. c #196944",
"g. c #0C7042",
"h. c #177743",
"j. c #157C4D",
"k. c #1B7752",
"l. c #157D52",
"z. c #2A6448",
"x. c #246B58",
"c. c #326754",
"v. c #277558",
"b. c #2A7265",
"n. c #586C4D",
"m. c #831B15",
"M. c #832C04",
"N. c #862D09",
"B. c #86360A",
"V. c #91320D",
"C. c #8B3E16",
"Z. c #853A18",
"A. c #8D4C15",
"S. c #89441C",
"D. c #974619",
"F. c #AA460B",
"G. c #A74D1A",
"H. c #AD5216",
"J. c #B8581B",
"K. c #B9671C",
"L. c #894722",
"P. c #9C4C22",
"I. c #885625",
"U. c #9C5222",
"Y. c #A34E22",
"T. c #A35423",
"R. c #AB5524",
"E. c #AC5A24",
"W. c #A95A28",
"Q. c #B45D26",
"!. c #B85C27",
"~. c #B45E29",
"^. c #97692B",
"/. c #996E2F",
"(. c #9A702F",
"). c #986E30",
"_. c #9A7231",
"`. c #A66726",
"'. c #B56225",
"]. c #BB6326",
"[. c #BC6B26",
"{. c #B66329",
"}. c #BB6529",
"|. c #B5692B",
" X c #BD6A2A",
".X c #AB7430",
"XX c #D0701D",
"oX c #C35F21",
"OX c #C26526",
"+X c #C56B25",
"@X c #C26629",
"#X c #C36C2B",
"$X c #CA6D2A",
"%X c #D76C28",
"&X c #CE7124",
"*X c #C5722C",
"=X c #CB732C",
"-X c #C67B2E",
";X c #CC7A2F",
":X c #D77628",
">X c #D37A2D",
",X c #CA7531",
"<X c #C57A31",
"1X c #CA7B30",
"2X c #D47D32",
"3X c #D87B35",
"4X c #E36E26",
"5X c #E57729",
"6X c #0A8526",
"7X c #04832D",
"8X c #09862D",
"9X c #068A2C",
"0X c #0A8A2C",
"qX c #148629",
"wX c #0C932A",
"eX c #0B952A",
"rX c #139B2A",
"tX c #189829",
"yX c #0A853B",
"uX c #2A8E29",
"iX c #16A12A",
"pX c #1CA52A",
"aX c #1EAA2A",
"sX c #23AB27",
"dX c #21AC29",
"fX c #24B229",
"gX c #48802B",
"hX c #0F8448",
"jX c #178647",
"kX c #178153",
"lX c #238C4A",
"zX c #25885E",
"xX c #24A552",
"cX c #A3892E",
"vX c #C88534",
"bX c #D58334",
"nX c #D98135",
"mX c #DC893B",
"MX c #EA872A",
"NX c #E58634",
"BX c #EC8B34",
"VX c #E28D3B",
"CX c #F38A34",
"ZX c #E5913B",
"AX c #EA943B",
"SX c #E39D3A",
"DX c #FA983B",
"FX c #FFA73F",
"GX c #EE9E42",
"HX c #FCAA42",
"JX c #FFB943",
/* pixels */
"X.X.X.$.$.$.$.$.X.X.X.X.X.X.$.$.X.X.X.X.X.X.X.X.X.X.X.X.$.X.X.X.X.X.X.$.$.$.X.X.X.$.$.$.X.X.X.X.X.X.X.X.X.X.X.X.$.$.$.$.$.$.X.X.",
"X.X.X.X.X.X.X.X.X.X.X.X.X.X.X.X.X.X.X.X.X.X.X.X.X.X.X.X.X.X.X.X.X.X.X.X.X.X.X.X.X.X.X.X.X.X.X.X.X.X.X.X.X.X.X.X.X.X.X.X.X.X.X.X.",
"0X0XX.X.X.X.0X0XX.X.X.X.X.X.X.X.X.X.X.X.X.X.X.X.X.X.8X8XX.X.X.X.0X0XX.X.X.X.8X8XX.X.X.X.X.X.X.X.0X0XX.X.X.X.X.X.X.X.0X0XX.X.X.X.",
"0X0XX.X.X.X.0X0XX.X.X.X.X.X.X.X.X.X.X.X.X.X.X.X.X.X.0X0XX.X.X.X.0X0XX.X.X.X.8X8XX.X.X.X.X.X.X.7XeXeX7X7XX.X.X.X.X.X.0X0XX.X.X.X.",
"X.X.X.X.X.X.X.X.X.X.X.X.X.X.9X9XX.X.$.X.wXwXX.X.X.X.8X8XX.X.X.X.X.X.X.X.X.X.X.X.X.X.X.X.X.X.9XwXaXdXfXdXX.X.X.X.X.X.0X0XX.X.X.X.",
"X.X.X.X.X.X.X.X.X.X.X.X.X.7X9X9XX.X.X.7XwXwXX.X.X.X.8X8XX.X.X.X.X.X.X.X.X.X.X.X.X.X.X.X.X.X.wXrXdXfXfXaXX.X.X.X.X.X.0X0XX.X.X.X.",
"X.X.X.X.X.X.X.X.X.X.X.X.X.X.X.X.7X7XeXeXX.X.X.X.X.X.X.X.X.X.0X0XX.X.X.X.X.X. .X.aXsXX.X.X.7XdXfXfXsX8XX.X.X.wXwXX.X.X.X.X.X.X.X.",
"X.X.X.X.X.X.X.X.X.X.X.X.X.X.X.X.7X7XeXeXX.X.X.X.X.X.X.X.X.X.0X0XX.X.X.X.X.X.X.7XdXdX7XX.X.X.aXdXdXpX7XX.X.X.wXwXX.X.X.X.X.X.X.X.",
"X.X.8X8X$.$.$.| 5 q q + d.%.$.X.X.X.X.X.X.X.0X0XX.X.X.X.X.X.X.X.X.X.X.X.X.X.rXrX7XX.X.X.X.$.X.X.9X9XjXr 2 q 5 5 h.$.X.X.0X0XX.X.",
"X.X.0X0XX.X.$.*.r.A.I.B.z z.%.X.X.X.X.X.X.X.0X0XX.X.X.X.X.X.X.X.X.X.X.X.X.X.rXrXX.X.X.X.X.$.$.$.7X%.n.I.A.S.A.v z.%.X.X.0X0XX.X.",
"$.X.X.X.X.X.X.*.vXMX5X5XB.U tXpXdXaXX.X.X.X.X.X.X.X.X.X.wXwXX.X.X.X.0X0XX.X.X.X.8X8XX.X.X.X.X.X.@.R S.MXBX:X5XF.q g.$.$.X.X.X.X.",
"$.X.X.X.X.X.X.*.vX3X=X3X<.` pXaXaXpXX.X.X.X.X.X.X.X.X.X.0X0XX.X.X.X.0X0XX.X.X.X.8X8XX.X.X.X.X.X.@.7 b MXNX,X3XV.1 hXX.$.X.X.X.X.",
"$.X.X.X.X.X.@.-.[.{.E.Q.:.[ aXaXX.X.X.X.X.X.X.X.X.X.8X8XX.X.X.$.X.X.X.X.X.X.X.X.X.X.X.X.rXrXX.X. .a.m XX#XE.~.c 1 xXyX .X.X.X.$.",
"X.X.X.[ [  .I :.=X}.'.].8.[ pXtX{ ] ] ] ] ] { { ] ] #.#.] ] { { { { { { { ] ] ] ] ] ] { o.o.{ ] P 8 >.=X$X{.}.B.* x.k.P I %.$.$.",
"X.X.#._ 4.*., q.2X#X'.].e.K } *.3.2.2.2.2.2.2.1.1.1.2.2.1.1.4.4.4.4.4.4.1.1.2.1.1.1.1.1.4.4.1.2.Q & q.2X=X[.#XL.* $ N z 5.z.%.$.",
"$. .=.-XSX`.4 6.1X XW.Q.w.& -..XbXvX1X1X1X1X1X1X1X1X1X<X-X-X1X1X1X<X<X1X1X1X-X-X-X-X<X-X-X*X-XbX|.h 6.,X$X}.+XM $ z K.:X[.5.+.$.",
"$.P :.CXJXbXl B ;X#XT.R.M . w.BXDXBXBXBXBXBXBXBXBXBXBXBXBXBXBXBXBXBXBXBXBXBXBXBXBXBXBXBXBXNXBXDXnXB B *X@X'.$Xm # w.HXHX4Xx : $.",
"$.8 v }.CX|.4 6.1X*X'.Q.M $ n }.$X}.~.{.#X#X X X X X#X#X*X*X#X}.}.#X#X X}.}. X X}.}.}.}.#X#X#X$XW.h 6.=X#X{.#XM $ z 2XCXJ.a C X.",
"X.0 x H.5XT.4 6.,X#X#X@XS.$ z E.].R.P.Y.E.'.Q.E.R.E.'.[. X}.'.R.R.'.}.E.R.R.E.E.R.Y.P.Y.Q.}.Q.R.C.4 6.1X>X#X@XM $ z OX:XH.k I X.",
"X.0 x D.@XS.5 9.,X}. X#XS.$ k U.E.T.P.P.T.T.T.T.T.T.T.W.W.R.T.T.T.T.T.T.P.U.T.T.T.P.P.P.T.T.T.Y.Z.4 7.1X$X}.#X,.$ k E.OXD.g C X.",
"X.E N l -.S 6 r.,X}.}.}.L.6 6 D l a d d d a a a a a a a a a a a a a a a a a a a a d d d a a a d y % r.1X@X'.@XL.2 + a s j Q ' X.",
"X.X.E L ..0X} r.>X*X X].D.U  .$.' : > > ; ; ; > Z , ; ; ; ; ; ; > > ; ; ; ; ; ; ; ; > > ; ; = : R 8 >.>X=X X@XS.5 : Z H R ] X.X.",
"X.X.X.X.X.X.#.:.=X#X[.}.B.K  .X.X.X.X.X.X.X.X.X.X.X.X.X.X.X.X.X.X.X.X.X.0X0XX.X.X.X.0X0XX.X.X.X.$.f.v &X*X{.}.N.W @.X.$.$.X.$.$.",
"X.X.X.X.X.X.8X-.*X{.{.#XN.S $.7XX.X.X.X.X.X.X.X.X.X.X.X.X.X.X.X.X.X.X.X.wXwXX.X.X.X.0X0XX.X.X.X.$.g.v XX*XW.Q.c e O.X.X.X.$.$.$.",
"X.X.0X0XX.X.X.-.-X*X X#XM.q qXpXX.X.9X8XX.X.X.X.X.X.X.X.8X8XX.X.X.X.X.X.X.X.X.X.X.X.X.X.X.X.X.X.%.f.v &X*X'.}.M.q lXX.X.wXwXX.$.",
"X.X.0X0XX.X.@.;.;X2X#X}.N.6 qXiX7XX.0X0X7X7XX.X.X.X.X.X.0X0XX.X.X.X.X.X.X.X.X.X.X.X.X.X.X.X.X.X.kXa.v &X*X X$XM.* lX$.X.eXeXX.$.",
"X.X.$.%. .$.f.:.>X=XW.W.N.q L  .tXtXtXtXtXtXX. .0X0XX. .X. . . . .X.0X0XX. .7X7X . . . . . .8X6X] a.m &X*X X$XN.* zXyX@.@.$.X.X.",
"X.$.+.x.T I 8 w.>X$XR.R.C.4 , Y o.o.| | o.o.Y Y } } Y Y Y Y Y Y Y Y } } Y Y } } Y Y Y Y Y Y } A : 7 w.>X$X}.#XC.* R v.v.f.&.$.$.",
"X.+.n.x m f + q.2X$X{.!.L.1 5 8.e.e.0.0.0.0.0.0.0.0.0.0.0.0.0.0.0.0.0.0.0.0.0.0.0.0.9.9.0.9.0.r.B % q.1X}.'.#XL.2 + s x 7.d.&.X.",
"X.0 U.AXFX-Xl 6.,X#X#X@XM   r.ZXDXAXAXAXAXAXAXAXAXAXAXAXAXAXAXAXAXAXAXAXAXAXAXAXAXAXZXZXZXVXAXDXvXl V -X X{.#Xm . 7.GXHX:Xd b.X.",
"X.. B.:XDX}.h 6.1X$X#X@XM . 7.2XNX3XnX3X,X,X3XnXnXnXnX3X3X3XnXnXnXnX3X3XnXnXnX3X2X2XnXnXnX2X3XBX*Xh B 1X>X#X$Xm # 7.VXDXXXu x.X.",
"$.0 b J.5XT.h 7.1X=X#XOX,.$ k E.@XQ.Q.}.{.'.'.'.'.'.'.Q.Q.Q.'.Q.Q.].[.@X'.R.T.R.E.Q.].#X}.E.R.@XE.h 6.;X=X*X$X,.$ z @X:XH.y b.X.",
"$.. b !.5XT.h 7.=X X[.OX,.$ k R.@X{.Q.}.#X}.'.Q.Q.Q.Q.Q.Q.Q.Q.Q.Q.{. X#X{.R.Y.R.Q.Q.'.}.}.E.R.@XW.h 6.1X$X'.}.,.$ z }.:XH.y v.8X",
"$.e s V.H.m 2 q.=X}.}.}.L.% g C.D.S.C.C.C.C.C.C.C.C.C.C.C.C.C.C.C.C.C.C.C.C.C.C.C.C.C.C.C.C.S.D.m 2 9.2X$XT.R.M % g G.J.V.y v.8X",
"$.w 5.@ y + . r.2X X XOXL.2 + o o o o o o o o o o o o o o o o o o o o o o o o o o o o o o o o o X   r.nX#XT.R.L.4 # y u g + v.X.",
"$.#.) 1 , : . >.>X$X X].C.< H v.c.s.u.t t r r t t t r r i.t r t i.i.u.t u.u.t r r r t i.r t s.t 0 7 >.>X*X{.}.S.*   X X * ! %.X.",
"$.X.O.[ [ X.K m >X=X X{.B.6 '  .[ ` L L L L L L o.o.L L L L L L L L L L L L L L L L L L L L ` O.j.p.v &X=X X#XZ.* J L +.f.#.X.X.",
"$.$.X.X.X.X.~ >.=X}.{.}.M.! @.X.X.X.X.X.X.X. .X.rXrXX. .X.X.X.X.X.X.X.X.X.X.X.X.X.X. . .X.X.X.X.%.f.v &X=X'.}.Z.2 } X.$.$.$.X.X.",
"X.$.$.X.$.X.S :.-X}.{.}.B.Q qXeXX.X.X.X.wX0XX.X.X.X.X.X.8X8XX.X.X.X.0X0XX.X.X.X.X.X.X.X.X.X.X.X.iX+.B.XX-XW.~.Z.4 L 7X8X8X8XX.X.",
"$.$.X.X.X.X.Y -.-X1X|.}.B.Q qXrXX.X.X.X.wX0XX.X.X.X.X.X.8X8XX.X.X.X.0X0XX.X.7X7X7X7XX.X.X.X.X.7XxXc.x &X*X{. XZ.O h.8X8X8X8XX.X.",
"$.X.9XeXeX9XO.-.-X2X|.~.M.Q [ X.X.X.$.X.X.X.X.X.8X8XX.X.X.X.X.X.X.$.X.X.@.X.aXfXfXdXX.X.X.X.eXeXhXz.f +X=X X$XN.O lXX.$.X.X.X.X.",
"$.X.8XyX0X8XE :.>X*XT.T.B.5 P  .X.X.X.X. .X.X.X.7X7XX. .X.X.X.X.X. . . . .X.sXsXsXsXX. . .X.wXwX' Y :.&X;X[.#XB.@ v.hXg.%.X.X.X.",
"$.$.z.w , : 7 r.2X$XW.R.S.5 , G T J U U G G K K J J G G G G G J ~ ~ J J ~ ~ ~ ~ J J U U J G G Z : , r.,X#X{.OXD.3 9 R 8 d.h.X.X.",
"$.E y.`.[.>.5 7.2X*X}.].Z.$ B )._.(.(.(.(.(.(.).)././.).)./././././././.(.(.(.(././././.^.^./._.I.5 9.,X}.'.#XS.% l ^.K.^.5.k.X.",
"$.- A.NXDX Xh 6.,X$X#X@XM   r.ZXAXZXZXVXmXmXVXZXVXZXVXVXVXVXVXZXZXVXmXmXVXAXAXZXVXVXVXVXVXVXZXDX<Xh V ,X*X[.$Xm # 7.ZXHX:Xs x.X.",
"$.0 b +XCX'.h 6.1X=X#XOXM . n *X>X=X=X=X#X#X*X=X=X;X;X=X=X=X;X;X=X=X;X;X=X#X#X#X$X$X;X2X;X$X$X3X}.h 6.;X>X*X$XM # n 2XCXoXu x.X.",
"X.- b OX5XE.h 6.;X$X XOXw.$ k ~.$X}.}.#X#X#X}.}.}.}.}.}.}.}.}.}.}.#X*X*X XE.R.E.Q.}.#X*X#X{.Q.$X{.h 6.,X=X X$X,.$ z $X5XH.y x.$.",
"X.0 x J.4XG.4 9.,X}.}.OXw.$ z E.OXQ.Q.].}.].Q.Q.Q.Q.Q.Q.Q.Q.Q.Q.Q.Q.].].Q.R.R.R.Q.Q.Q.].].Q.Q.@XW.h 6.1X$XQ.!.M $ k @X5XF.y b.$.",
"X.E k c C.d 2 q.1X#X XOXL.2 @ i i i i i i i i i i i i i i i i i i i i i i i i i i i i i i i p p u + 0.3X$XT.R.w.2 4 Z.D.b @ k.$.",
"$.#._ 1 < - - w.2X-X*X@XL.* - e s./ ^ e ( ( ^ / / ^ e ^ ) ) ^ ^ / s.( ( e e ( ^ ( ( / a.^ e q ( w . w.2X*XW.Q.S.5 - < 3 3 Z %.X.",
"X.X.#.` o...C :.>X=X X].C.< +.j.kXl.j.j.j.j.j.j.l.j.jXjXkXl.j.j.l.l.l.j.j.j.j.j.j.j.j.l.j.j.kXkXh.R :.&X=X}.#XS.< P ` L ` ..X.X.",
"X.X.X.X.wXwXL n >X%X!.~.M.Z @.$.$.$.$.$.$.$.$.$.$.$.0X0X$.$.$.$.$.$.$.$.$.$.$.$.$.$.$.$.$.$.$.$.$.O.:.%X%X@X XZ.< [ X.X.8X8XX.X.",
"X.X.X.X.X.X.A m :X#XT.W.M.U 0X0XX.X.X.X.X.X.X.X.X.X.X.X.X.X.X.X.X.X.X.X.8X8XX.X.X.X.rXrXX.X.X.X.X.O.:.4X*XQ.!.Z.< ..X.X.X.X.X.X.",
"X.X.X.X.$.X.U B.vXy.<.P.M.T 0X0XX.X.X.X.7X7XX.X.X.X.X.X.X.X.X.X.X.X.X.X.8X8XX.X.X.X.rXrXX.X.X.X.X.g.S.XXcX^.OXZ.< o.X.X.X.X.X.X.",
"X.X.eXeXX.X.A z gXuX;.D.V.! X.X.rXrXrXrXaXaXX.@.X.X.X.X.X.X.X.X.X.X.X.X.X.X.X.X.X.X.X.X.X.X.X.X.$.f.-.t.uXgX`.C.4 ' X.X.X.X.X.X.",
"X.X.rXrXX.X.L Z qX8X=.S.m.K  .X.rXrXrXrXaXaX7XX.X.X.X.X.X.X.X.X.X.X.X.X.X.X.X.X.X.X.$.X.X.X.X.X. .} ` 0X8X7X=.M 4 ` X.X.X.X.X.$.",
"X.X.X.X.X.X...` tX0XqX-.j T X.X.X.X.9X0X9X0XdXaXX.X.X.X.rXiX7XX.X.X.X.X.X.X.rXrXX.X.X.X.X.X.X.X.6XF qXsXdXaX..Q S [ X.X.wXwXX.$.",
"X.X.X.$.X.X.o.uXtX0XX.*.l | X.X.X.X.8X9X7X9XdXaXX.X.X.X.iXiXX.X.X.X.X.X.X.X.iXiXX.X.X.X.X.X.X.X.0X..tXsXdXpXX.| |  .X.X.wXeXX.$.",
"X.X.X.X.0X0XX.X.X.X.X.X.0X0XX.X.X.X.X.X.X.X.X.X.X.X.X.X.X.X.X.X.X.X.9X9XX.X.X.X.X.X.X.X.8X8XX.X.X.7XrXrXX.X.X.X.0X0XX.X.X.X.X.X.",
"X.X.X.X.0X8XX.X.X.X.X.X.0X0XX.X.X.X.X.X.X.X.$.X.X.X.X.X.X.$.X.X.X.X.9X9XX.X.X.X.X.X.X.X.8X8XX.X.X.X.rXrXX.X.X.X.0X0XX.X.X.X.X.X.",
"X.X.X.X.X.X.X.X.X.X.X.X.X.X.X.X.X.X.X.X.7X7XX.X.X.X.9X9XX.X.0X0XX.X.X.X.0XwXX.X.X.X.X.X.X.X.X.X.X.X.X.X.X.X.8X8XX.X.X.X.X.X.X.X.",
"X.X.X.X.X.X.X.X.X.X.X.X.X.X.X.X.X.X.X.X.7X7XX.X.X.X.8X8XX.X.0X0XX.X.X.X.0X0XX.X.X.X.X.X.X.X.X.X.X.X.X.X.X.X.8X8XX.X.X.X.X.X.X.X.",
"X.X.X.X.X.X.X.X.X.X.X.X.X.X.X.X.X.X.X.X.X.X.X.X.X.X.X.X.X.X.X.X.X.X.X.X.X.X.X.X.X.X.X.X.X.X.X.X.X.X.X.X.X.X.X.X.X.X.X.X.X.X.X.X.",
"X.X.X.X.X.X.$.X.X.X.X.X.X.X.X.X.X.X.X.X.$.X.X.X.X.X.X.X.X.X.X.X.X.X.X.X.X.X.X.X.X.X.X.X.$.X.X.X.X.X.X.X.X.X.X.X.X.X.X.$.X.X.X.X."
};
