/* XPM */
static char *fd8137ec54fc4662a42db9047c5df239veqV88Zl1xBiUL4w[] = {
/* columns rows colors chars-per-pixel */
"64 64 248 2 ",
"   c #190605",
".  c #1B1414",
"X  c #290902",
"o  c #370604",
"O  c #34030A",
"+  c #28180D",
"@  c #36160B",
"#  c #3A0912",
"$  c #221514",
"%  c #231913",
"&  c #2B1A15",
"*  c #351D14",
"=  c #2F2613",
"-  c #372218",
";  c #3C2B1C",
":  c #121B21",
">  c #18252B",
",  c #1B2D36",
"<  c #2C2D26",
"1  c #26363A",
"2  c #28363A",
"3  c #28383A",
"4  c #460700",
"5  c #430B00",
"6  c #51060A",
"7  c #481906",
"8  c #421D0A",
"9  c #531D07",
"0  c #681A10",
"q  c #48240C",
"w  c #582309",
"e  c #532E0D",
"r  c #472816",
"t  c #45311E",
"y  c #4B331C",
"u  c #553010",
"i  c #5A341B",
"p  c #732807",
"a  c #712F11",
"s  c #673A1C",
"d  c #733212",
"f  c #7A3A1A",
"g  c #483521",
"h  c #56372A",
"j  c #145417",
"k  c #325318",
"l  c #1C6E0C",
"z  c #25790E",
"x  c #277915",
"c  c #257B1C",
"v  c #1B413E",
"b  c #017C2F",
"n  c #0A7F2C",
"m  c #117527",
"M  c #287D21",
"N  c #337C3C",
"B  c #4A4E19",
"V  c #74421F",
"C  c #58462E",
"Z  c #654322",
"A  c #7D5328",
"S  c #576F21",
"D  c #786221",
"F  c #1F3C47",
"G  c #273A45",
"H  c #26485C",
"J  c #2D4C58",
"K  c #26635C",
"L  c #2F596D",
"P  c #345668",
"I  c #34596A",
"U  c #2C647D",
"Y  c #356877",
"T  c #32667C",
"R  c #556456",
"E  c #566456",
"W  c #86340A",
"Q  c #88340E",
"!  c #A23C11",
"~  c #84411D",
"^  c #994C11",
"/  c #9B481B",
"(  c #A4480D",
")  c #B6570B",
"_  c #A74C16",
"`  c #A75817",
"'  c #B65B16",
"]  c #884823",
"[  c #9B4D22",
"{  c #865729",
"}  c #9B5423",
"|  c #A14F23",
" . c #A55323",
".. c #AA5624",
"X. c #A85827",
"o. c #AD5A25",
"O. c #B35D24",
"+. c #B55B28",
"@. c #A86528",
"#. c #AD6D2A",
"$. c #B56226",
"%. c #BB6426",
"&. c #B96B26",
"*. c #B56429",
"=. c #BB6529",
"-. c #BD6A29",
";. c #B8742F",
":. c #C55B19",
">. c #CA6B1C",
",. c #C56828",
"<. c #C36C2A",
"1. c #D56C29",
"2. c #C5702B",
"3. c #CD752C",
"4. c #D5782B",
"5. c #C67533",
"6. c #CE7A30",
"7. c #D77631",
"8. c #D57D33",
"9. c #DB7C32",
"0. c #E57E2F",
"q. c #E77F34",
"w. c #2D8315",
"e. c #2E8C11",
"r. c #2C861B",
"t. c #328B16",
"y. c #39951B",
"u. c #05832D",
"i. c #0B832D",
"p. c #068A2B",
"a. c #0B8C2C",
"s. c #14832A",
"d. c #1A8629",
"f. c #198928",
"g. c #0C922B",
"h. c #179729",
"j. c #268525",
"k. c #2C8421",
"l. c #268B26",
"z. c #2B8D25",
"x. c #358622",
"c. c #328C22",
"v. c #2D9325",
"b. c #299725",
"n. c #359323",
"m. c #399523",
"M. c #359924",
"N. c #3D9C24",
"B. c #36932C",
"V. c #329237",
"C. c #1AA42A",
"Z. c #21AB29",
"A. c #3FA024",
"S. c #3DA528",
"D. c #469B08",
"F. c #429F1C",
"G. c #49A51C",
"H. c #50AC14",
"J. c #409E24",
"K. c #519328",
"L. c #639028",
"P. c #41A224",
"I. c #4BAC26",
"U. c #43A429",
"Y. c #47AB28",
"T. c #4CB22B",
"R. c #53B528",
"E. c #51AF31",
"W. c #2D914F",
"Q. c #379948",
"!. c #339758",
"~. c #38A05B",
"^. c #3AA46E",
"/. c #4BB04D",
"(. c #54BA58",
"). c #44AD66",
"_. c #58C145",
"`. c #5CC86F",
"'. c #8CA334",
"]. c #D0802B",
"[. c #DA8135",
"{. c #D98537",
"}. c #DE8C39",
"|. c #E38435",
" X c #E28B39",
".X c #EC8B39",
"XX c #E2913A",
"oX c #EC953C",
"OX c #F39038",
"+X c #FFA33F",
"@X c #FAA847",
"#X c #346C84",
"$X c #336C88",
"%X c #387488",
"&X c #387590",
"*X c #3273A4",
"=X c #417D8C",
"-X c #407D91",
";X c #417F9A",
":X c #3E8598",
">X c #3AAA83",
",X c #43879A",
"<X c #4F9299",
"1X c #46B595",
"2X c #4792A9",
"3X c #55A8B8",
"4X c #56CA98",
"5X c #60D29C",
"6X c #55CAB0",
"7X c #62D8B7",
"8X c #54A6CB",
"9X c #5BB4D3",
"0X c #5DB9DA",
"qX c #5DB5EC",
"wX c #61BAEB",
"eX c #61BCF7",
"rX c #57C8C8",
"tX c #55CFD3",
"yX c #67D9C7",
"uX c #66C7D6",
"iX c #69D2D1",
"pX c #6DE3CE",
"aX c #5FC3E7",
"sX c #5CDCF9",
"dX c #69DAE9",
"fX c #6AD9F6",
"gX c #6CD6FE",
"hX c #6FD8FF",
"jX c #70D7FF",
"kX c #70D9FF",
"lX c #5CE9F3",
"zX c #6BE2EB",
"xX c #73E5E8",
"cX c #6DE1F2",
"vX c #6BE8F7",
"bX c #6CE3FE",
"nX c #75E8F4",
"mX c #74EBF6",
"MX c #73E3FF",
"NX c #76EBFF",
"BX c #78EDFF",
"VX c #6AF4F8",
"CX c #7BF4F6",
"ZX c #76F1FB",
"AX c #7BF3FE",
"SX c #7EFAFF",
"DX c #80F6FF",
"FX c #84FEFF",
/* pixels */
"hXhXhXhXhXhXhXhXkXhXhXhXhXhXhXhXhXhXhXhXhXkXkXhXkXhXhXhXhXhXhXhXhXhXhXhXhXhXhXkXhXhXhXhXhXkXkXhXhXkXhXhXhXhXhXkXhXhXhXhXhXhXhXhX",
"hXhXhXhXhXhXhXhXhXhXhXhXhXhXhXkXhXhXhXhXhXhXhXhXhXhXhXkXkXhXhXhXhXhXhXhXhXhXhXkXhXhXhXhXkXkXhXhXhXhXkXhXhXhXhXkXhXhXhXhXhXhXhXhX",
"hXhXhXhXhXhXhXhXhXhXhXkXhXhXhXhXhXhXhXhXhXhXhXhXhXhXhXhXhXhXhXhXhXhXhXhXhXhXhXhXhXhXhXhXhXhXhXhXhXhXkXhXhXhXhXhXhXhXhXhXhXhXhXhX",
"hXhXhXhXhXhXhXkXkXkXhXhXhXhXhXhXhXkXkXhXhXhXhXhXhXhXhXhXhXhXhXhXhXhXhXhXhXhXhXhXhXhXhXhXhXhXkXkXhXhXhXhXhXhXhXhXhXhXhXhXhXhXhXhX",
"hXhXhXhXhXhXhXhXhXhXhXhXhXhXkXhXhXhXhXhXhXhXhXhXkXhXhXhXhXhXhXhXhXhXhXhXhXhXhXhXhXhXhXhXhXhXhXhXhXhXhXhXhXhXhXhXhXhXhXhXhXhXhXhX",
"hXhXhXhXhXhXhXhXhXhXhXhXhXhXhXhXhXhXhXhXhXhXhXkXkXhXhXhXhXhXhXhXhXhXhXhXhXhXhXhXhXhXhXhXhXhXhXhXhXhXhXhXhXhXhXhXhXhXhXhXhXhXkXhX",
"hXhXhXkXkXkXhXhXhXhXhXhXhXhXhXhXhXhXhXhXhXhXhXkXkXhXhXhXhXhXhXhXhXhXhXhXhXhXhXhXhXhXhXhXhXhXhXhXhXhXkXhXhXhXhXhXhXhXhXhXhXhXhXhX",
"kXhXhXkXkXkXhXhXhXhXhXhXhXhXhXhXhXhXhXhXhXhXhXhXhXhXhXhXhXhXhXhXhXhXhXhXhXhXhXhXhXhXhXhXhXhXhXhXhXhXkXhXhXhXhXkXhXhXhXhXhXhXhXhX",
"kXhXhXhXhXhXhXhXhXkXhXhXkXhXhXhXhXhXhXhXhXhXhXhXhXhXhXhXhXhXhXhXhXhXhXhXhXhXhXhXhXhXkXhXhXhXhXhXhXhXhXhXhXhXkXkXhXkXhXhXhXhXhXhX",
"hXhXhXhXhXhXhXhXhXkXhXhXjXkXhXhXhXhXhXhXhXhXhXkXhXhXhXhXhXkXkXhXhXhXhXhXhXhXkXkXhXhXkXhXhXkXhXhXkXkXhXhXhXhXkXkXhXkXhXhXhXhXhXhX",
"hXhXhXhXhXhXhXhXkXkXhXhXkXkXjXkXhXkXkXhXhXhXhXkXhXhXhXhXhXkXkXhXhXhXhXhXhXhXkXkXhXhXhXhXhXkXkXhXkXkXhXhXhXhXkXhXhXhXhXhXhXhXhXhX",
"kXhXhXhXhXkXkXhXkXgXgXhXjXkXkXkXhXkXkXhXhXhXhXhXhXhXhXhXhXhXhXhXhXhXhXhXhXhXhXhXhXhXhXkXhXhXkXkXhXhXhXgXgXhXgXhXhXhXhXhXhXhXkXhX",
"hXhXhXhXhXhXhXhXkXkXkXkXkXkXhXhXhXkXkXhXhXhXhXkXhXhXhXhXhXhXhXhXhXhXkXkXhXhXhXhXhXhXkXhXhXkXkXhXhXkXkXkXkXkXkXhXhXhXhXhXhXhXhXhX",
"hXhXhXhXhXhXhXgXkXNXNXNXNXNXkXgXgXhXhXhXhXhXhXkXhXhXhXhXhXhXhXhXhXhXhXhXhXhXhXhXhXhXhXhXhXhXgXgXgXhXNXNXNXNXNXkXgXhXhXhXhXhXhXhX",
"hXhXhXhXhXgXhXMXgX0X0X0X9XaXkXMXhXgXhXhXhXhXhXhXhXhXhXhXhXhXhXhXhXkXkXhXhXhXhXhXhXhXhXhXhXhXhXhXkXkXaX9X0X0X0XhXMXhXgXhXhXhXhXhX",
"hXhXhXhXhXgXMXCX3X$ % <   G rXmXkXgXhXhXkXhXhXkXhXhXkXkXhXhXhXhXhXhXhXhXhXhXhXkXhXhXhXhXhXhXgXkXmXiXJ   < % & 9XCXkXgXhXhXhXhXhX",
"hXgXhXhXgXNXvX,XC ' ` ` ( p < 2XMXMXhXgXhXhXhXhXhXhXhXhXhXhXhXhXhXhXhXhXhXhXkXkXhXhXhXhXhXhXkXbX3XC ` ' ^ ( ^ g ,XmXNXgXkXjXkXhX",
"kXgXhXgXgXAXzXH 6 @X.X|..X! X T cXNXkXhXhXhXhXkXhXhXhXhXhXhXhXhXhXkXkXhXhXhXkXhXhXhXhXhXhXhXNXmX%Xo >.@X9.|.1.o H xXAXgXhXkXhXhX",
"hXhXgXkXMXSXmXT 9 2.%. .+.W X -XmXAXMXMXMXMXMXMXMXMXMXMXMXMXMXMXMXMXMXMXMXMXMXMXMXMXMXMXMXMXBXZX<Xq ) 7. . ./ O T mXSXMXkXgXhXhX",
"hXgXkXhXgXbXdXL 9 3.,.$.-.W X &XfXbXgXgXgXgXgXgXgXgXgXgXgXgXgXgXgXgXgXgXgXgXgXgXgXgXgXgXgXgXhXcX,Xq ) 9.o.%./ O L zXMXgXhXkXhXhX",
"gXgXFXiXJ . > : s 8.-.$.%./ * > 1 3 1 1 2 2 2 2 1 1 2 2 2 1 1 1 1 1 2 2 2 2 2 1 1 2 2 1 1 2 2 1 > y 2.9.$.=.[ r : > . G rXFXgXgX",
"kXNX3XE @.3.#.t y 8.,.o.+.Q % Z ;.;.#.#.#.#.#.#.#.#.#.#.#.#.#.#.#.#.#.#.#.#.#.#.#.#.#.#.#.#.#.#.Z ; #.|.$.%.[ & y @.&.} E 2XMXkX",
"MXAXU 7 >.@XXXs t 6.,. ...f $ { oXoX X X X X X X X X X}.{.}.}. X X X}. X X X X X X XXX X{.{..XoX{ ; @.7. .-.[ $ Z oX@X1.9 L BXNX",
"MXAX%X8 _ |.6.i t 6.2.o.O.f % s <.<.$.O.=.-.-.-.-.-.-.<.<.<.<.%.%.-.<.-.%.-.-.-.%.%.=.=.,.,.,.-.V ; #.7.o.=.[ % i 3.|.' q T BXNX",
"MXAX%X8 ( 0.3.i t 6.<.-.,.f % s ,.2.O. .O.-.-.%.%.$.-.2.3.3.<.%.O.,.2.=.O.$.$.%.$... .o.<.<.=...s ; #.|.=.%.[ & i 2.0.' 7 T BXNX",
"MXAX#X@ Q ,...r y 6.$.*.,.~ % i ..O. . . . . . . . . ......... . ..... . . . . . . .|  ....... .s ; #.7...=.[ & r O.,./ 5 I BXNX",
"kXMXuXE 7 4 o X C 8.-.=.,.] - X 5 5 5 5 5 5 5 5 5 5 5 5 5 5 5 5 5 5 5 5 5 5 5 5 5 5 5 5 5 5 5 5 X g ;.7.o.-. .; X 5 4 7 E uXkXMX",
"gXgXSXuXY J P , s 8.2.-.,.~ @ 1 I I I I I I I I I I I I I I I I I I I I I I I I I I I P P P I I F r -.9.$.-.| * , J J I uXSXgXgX",
"hXhXkXMXfXxXdX$Xw 3.=.*.<.W X %XcXmXcXfXcXcXcXcXcXcXcXcXcXcXcXcXcXcXcXcXcXcXcXcXcXcXcXdXdXdXmXcX,Xq ) [.o.+./ O T dXxXdXMXMXjXgX",
"hXhXgXkXNXFXZX&X9 3.*.*.<.W X ,XCXSXBXBXBXBXBXBXBXBXBXBXBXBXBXBXBXBXBXBXBXBXBXBXBXBXBXBXBXBXSXCX<X8 ) [.o.../ O %XCXFXNXkXgXkXhX",
"hXhXgXkXkXSXmX$X9 4.6.<.<.W X -XmXAXMXMXMXMXMXMXMXMXMXMXMXMXMXMXMXMXMXMXMXMXMXMXMXMXMXMXMXkXBXZX,X8 ) [.$.=./ O #XmXSXkXhXgXhXhX",
"hXhXkXkXhXAXvX$X9 4.6.*.+.W X -XmXAXMXMXMXMXMXMXMXMXMXMXMXMXMXMXMXMXMXMXMXMXMXMXMXMXMXMXMXMXZXZX<X8 ) [.*.-./ O #XZXSXMXkXhXhXhX",
"hXgXSXdX&X#X%XF s 4.<. ...Q @ H :X,X;X;X;X;X;X;X;X;X;X;X;X;X;X;X;X;X;X;X;X;X;X;X;X;X;X;X;X;X,X:XH r %.9.$.-./ @ F :X&X2XdXAXgXgX",
"kXkXdX<Xu 9 7 + Z 8.2.$.+.] * * e u e e e u u e e e e e e e e e e e e e e e e e e e e e e e e e + t ;.4. .-. .- + q 7 y <XzXkXkX",
"MXAX#Xu 4.+X[.i t 6.<.-.,.f . A oXoXXXXXXX XXXXXXXXXXXXXXXXXXXXXXXXX}.}.XXXXXXXX}.}.}.}.}.}.oXXX{ ; @.7.X.-.[ $ s XX+X3.i $XBXMX",
"MXAXU 7 :.OX7.i t 6.2.-.,.f . A |.|.8.[.8.5.8.[.[.[.[.8.8.8.[.[.[.[.8.8.8.[.[.8.8.8.[.[.8.8.[.|.{ - #.|.=.-.[ . i |.+X>.9 L ZXNX",
"MXAX&Xq ( 1.%.i g 6.2.-.,.V % i O.,.O.O.%.$.O.O.O.$.$.O.O.O.O.$.O.$.-.-.$. .|  ...O.%.-.%. .O.,.V ; #.|.*.<.[ % r -.1._ q #XBXNX",
"MXAX$X7 ( 1.O.y g 6.=.*.,.f % i O.%...o.$.%.O...o.o.o.o.o.o.......o.O.$.o. .[  .o...O.O.o. .O.%.V ; #.9...o.[ & r O.1._ 7 Y BXNX",
"kXBX2Xg p Q d * h 6.=.=.,.~ & r d d d d a a a d d d d d d d d d d d d a a d d d d d d a d d d d q t ;.0. .[ [ - - Q / p q =XBXNX",
"jXkXSX3X<   . . Z 8.3.2.,.] * . % % % % % % % % % % % % % % % % % % % % % % % % % % % % % % % . . t 5.9.X. .[ r . + X & <XBXkXkX",
"hXMXBXfX0XuXrXP w 8.2.*.=.W X Y aXgXwX9X9X9X9X0XeXwX9X9XwXeX0X9XwXeX0X9X9X9X9X9X9X0XeXeX0X9X0X0X%Xr ' 9.$.-./ o H 3X9XqXkXBXjXjX",
"dX1XrXbXSXFXmX$Xw 4.1.o.+.W X ,XxXpXxXAXZXNXAXAXpXxXAXDXpXyXmXCXpXyXxXAXBXAXBXBXAXCXpXpXCXAXSXCX<X* ) q.+.$./ O T CXFXpXyXgXbXdX",
"rXr.1XsXtXvXlX$X0 4.;.} X.W @ 8X4XU.4XzXdXfXbX7XH.4XbXdX(./.dXmX`.H.5XbXfXdXfXhXbXyXE.E.tXbXcXvX2Xr :.{.} ../ O $XVXyXI.`.sXsXtX",
"sXB.1X6XB.4XVX$Xp ].L.B [ W @ 8X4XQ.6X4X(.dX6Xy.D.7XsX).D.(.lXVX5XD.B.tXyX(.7XVXtXQ.H.D.!.tX7X5X2Xh ) '.S %./ O *XlX/.D.5X6X^.tX",
").B.Q.Q.r./.`.N = S E.S [ Q # K W.l.!./.E.^.W.e.G.(.^.c.D.E.^.^./.G.y.~.(.R./.>X!.w.G.G.c !.(._.W.< k T.K.D _ 6 v W.v.G./.V.z.).",
"e.r.y.t.c F.H.x j d.R.K.s 0 & j t.c z y.P.z w.N.U.y.e.r.U.I.e.l y.T.m.w.G.I.w.l z y.T.Y.c z F.R.w.j j T.E.k f - j e.r.U.G.t.r.y.",
"w.c.P.y.c N.R.c m Y.R.f.k u j v.G.c l y.N.w.y.U.c.y.y.c.m.Y.F.x t.U.c.x y.P.w.z y.U.Y.N.k.r.P.I.c j M T.S.j B j r.P.k.N.I.M.c.G.",
"c.N.Y.m.M N.T.c.c.I.I.M.m.t.M M.U.x.M n.N.c.N.U.c.m.P.c.n.Y.U.c.c.P.N.c.n.P.c.c.Y.Y.m.k.k.N.Y.m.M k.U.Y.M.k.m.k.M.U.c.m.Y.P.N.P.",
"m.P.U.N.n.N.U.J.N.P.P.P.Y.S.m.N.P.N.m.N.A.N.N.P.M.N.P.N.N.P.P.N.N.P.U.N.N.P.N.N.U.P.m.n.m.P.U.M.m.P.I.P.N.N.P.N.N.N.N.N.P.P.P.P.",
"P.P.N.P.P.P.N.P.P.P.P.P.P.P.P.P.P.P.P.P.P.P.P.N.P.P.P.P.P.A.P.P.P.P.P.P.P.P.P.P.N.P.P.P.P.A.N.P.U.P.J.N.P.P.A.P.P.A.P.P.P.P.P.N.",
"P.A.N.P.P.P.N.P.P.P.P.A.P.A.P.P.A.P.P.P.N.n.N.P.P.N.N.P.P.N.A.P.P.N.m.N.P.P.P.P.P.A.P.P.P.A.N.P.P.P.P.P.P.P.P.P.A.A.P.P.A.N.N.A.",
"P.A.A.n.c.N.P.P.P.N.N.P.m.c.m.P.P.N.P.P.m.k.m.Y.P.c.c.N.P.J.N.P.P.m.k.n.P.P.N.A.P.N.N.A.N.P.P.M.n.N.P.P.N.A.P.A.N.A.A.P.N.c.n.P.",
"A.P.P.c.k.N.P.n.l.N.A.P.c.M m.P.P.P.A.m.c.n.A.A.m.c.n.N.P.P.n.l.M.m.k.m.N.n.N.M.n.N.A.P.P.P.P.l.j.M.N.m.P.N.v.M.A.A.A.m.c.M m.P.",
"m.P.P.c.c.N.A.s.b M.P.M.j.z.N.N.M.P.N.c.x.P.P.c.M n.P.A.M.N.l.n d.n.c.m.n.k.M.n.k.N.P.M.M.N.v.n i.M.n.c.P.l.n l.N.M.N.z.M k.M.M.",
"M N.P.c.c.M.l.b i.m.P.s.s.M.A.l.z.N.A.c.c.N.n.k.M m.P.M.n d.n.s.b d.m.n.M k.N.m.k.N.P.c.c.n.d.b d.m.v.l.v.b b M.n.s.v.d.n v.n.k.",
"j.l.N.n.z.M.d.u.d.N.l.b l.A.l.b h.A.A.z.v.N.z.k.m.A.M.d.b f.M.s.b d.m.z.M j.N.M.j.z.M.z.j.n.d.b n d.a.a.d.b b m.v.b s.n d.A.z.M ",
"i.b d.s.n l.f.g.f.N.i.b v.M.d.b d.N.v.a.a.v.Z.b.P.A.d.b h.b.l.n b i.d.i.b i.b.b.b b s.i.n v.f.b p.g.C.Z.Z.C.u.d.d.b b b h.l.s.b ",
"N.s.b b b b g.g.f.M.n b l.N.s.b d.n.f.p.u.p.Z.b.N.d.b b C.C.b b b b b b b b C.C.b b b b i.l.s.b a.g.C.Z.Z.C.u.b b b b b g.g.b b ",
"d.n b b a.a.b b b i.b b a.f.b b n s.b b b b b i.s.i.b b b b b b b b p.p.b b b b b b b b i.i.b b b u.h.h.b b b b a.a.b b b b b b ",
"b b b b a.i.b b b b b b a.a.b b b b b b b b b b b b b b b b b b b b p.p.b b b b b b b b i.i.b b b b h.h.b b b b a.a.b b b b b b ",
"b b b b b b b b b b b b b b b b b b b b u.u.b b b b p.p.b b a.a.b b b b a.g.b b b b b b b b b b b b b b b b i.i.b b b b b b b b ",
"b b b b b b b b b b b b b b b b b b b b u.u.b b b b u.u.b b a.a.b b b b a.a.b b b b b b b b b b b b b b b b i.i.b b b b b b b b ",
"b b b b b b b b b b b b b b b b b b b b b b b b b b b b b b b b b b b b b b b b b b b b b b b b b b b b b b b b b b b b b b b b ",
"b b b b b b b b b b b b b b b b b b b b b b b b b b b b b b b b b b b b b b b b b b b b b b b b b b b b b b b b b b b b b b b b "
};
