/* XPM */
static char *_147ebe9b7bc444995fd6938cbc3e203uN4pUfdPMcdHzyGE[] = {
/* columns rows colors chars-per-pixel */
"64 64 240 2 ",
"   c None",
".  c #160201",
"X  c #180200",
"o  c #120C0C",
"O  c #180B0A",
"+  c #1D110E",
"@  c #1A0F13",
"#  c #1D1413",
"$  c #1D1B1A",
"%  c #181915",
"&  c #0F1112",
"*  c #2A0603",
"=  c #320A00",
"-  c #3A0A06",
";  c #2C150E",
":  c #29170A",
">  c #34150A",
",  c #381708",
"<  c #231513",
"1  c #251915",
"2  c #2A1B14",
"3  c #261C1B",
"4  c #341C12",
"5  c #381815",
"6  c #310D12",
"7  c #1F201F",
"8  c #143916",
"9  c #26211A",
"0  c #2D2118",
"q  c #342216",
"w  c #3B2316",
"e  c #32231B",
"r  c #3B251A",
"t  c #3E291D",
"y  c #342C19",
"u  c #333B19",
"i  c #1B1723",
"p  c #1C2527",
"a  c #1E2C34",
"s  c #19303C",
"d  c #242929",
"f  c #3C2B2A",
"g  c #37332A",
"h  c #292C31",
"j  c #283637",
"k  c #39343A",
"l  c #373B3C",
"z  c #383B3C",
"x  c #373238",
"c  c #23312F",
"v  c #46050B",
"b  c #481907",
"n  c #541C08",
"m  c #56130F",
"M  c #641400",
"N  c #6B1600",
"B  c #4E280E",
"V  c #55230D",
"C  c #59250C",
"Z  c #5A2708",
"A  c #442C1B",
"S  c #482617",
"D  c #542E1A",
"F  c #572B15",
"G  c #4A331E",
"H  c #47341C",
"J  c #55311A",
"K  c #5B3418",
"L  c #57340A",
"P  c #662808",
"I  c #76280B",
"U  c #6C3508",
"Y  c #72350B",
"T  c #783509",
"R  c #623B1F",
"E  c #6A3314",
"W  c #733C13",
"Q  c #7A3D1D",
"!  c #763819",
"~  c #422C26",
"^  c #453525",
"/  c #5C3E22",
"(  c #523A20",
")  c #412C36",
"_  c #603F21",
"`  c #34571A",
"'  c #10661F",
"]  c #28611C",
"[  c #195520",
"{  c #2E4735",
"}  c #155A0E",
"|  c #544A19",
" . c #6B4D17",
".. c #7C421E",
"X. c #76441B",
"o. c #6D7D1B",
"O. c #5B472D",
"+. c #5C482D",
"@. c #564A37",
"#. c #40423B",
"$. c #644323",
"%. c #6A4524",
"&. c #6B4A26",
"*. c #6D4D28",
"=. c #604C2F",
"-. c #744B26",
";. c #7A4D24",
":. c #754E29",
">. c #7E4221",
",. c #755229",
"<. c #604B32",
"1. c #5A7723",
"2. c #7F7031",
"3. c #1D3B45",
"4. c #2A3D43",
"5. c #253E45",
"6. c #393542",
"7. c #393D42",
"8. c #373F40",
"9. c #384445",
"0. c #345450",
"q. c #2B5663",
"w. c #3D5C6A",
"e. c #35576B",
"r. c #3A6675",
"t. c #3E6B75",
"y. c #4C5C5A",
"u. c #455150",
"i. c #635F4A",
"p. c #425E6D",
"a. c #42707C",
"s. c #707560",
"d. c #831B15",
"f. c #832C04",
"g. c #852B08",
"h. c #962C04",
"j. c #853205",
"k. c #88360B",
"l. c #94340A",
"z. c #853B15",
"x. c #8B3E16",
"c. c #853819",
"v. c #943A17",
"b. c #87430D",
"n. c #8C441C",
"m. c #88451B",
"M. c #964519",
"N. c #8B511E",
"B. c #99591C",
"V. c #A54D1A",
"C. c #AD5216",
"Z. c #B8581B",
"A. c #AB460B",
"S. c #BA671C",
"D. c #8A4621",
"F. c #8A4922",
"G. c #824322",
"H. c #9C4C22",
"J. c #8A5625",
"K. c #9E5122",
"L. c #A24E23",
"P. c #A84F22",
"I. c #A35423",
"U. c #AB5524",
"Y. c #AD5A24",
"T. c #AE5D29",
"R. c #A65927",
"E. c #B45D26",
"W. c #B45E29",
"Q. c #B85C27",
"!. c #9C672A",
"~. c #9F6C31",
"^. c #A36C2F",
"/. c #AA6626",
"(. c #B56225",
"). c #BB6326",
"_. c #BD6A26",
"`. c #B66329",
"'. c #BB6529",
"]. c #BD6A2A",
"[. c #B46929",
"{. c #A36E30",
"}. c #AA7131",
"|. c #B2732F",
" X c #C15F16",
".X c #CC6A1C",
"XX c #CA761E",
"oX c #DB721F",
"OX c #C45F2B",
"+X c #C26526",
"@X c #C36A26",
"#X c #C26629",
"$X c #C36C2B",
"%X c #CA6D2A",
"&X c #C96B25",
"*X c #D76C28",
"=X c #CE7124",
"-X c #C5722C",
";X c #CB742C",
":X c #C67C2F",
">X c #CC7A2E",
",X c #D27424",
"<X c #D3792D",
"1X c #D9762A",
"2X c #CA7531",
"3X c #C67C32",
"4X c #CA7B30",
"5X c #C17231",
"6X c #D47D32",
"7X c #D97D35",
"8X c #D67735",
"9X c #E57729",
"0X c #E36E26",
"qX c #258223",
"wX c #4E9C29",
"eX c #768428",
"rX c #4EA82B",
"tX c #878D2C",
"yX c #CB8134",
"uX c #D58334",
"iX c #D98135",
"pX c #DC893B",
"aX c #D2852F",
"sX c #E88529",
"dX c #EC8B34",
"fX c #E28D3B",
"gX c #E48734",
"hX c #F38A34",
"jX c #E5913B",
"kX c #EA943B",
"lX c #E59737",
"zX c #FC9D3D",
"xX c #F99538",
"cX c #F58A2E",
"vX c #FFA73F",
"bX c #EE9E42",
"nX c #FCAA42",
"mX c #FFB943",
"MX c #3E7E91",
"NX c #40778C",
/* pixels */
"                                                                                                                                ",
"                                                                                                                                ",
"                                                                                                                                ",
"                                                                                                                                ",
"                                                                                                                                ",
"                                                                                                                                ",
"                                                                                                                                ",
"                                                                                                                                ",
"                e g g ; u.                                                                            k e g y w                 ",
"                N.N.F.k.E                                                                           s.J.m.m.b.Y y.              ",
"                lXsX9X9Xh.                                                                        j b.sXdX1X9XA.~               ",
"                gX7X;X8Xv.                                                                        p T sXgX2X8Xl.*               ",
"              E &X`.Y.E.k.                                                                        5.W .X$XY.W.I 6               ",
"            a X.;X'.(.).n.                                                                        a X.=X%X`.'.k.6 q.            ",
"      / %.^ 3 -.6X@X(.).n.      =.+.+.+.+.+.+.+.+.+.+.+.+.O.+.+.+.+.+.+.+.+.+.O.+.+.O.O.O.O.O.+.^ 1 -.6X;X_.$XD.4 < G K @.y.    ",
"      >XlX/.w $.4X@XU.E.G.1 / |.uXyX3X3X3X3X3X3X3X3X3X3X:X:X3X3X3X3X3X3X3X3X:X:X:X:X3X:X:X-X:XuX|.A $.2X%X'.@XQ 2 K S.1X_.<.    ",
"    j.cXmXuXG / >X@XI.U.Q # ;.dXxXdXdXdXdXdXdXdXdXdXdXdXdXdXdXdXdXdXdXdXdXdXdXdXdXdXdXdXdXgXdXxXiX( / -X#X(.$X! < ;.nXnXoXP o   ",
"  d Y #XhX[.t $.4X-X(.E.Q 1 R '.%X'.W.`.$X@X].].].].$X$X-X-X$X'.'.$X$X].'.'.].].'.'.'.'.$X$X$X%XR.A $.;X$X`.$XQ 1 R 6XhXZ.V o   ",
"  c P C.9XI.r $.2X@X$X#Xm.1 K Y.).U.H.L.Y.(.E.Y.U.Y.(._.].'.(.U.U.(.'.Y.U.U.Y.Y.U.L.H.L.E.'.E.U.n.r $.4X<X@X#XQ 1 J #X1XC.D     ",
"  d P V.&Xn.q &.2X'.].$Xm.1 D K.Y.I.H.H.I.I.I.I.I.I.I.U.U.R.I.I.I.I.I.I.H.K.I.I.I.H.H.H.I.I.I.P.c.w %.4X%X'.$X..2 D Y.+XM.B $   ",
"  j ^ V P b < :.2X'.'.'.F.e 4 V C C C C C V C C C C V V n V V C C V V C C C C C C C C C C V C P b 2 :.4X#X(.#XF.q ; n P F f     ",
"    9.        ;.<X-X].'.n.t       X X X X . X X . . . . . . . X X . . . X X . . . X X X . . . O s p ..<X;X].#Xn.r & . i 4.      ",
"              W ;X@X].'.k.w                                                                         Y ,X-X`.'.g.f               ",
"              E %X`.`.$Xj.w                                                                         U XX-XT.W.g.)               ",
"              W >X-X].$Xf.~                                                                       0.U =X-X(.'.f.f               ",
"              W <X6X$X'.j.w                                                                       4.Y =X-X].%Xg.5               ",
"              W <X;XT.T.j.t                                                                       5.W =X-X_.%Xf.6 MX            ",
"      w.    a ;.<X%XR.U.x.w $                                                                   O p ;.<X%X'.$Xx.5 3.t.a.w.      ",
"    i.P W B : :.6X%X`.Q.D.2 t &.,.*.*.*.*.*.*.*.*.*.*.*.*.*.*.*.*.*.*.*.*.*.*.*.*.*.&.&.&.&.*.,./ 2 -.4X'.(.$XF.q : Z P %.u.    ",
"  c B.xXvX-XG $.4X$X@X#XQ @ ,.jXzXkXkXkXkXkXkXkXkXkXkXkXkXkXkXkXkXkXkXkXkXkXkXkXkXkXjXjXjXfXkXzXyXG _ -X].`.%X! + %.bXnX1XK NX  ",
"  % k.<XxX'.A $.4X%X@X#XQ # %.6XgX7XiX7X2X2X7XiXiXiXiX7X7X7XiXiXiXiX7X7XiXiXiX7X6X6XiXiXiX6X7XdX5X^ / 2X<X@X%X! < $.fXzX.Xn w.  ",
"  c Y Z.9XI.A %.4X;X$X#X..1 D Y.#XE.E.'.`.(.(.(.(.(.(.E.E.E.(.E.E.)._.#X(.U.I.U.Y.E.).@X'.Y.U.+XY.A $.>X;X-X%X..1 J #X1XC.b t.  ",
"  $ Y Q.9XI.A %.;X].].#X..1 D U.#X`.E.'.$X'.(.E.E.E.E.E.E.E.E.E.E.`.].$X`.R.L.R.E.E.(.'.'.Y.U.#XY.A $.2X%X(.'...1 J '.1XC.b r.  ",
"  l Z l.C.! q -.2X'.'.#XG.2 S x.M.n.x.x.x.x.x.x.x.x.x.x.x.x.x.x.x.x.x.x.x.x.x.x.x.x.x.x.x.x.n.M.! q &.6X;XI.U.Q 2 S V.Z.l.b a.  ",
"  j #.5 b ; $ ,.6X].].#XF.e : = = = = = = = = = = = = = = = = = = = = = = = = = = = = = = = = = * + ,.iX%XI.U.D.w < b n S : t.  ",
"    { < * o o X.<X%X].).x.> c w.p.9.8.z z l l l l z l l 7.z l z 7.7.8.z 9.8.z l l l l 7.l z 9.z h 7 X.<X;X`.'.n.4 O * * 4 e     ",
"            3 W <X;X].`.j.r                                                                       5.U =X;X].$Xz.5               ",
"            2 T ;X'.`.'.f.t                                                                       q.Y ,X;X(.'.c.5               ",
"              T ;X'.`.'.j.A                                                                         k.oX-XT.W.c.5               ",
"              T <X4X[.'.j.r                                                                       e.P &X-X`.].c.-               ",
"              Y <X6X[.W.f.t                                                                       0.L @X;X].%Xg.v               ",
"            3.X.<X-XR.I.k.t                                                                       [  .=X>X].$Xk.- r.            ",
"    0.h < & $ ;.6X-XR.Y.n.w % 1   9 9 9 9 9 9 9 9 9 9 9 9 9 9 9 9 9 9 9 9 9 9 9 9 9 9 9 9 9 1 < % 8 ,.2X@X`.#Xn.y p c d 9.      ",
"  4.2./._.N.q %.6X-X'.).c.1 ( ~.}.^.{.{.{.{.^.{.{.^.^.{.{.^.^.^.^.^.^.^.^.^.{.{.^.^.~.~.^.~.^.}.J.y &.2X`.(.$Xm.2 H !.S.!.@.    ",
"  7 N.gXzX].A $.2X%X@X#XQ @ ,.jXkXjXjXfXpXpXfXjXfXjXfXfXfXfXfXjXjXfXpXpXfXkXkXjXfXfXfXfXfXfXjXxX3XG _ 2X-X].%X! < %.jXnX,XZ r.  ",
"  d T &XhX(.A $.4X;X@X#XQ # R -X<X;X;X;X$X$X-X;X;X>X>X;X;X;X>X>X;X;X>X>X;X$X$X$X%X%X>X6X>X%X%X7X'.A $.>X<X-X%XQ < R 6XhX Xn r.  ",
"  7 T +X9XY.A $.>X%X].#X..1 D W.%X'.'.$X$X$X'.'.'.'.'.'.'.'.'.'.'.$X-X-X].Y.U.Y.E.'.$X-X$X`.E.%X`.A $.2X;X].%X..1 J $X9XC.b r.  ",
"  d P Z.0XV.r &.2X'.'.#X..1 K Y.#XE.E.).'.).E.E.E.E.E.E.E.E.E.E.E.E.).).E.U.U.U.E.E.E.).).E.E.+XU.A $.2X%XE.Q.Q 1 K #X9XA.b t.  ",
"  { D I x.F 0 :.4X$X].#XG.0 , M M M M M M M M M M M M M M M M M M M M M M M M M M M M M M M N N M ; *.uX;XI.U.>.e w c.M.T ,     ",
"    9.; > + % ;.6X-X-X#XD.4 9 x 6.6.k x x x x 6.6.k x x 6.6.k k 6.6.k x x k k k k k 6.6.k x f x h $ ;.6X-XU.U.n.w # > b 5 0     ",
"            o W <X;X].'.z.>                                                                       j W ,X;X'.$Xn.>               ",
"              Y <X*XQ.W.j.>                                                                         U *X*X#X].z.-               ",
"              k.1X$XI.T.f.                                                                          z.0X-XE.Q.c.-               ",
"              l.aX2. .L.f.                                                                          v.XXtX!.OXc.-               ",
"              E eXwX| M.h.                                                                          K o.rXeX[.v.v               ",
"              8     1.m.d.5                                                                       [ 8         c.m               ",
"              '       | C u                                                                       }           | u               ",
"            ' qX      ` H ]                                                                                   ` ]               ",
"                                                                                                                                ",
"                                                                                                                                ",
"                                                                                                                                ",
"                                                                                                                                ",
"                                                                                                                                ",
"                                                                                                                                "
};
