/* XPM */
static char *_d84adf2a9d84062dd99d16c28c13ee446XWQLO4T1zfqQ8b[] = {
/* columns rows colors chars-per-pixel */
"64 64 250 2 ",
"   c None",
".  c #1A0301",
"X  c #1B1414",
"o  c #130E10",
"O  c #290902",
"+  c #34030A",
"@  c #370604",
"#  c #28180D",
"$  c #36160B",
"%  c #231913",
"&  c #2B1A15",
"*  c #221514",
"=  c #351D14",
"-  c #3A0912",
";  c #3C2B1C",
":  c #372218",
">  c #2F2613",
",  c #121B21",
"<  c #18252B",
"1  c #1B2D36",
"2  c #26363A",
"3  c #28363A",
"4  c #28383A",
"5  c #2C2D26",
"6  c #430B00",
"7  c #460700",
"8  c #421D0A",
"9  c #481906",
"0  c #531D07",
"q  c #51060A",
"w  c #681A10",
"e  c #48240C",
"r  c #532E0D",
"t  c #582309",
"y  c #56300D",
"u  c #472816",
"i  c #45311E",
"p  c #4B331C",
"a  c #5A341B",
"s  c #532F16",
"d  c #712F11",
"f  c #673A1C",
"g  c #733212",
"h  c #7A3D1D",
"j  c #793614",
"k  c #732807",
"l  c #483521",
"z  c #5C3E22",
"x  c #4D2D35",
"c  c #145417",
"v  c #325318",
"b  c #1C6E0C",
"n  c #25790E",
"m  c #257B1C",
"M  c #277915",
"N  c #166920",
"B  c #2A7E21",
"V  c #267B21",
"C  c #337C3C",
"Z  c #1B413E",
"A  c #4A4E19",
"S  c #74421F",
"D  c #58462E",
"F  c #654322",
"G  c #7D5328",
"H  c #576F21",
"J  c #786221",
"K  c #1F3C47",
"L  c #273A45",
"P  c #26485C",
"I  c #2D4C58",
"U  c #34596A",
"Y  c #345668",
"T  c #2C5D72",
"R  c #30576A",
"E  c #32667C",
"W  c #356877",
"Q  c #2C647D",
"!  c #26635C",
"~  c #556456",
"^  c #566456",
"/  c #832B04",
"(  c #86340A",
")  c #8A3914",
"_  c #A23C11",
"`  c #84411D",
"'  c #9D4A1D",
"]  c #994619",
"[  c #994C11",
"{  c #A4480D",
"}  c #B6570B",
"|  c #A74C16",
" . c #B65B16",
".. c #A75817",
"X. c #B6641B",
"o. c #884823",
"O. c #9B4D22",
"+. c #9B5423",
"@. c #865729",
"#. c #A55323",
"$. c #AA5624",
"%. c #AD5A25",
"&. c #A85827",
"*. c #B35D24",
"=. c #B55B28",
"-. c #A14F23",
";. c #AD6D2A",
":. c #A86528",
">. c #B56226",
",. c #BB6426",
"<. c #B56429",
"1. c #BB6529",
"2. c #BD6A29",
"3. c #B96B26",
"4. c #B8742F",
"5. c #C7671D",
"6. c #D47418",
"7. c #C36C2A",
"8. c #C56828",
"9. c #C5702B",
"0. c #CD752C",
"q. c #D5782B",
"w. c #CE7A30",
"e. c #C67533",
"r. c #D57D33",
"t. c #DB7C32",
"y. c #D77631",
"u. c #D56C29",
"i. c #E57E2F",
"p. c #E77F34",
"a. c #C55B19",
"s. c #2D8315",
"d. c #2C861B",
"f. c #328B16",
"g. c #39951B",
"h. c #2E8C11",
"j. c #1D8A24",
"k. c #2D8421",
"l. c #2F8925",
"z. c #328C22",
"x. c #358622",
"c. c #369223",
"v. c #399623",
"b. c #3D9C24",
"n. c #369628",
"m. c #319332",
"M. c #3FA024",
"N. c #3DA528",
"B. c #469B08",
"V. c #429F1C",
"C. c #49A51C",
"Z. c #50AC14",
"A. c #409E24",
"S. c #519328",
"D. c #41A224",
"F. c #4BAC26",
"G. c #43A429",
"H. c #47AB28",
"J. c #4CB22B",
"K. c #53B528",
"L. c #51AF31",
"P. c #639028",
"I. c #379948",
"U. c #339758",
"Y. c #2D914F",
"T. c #3AA46E",
"R. c #38A05B",
"E. c #43AB52",
"W. c #54BA58",
"Q. c #4FB349",
"!. c #44AD66",
"~. c #5CC86F",
"^. c #58C145",
"/. c #8CA334",
"(. c #DA8135",
"). c #DE8C39",
"_. c #D98537",
"`. c #D0802B",
"'. c #E38435",
"]. c #E28B39",
"[. c #EC8B39",
"{. c #E2913A",
"}. c #EC953C",
"|. c #F39038",
" X c #FFA33F",
".X c #FAA847",
"XX c #346C84",
"oX c #336C88",
"OX c #387488",
"+X c #387590",
"@X c #3273A4",
"#X c #417F9A",
"$X c #407D91",
"%X c #417D8C",
"&X c #3E8598",
"*X c #3AAA83",
"=X c #43879A",
"-X c #47949E",
";X c #5B9092",
":X c #46B595",
">X c #4798B2",
",X c #468EA4",
"<X c #55A8B8",
"1X c #64ABA8",
"2X c #56CA98",
"3X c #55CAB0",
"4X c #62D8B7",
"5X c #60D29C",
"6X c #5BB4D3",
"7X c #5DBCDA",
"8X c #5DB6DA",
"9X c #54AED1",
"0X c #5DB5EC",
"qX c #61BCF7",
"wX c #61BAEB",
"eX c #54A6CB",
"rX c #57C8C8",
"tX c #55CFD3",
"yX c #67D9C7",
"uX c #66C7D6",
"iX c #69D2D1",
"pX c #6DE3CE",
"aX c #5CDCF9",
"sX c #5FC3E7",
"dX c #6CDDEE",
"fX c #68D7E6",
"gX c #6CD6FE",
"hX c #6FD8FF",
"jX c #6AD9F6",
"kX c #70D9FF",
"lX c #70D7FF",
"zX c #64C5EE",
"xX c #5CE9F3",
"cX c #6BE2EB",
"vX c #73E5E8",
"bX c #6DE1F2",
"nX c #6CE3FE",
"mX c #6BE8F7",
"MX c #74EBF6",
"NX c #73E3FF",
"BX c #76EBFF",
"VX c #78EDFF",
"CX c #75E8F4",
"ZX c #76F1FB",
"AX c #7BF3FE",
"SX c #7EFAFF",
"DX c #7BF4F6",
"FX c #6AF4F8",
"GX c #84FEFF",
"HX c #80F6FF",
/* pixels */
"hXhXhXhXhXhXhXhXkXhXhXhXhXhXhXhXhXhXhXhXhXkXkXhXkXhXhXhXhXhXhXhXhXhXhXhXhXhXhXkXhXhXhXhXhXkXkXhXhXkXhXhXhXhXhXkXhXhXhXhXhXhXhXhX",
"hXhXhXhXhXhXhXhXhXhXhXhXhXhXhXkXhXhXhXhXhXhXhXhXhXhXhXkXkXhXhXhXhXhXhXhXhXhXhXkXhXhXhXhXkXkXhXhXhXhXkXhXhXhXhXkXhXhXhXhXhXhXhXhX",
"hXhXhXhXhXhXhXhXhXhXhXkXhXhXhXhXhXhXhXhXhXhXhXhXhXhXhXhXhXhXhXhXhXhXhXhXhXhXhXhXhXhXhXhXhXhXhXhXhXhXkXhXhXhXhXhXhXhXhXhXhXhXhXhX",
"hXhXhXhXhXhXhXkXkXkXhXhXhXhXhXhXhXkXkXhXhXhXhXhXhXhXhXhXhXhXhXhXhXhXhXhXhXhXhXhXhXhXhXhXhXhXkXkXhXhXhXhXhXhXhXhXhXhXhXhXhXhXhXhX",
"hXhXhXhXhXhXhXhXhXhXhXhXhXhXkXhXhXhXhXhXhXhXhXhXkXhXhXhXhXhXhXhXhXhXhXhXhXhXhXhXhXhXhXhXhXhXhXhXhXhXhXhXhXhXhXhXhXhXhXhXhXhXhXhX",
"hXhXhXhXhXhXhXhXhXhXhXhXhXhXhXhXhXhXhXhXhXhXhXkXkXhXhXhXhXhXhXhXhXhXhXhXhXhXhXhXhXhXhXhXhXhXhXhXhXhXhXhXhXhXhXhXhXhXhXhXhXhXkXhX",
"hXhXhXkXkXkXhXhXhXhXhXhXhXhXhXhXhXhXhXhXhXhXhXkXkXhXhXhXhXhXhXhXhXhXhXhXhXhXhXhXhXhXhXhXhXhXhXhXhXhXkXhXhXhXhXhXhXhXhXhXhXhXhXhX",
"kXhXhXkXkXkXhXhXhXhXhXhXhXhXhXhXhXhXhXhXhXhXhXhXhXhXhXhXhXhXhXhXhXhXhXhXhXhXhXhXhXhXhXhXhXhXhXhXhXhXkXhXhXhXhXkXhXhXhXhXhXhXhXhX",
"kXhXhXhXhXhXhXhXhXkXhXhXkXhXhXhXhXhXhXhXhXhXhXhXhXhXhXhXhXhXhXhXhXhXhXhXhXhXhXhXhXhXkXhXhXhXhXhXhXhXhXhXhXhXkXkXhXkXhXhXhXhXhXhX",
"hXhXhXhXhXhXhXhXhXkXhXhXhXhXhXhXhXhXhXhXhXhXhXkXhXhXhXhXhXkXkXhXhXhXhXhXhXhXkXkXhXhXkXhXhXkXhXhXkXkXhXhXhXhXkXkXhXkXhXhXhXhXhXhX",
"hXhXhXhXhXhXhXhXkXkXhXhXkXkXhXkXhXkXkXhXhXhXhXkXhXhXhXhXhXkXkXhXhXhXhXhXhXhXkXkXhXhXhXhXhXkXkXhXkXkXhXhXhXhXkXhXhXhXhXhXhXhXhXhX",
"kXhXhXhXhXkXkXhXkXgXgXhXhXkXkXkXhXkXkXhXhXhXhXhXhXhXhXhXhXhXhXhXhXhXhXhXhXhXhXhXhXhXhXkXhXhXkXkXhXhXhXgXgXgXgXhXhXhXhXhXhXhXkXhX",
"hXhXhXhXhXhXhXhXkXkXkXkXkXkXhXhXhXkXkXhXhXhXhXkXhXhXhXhXhXhXhXhXhXhXkXkXhXhXhXhXhXhXkXhXhXkXkXhXhXkXkXkXkXkXkXhXhXhXhXhXhXhXhXhX",
"hXhXhXhXhXhXhXgXkXBXBXBXBXBXkXgXgXhXhXhXhXhXhXkXhXhXhXhXhXhXhXhXhXhXhXhXhXhXhXhXhXhXhXhXhXhXgXgXgXhXBXBXBXBXBXkXgXhXhXhXhXhXhXhX",
"hXhXhXhXhXgXhXNXgX7X7X7X6XsXkXNXhXgXhXhXhXhXhXhXhXhXhXhXhXhXhXhXhXkXkXhXhXhXhXhXhXhXhXhXhXhXhXhXkXkXsX6X7X7X7XhXNXhXgXhXhXhXhXhX",
"hXhXhXhXhXgXNXDX<X* % 5 . L rXMXkXgXhXhXkXhXhXkXhXhXkXkXhXhXhXhXhXhXhXhXhXhXhXkXhXhXhXhXhXhXgXkXMXiXI . 5 % & 6XDXkXgXhXhXhXhXhX",
"hXgXhXhXgXBXmX=XD  .....{ k 5 >XNXNXhXgXhXhXhXhXhXhXhXhXhXhXhXhXhXhXhXhXhXhXkXkXhXhXhXhXhXhXkXnX<XD .. .[ { [ x =XCXBXgXkXhXkXhX",
"kXgXhXgXgXAXcXP q }.[.'.[._ O E bXBXkXhXhXhXhXkXhXhXhXhXhXhXhXhXhXkXkXhXhXhXkXhXhXhXhXhXhXhXBXMXOX@ 6..Xt.'.u.@ P vXAXgXhXkXhXhX",
"hXhXgXkXNXSXMXE 0 9.,.#.=.( O $XMXAXNXNXNXNXNXNXNXNXNXNXNXNXNXNXNXNXNXNXNXNXNXNXNXNXNXNXNXNXBXZX-Xe } y.#.#.] + E MXSXNXkXgXhXhX",
"hXgXkXhXgXnXfXT 0 0.8.>.2.( O +XjXnXgXgXgXgXgXgXgXgXgXgXgXgXgXgXgXgXgXgXgXgXgXgXgXgXgXgXgXgXhXbX=X8 } (.%.,.' + T cXNXgXhXkXhXhX",
"gXgXGXiXI X < , f r.2.>.,.] = < 2 4 2 2 3 3 3 3 2 2 3 3 3 2 2 2 2 2 3 3 3 3 3 2 2 3 3 2 2 3 3 2 < p 9.t.>.1.O.u , < X L rXGXgXgX",
"kXBX>X^ :.q.;.i p r.8.%.=.) % F 4.4.;.;.;.;.;.;.;.;.;.;.;.;.;.;.;.;.;.;.;.;.;.;.;.;.;.;.;.;.;.;.F ; ;.i.>.,.O.& p :.3.+.^ >XNXNX",
"NXAXQ 9 5..X{.z i w.7.#.$.h * @.}.}.].].].].].].].].].)._.).).].].].).].].].].].].].{.]._._.[.}.@.; :.y.#.2.O.* F }..Xu.0 R BXBX",
"NXAXOX8 | '.w.a i w.9.%.*.h % f 7.7.>.*.1.2.2.2.2.2.2.7.7.7.7.,.,.2.7.2.,.2.2.2.,.,.1.1.8.8.8.2.S ; ;.y.%.,.O.* a 0.'. .e E BXBX",
"NXAXOX8 { i.0.a i w.7.2.8.h % f 8.9.*.#.*.2.2.,.,.>.2.9.0.0.7.,.*.8.9.1.*.>.>.,.>.$.#.%.7.7.1.$.f ; ;.'.1.,.O.& s 9.i. .9 E BXBX",
"NXAXXX$ ) 8.$.u p w.<.<.8.` % a $.*.#.#.#.#.#.#.#.#.#.$.$.$.$.#.#.$.$.#.#.#.#.#.#.#.-.#.$.$.#.#.f ; ;.y.$.1.O.& u *.8.] 6 U BXBX",
"kXNXuX~ 9 7 @ O D r.2.1.8.o.: O 6 6 6 6 6 6 6 6 6 6 6 6 6 6 6 6 6 6 6 6 6 6 6 6 6 6 6 6 6 6 6 6 O l 4.y.%.2.#.; O 6 7 9 ~ uXkXNX",
"gXgXSXuXW I Y 1 f r.9.2.8.` $ 2 U U U U U U U U U U U U U U U U U U U U U U U U U U U Y Y Y U U K u 2.t.>.2.-.= 1 I I U uXSXgXgX",
"hXhXkXNXdXvXfXoXt 0.1.<.7.( O OXbXMXbXdXbXbXbXbXbXbXbXbXbXbXbXbXbXbXbXbXbXbXbXbXbXbXbXdXdXdXCXbX=Xe } (.>.=.' + E fXvXdXNXNXgXgX",
"hXhXgXkXBXGXZX+X0 0.<.<.7.( O =XDXSXVXVXVXVXVXVXVXVXVXVXVXVXVXVXVXVXVXVXVXVXVXVXVXVXVXVXBXBXSXDX-X8 } (.%.$.' + OXDXGXBXkXgXhXhX",
"hXhXgXkXkXSXMXoX0 q.w.7.7.( O $XMXAXNXNXNXNXNXNXNXNXNXNXNXNXNXNXNXNXNXNXNXNXNXNXNXNXNXNXNXkXVXZX-X8 } (.>.1.' + XXDXSXkXhXgXhXhX",
"hXhXkXkXhXAXmXoX0 q.w.<.=.( O $XMXAXNXNXNXNXNXNXNXNXNXNXNXNXNXNXNXNXNXNXNXNXNXNXNXNXNXNXNXNXZXZX-X8 } (.>.2.' + XXZXSXNXkXhXhXhX",
"hXgXSXfX+XoXOXK f q.7.#.$.) $ P &X=X#X#X#X#X#X#X#X#X#X#X#X#X#X#X#X#X#X#X#X#X#X#X#X#X#X#X#X#X=X&XP u ,.t.>.2.' $ K &X+X,XdXAXgXgX",
"kXkXfX;Xs 0 9 # F r.9.>.=.o.= = r y r r r y y r r r r r r r r r r r r r r r r r r r r r r r r r # i 4.q.#.2.#.: # e 9 p ;XcXkXkX",
"NXAXXXy q. X(.a i w.7.2.8.h X G }.}.{.{.{.].{.{.{.{.{.{.{.{.{.{.{.{.).).{.{.{.{.).).).).).).}.{.@.; :.y.&.2.O.* z {. X0.a oXBXNX",
"NXAXQ 9 5.|.y.a i w.9.2.8.h X G '.'.r.(.r.e.r.(.(.(.(.r.r.r.(.(.(.(.r.r.r.(.(.r.r.r.(.(.r.r.(.'.@.: ;.'.1.2.O.X a '. X5.0 T ZXBX",
"NXAX+Xe { u.,.s l w.9.2.8.h % a *.8.*.*.,.>.*.*.*.>.>.*.*.*.*.>.*.>.2.2.>.#.-.#.$.*.,.2.,.#.*.8.S ; ;.'.<.7.O.% u 2.u.| e XXBXBX",
"NXAXoX9 { u.*.s l w.1.<.8.h % a *.,.$.%.>.,.*.$.%.%.%.%.%.%.$.$.$.%.*.>.%.#.O.#.%.$.*.*.%.#.*.,.S ; ;.t.$.%.O.& u *.u.| 9 W BXBX",
"kXVX,Xl k ) g = z w.1.1.8.` & u j g g g d d d g g g g g g g g g g g g d d j j g g g g d g j j g e i 4.i.#.O.O.: : ) ] k e %XBXBX",
"hXkXSX<X5 . X X F r.0.9.8.o.= X % % % % % % % % % % % % % % % % % % % % % % % % % % % % % % % X o i e.t.&.#.O.u X # O & ;XBXkXkX",
"hXNXVXjX8XuXrXR t r.9.<.1.( O W sXgXwX6X6X6X6X8XqXwX6X6XwXqX8X6XwXqX8X6X6X6X6X6X6X8XqXqX8X6X7X7XOXu  .t.>.2.' @ P <X6X0XhXVXhXkX",
"fX:XrXnXSXGXMXoXt q.u.%.=./ O ,XvXpXvXAXZXBXAXAXpXvXAXHXpXyXMXAXpXyXvXAXVXAXVXVXAXDXpXpXDXAXSXDX-X= } p.=.>.' + E DXGXpXyXgXnXfX",
"rXd.:XaXfXmXxXoXw q.4.+.&./ $ >X2XG.2XcXfXjXnX4XZ.2XnXdXW.Q.fXMX~.F.5XnXjXfXjXhXnXyXL.L.tXnXbXmX,Xu a._.+.$.] + oXFXyXF.~.aXaXtX",
"aXn.:X3Xm.2XFXoXk `.P.A O./ $ eX2XI.3X2XW.fX3Xg.B.4XaX!.B.W.xXFX5XB.n.tXyXQ.4XFXtXI.Z.B.U.tX4X5X>Xx } /.H 8.' + @XxXE.B.5X3XT.tX",
"!.n.I.I.d.Q.~.C > H L.H O.( - ! Y.m.U.Q.L.T.Y.h.C.W.T.z.B.L.T.T.E.C.g.R.W.K.E.*XU.s.C.C.m U.W.^.Y.5 v J.S.J | q Z Y.c.C.Q.m.l.!.",
"h.d.g.f.m V.Z.M c j.K.S.f w & c f.m n g.D.n s.b.G.g.h.d.G.F.h.b g.J.c.s.C.F.s.b n g.J.H.m n V.K.s.c N J.L.v h : c h.d.G.C.f.s.g.",
"s.z.D.g.m b.K.m N H.K.j.v s c c.C.m b g.b.s.g.G.x.g.g.z.c.H.V.M f.G.z.M g.D.d.n g.G.H.b.k.d.D.F.m c V J.N.c A c d.D.k.b.F.v.z.C.",
"x.b.H.v.k.b.J.z.z.F.F.n.v.x.B n.G.l.V c.b.z.b.G.z.v.D.z.c.H.G.z.c.G.A.x.c.D.z.z.H.H.v.k.k.b.J.b.V k.G.H.v.k.v.k.n.G.z.b.H.D.b.D.",
"b.D.G.b.c.b.G.A.b.D.D.D.H.N.v.b.D.b.v.b.M.b.b.D.v.b.D.b.b.D.D.b.b.D.G.b.b.D.b.b.G.D.v.c.v.D.G.v.c.D.F.D.b.b.D.b.b.b.b.b.D.D.D.D.",
"D.D.b.D.D.D.b.D.D.D.D.D.D.D.D.D.D.D.D.D.D.D.D.b.D.D.D.D.D.M.D.D.D.D.D.D.D.D.D.D.b.D.D.D.D.M.b.D.G.D.D.M.D.D.M.D.D.M.D.D.D.D.D.b.",
"D.M.b.D.D.D.b.D.D.D.D.M.D.M.D.D.M.D.D.D.b.c.b.D.D.b.b.D.D.b.M.D.D.b.v.b.D.D.D.D.D.M.D.D.D.M.b.D.D.D.M.D.D.D.D.D.M.M.D.D.M.b.b.M.",
"D.M.M.c.z.b.D.D.D.b.b.D.v.z.b.D.D.b.D.D.v.k.v.H.D.z.z.b.D.A.b.D.D.v.k.c.D.D.b.M.D.b.b.M.b.D.D.v.c.b.D.D.b.M.D.M.b.M.M.D.b.z.c.D.",
"M.D.D.z.k.b.D.v.c.b.M.D.z.k.v.D.D.D.M.v.z.c.M.M.v.z.c.b.D.D.b.c.b.v.k.c.b.c.b.v.c.b.D.D.D.D.D.c.k.v.b.v.D.M.v.v.D.D.M.b.z.B v.D.",
"v.D.D.z.z.b.D.    b.D.b.z.z.b.b.v.D.b.z.l.D.D.z.B c.D.M.v.M.v.    v.z.v.c.k.v.c.k.b.D.v.v.b.v.    v.c.z.D.v.  c.b.b.M.c.B k.v.v.",
"k.b.D.z.z.v.c.    b.D.    b.M.z.z.b.M.z.z.b.c.k.B v.D.b.  c.v.      b.c.B k.b.c.k.b.D.z.z.v.      v.c.z.b.    v.v.  v.    b.c.k.",
"k.z.b.z.z.b.      b.c.  c.M.v.    M.M.z.z.b.z.k.v.M.b.    c.b.      b.c.V l.b.v.k.z.b.z.k.v.                  b.c.        M.z.B ",
"          c.      b.    b.v.      b.v.    v.  z.D.M.      z.c.      c.      v.v.          v.                  c.          c.    ",
"b.                v.    v.b.      v.          z.b.c.                                      c.                                    ",
"                                                                                                                                ",
"                                                                                                                                ",
"                                                                                                                                ",
"                                                                                                                                ",
"                                                                                                                                ",
"                                                                                                                                "
};
