/* XPM */
static char *_541fd33f78e4346cd3f2f4bc6d6d9a9FxjdGAlA5IWL744q[] = {
/* columns rows colors chars-per-pixel */
"64 64 151 2 ",
"   c #00772F",
".  c #017C2F",
"X  c #007730",
"o  c #007A30",
"O  c #04832D",
"+  c #09862D",
"@  c #058B2C",
"#  c #0A8C2C",
"$  c #0B8C2C",
"%  c #0B8D2C",
"&  c #0A8E2C",
"*  c #0B8E2C",
"=  c #0B8F2C",
"-  c #098C2C",
";  c #0A8B2C",
":  c #07902A",
">  c #08912A",
",  c #09912B",
"<  c #0B902A",
"1  c #0A912A",
"2  c #0B912A",
"3  c #0B902B",
"4  c #0B912B",
"5  c #08922B",
"6  c #0A922A",
"7  c #0B922A",
"8  c #0C912A",
"9  c #0C912B",
"0  c #0D912B",
"q  c #0C922A",
"w  c #0D922A",
"e  c #0C932A",
"r  c #0D922B",
"t  c #0C932B",
"y  c #0C9729",
"u  c #0D942A",
"i  c #0D952A",
"p  c #0E952A",
"a  c #0F952B",
"s  c #0C962A",
"d  c #0E972A",
"f  c #0E962B",
"g  c #0C932A",
"h  c #0D982A",
"j  c #0F992A",
"k  c #11972B",
"l  c #10972A",
"z  c #11982A",
"x  c #10992A",
"c  c #11992A",
"v  c #10982B",
"b  c #11982B",
"n  c #12992A",
"m  c #12992B",
"M  c #119A2A",
"N  c #129B2A",
"B  c #129A2B",
"V  c #139A2B",
"C  c #139B2B",
"Z  c #129C2A",
"A  c #139C2A",
"S  c #129D2A",
"D  c #139D2A",
"F  c #139E2A",
"G  c #149E2A",
"H  c #159F2A",
"J  c #169E2A",
"K  c #169F2B",
"L  c #129A2C",
"P  c #129B2A",
"I  c #0E8339",
"U  c #0D823A",
"Y  c #0D833A",
"T  c #0E833A",
"R  c #0E8439",
"E  c #0E843A",
"W  c #0F843A",
"Q  c #0E833A",
"!  c #168C39",
"~  c #189038",
"^  c #199038",
"/  c #16A02A",
"(  c #16A12A",
")  c #17A12A",
"_  c #16A22A",
"`  c #17A22A",
"'  c #16A129",
"]  c #19A229",
"[  c #1AA12B",
"{  c #18A22A",
"}  c #19A22A",
"|  c #18A32A",
" . c #19A32B",
".. c #1AA22A",
"X. c #1AA32A",
"o. c #1BA629",
"O. c #1AA42A",
"+. c #1AA52A",
"@. c #1BA52A",
"#. c #1BA52B",
"$. c #1CA729",
"%. c #1CA62A",
"&. c #1DA62A",
"*. c #1CA72A",
"=. c #1DA72A",
"-. c #1AA529",
";. c #1CA829",
":. c #1DA829",
">. c #1EA929",
",. c #1FAA29",
"<. c #1EAB29",
"1. c #1CA82A",
"2. c #1DA82A",
"3. c #1EA82A",
"4. c #1EA92A",
"5. c #1FA92A",
"6. c #1EA82B",
"7. c #1EAA2A",
"8. c #1FAA2A",
"9. c #1EAB2A",
"0. c #1FAC29",
"q. c #1FAC2A",
"w. c #1FAD2A",
"e. c #1EAA2A",
"r. c #20AA2A",
"t. c #20AB2A",
"y. c #20AC29",
"u. c #20AD29",
"i. c #20AE29",
"p. c #21AE29",
"a. c #22AE29",
"s. c #23AF29",
"d. c #20AC2A",
"f. c #21AC2A",
"g. c #20AD2A",
"h. c #21AD2A",
"j. c #21AE2A",
"k. c #22AE2A",
"l. c #22AF2A",
"z. c #21AD29",
"x. c #23B02A",
"c. c #25B029",
"v. c #24B129",
"b. c #24B328",
"n. c #24B229",
"m. c #25B329",
"M. c #25B429",
"N. c #24B329",
"B. c #1A8944",
"V. c #1B8A44",
"C. c #1B8A44",
/* pixels */
"B.Y E E E E Y Y E Y E E E E E E E E E E E E Y Y E E Y Y E E Y E Y Y E E E E Y Y Y Y Y E E E E E Y Y E E E E E Y E E Y Y E E E B.",
". . . . . . . . . . . . . . . . . . . . . . . . . . . . . . . . . . . . . . . . . . . . . . . . . . . . . . . . . . . . . . . . ",
"~ ; . . . . ; ; . . . . . . . . . . . . . . . . . . + + . . . . ; ; . . . . + + . . . . . . . . & & . . . . . . . . ; ; . . . E ",
"~ ; . . . . ; ; . . . . . . . . . . . . . . . . . . ; ; . . . . ; ; . . . . + + . . . . . . . O u u O O . . . . . . ; ; . . . E ",
"E . . . . . . . . . . . . . @ @ . . o . q 1 . . . . + + . . . . . . . . . . . . . . . . . . - 1 9.d.n.d.. . . . . . ; ; . . . E ",
"Y . . . . . . . . . . . . . @ @ . . . O q q . . . . + + . . . . . . . . . . . . . . . . . . 1 j d.n.x.9.. . . . . . ; ; . . . E ",
"E . . . . . . . . . . . . . . . O O u u . . . . . . . . . . ; ; . . . . . .   . 9.t.. . . O d.n.n.t.O . . . 1 1 . . . . . . . E ",
"E . . . . . . . . . . . . . . . O O u u . . . . . . . . . . ; ; . . . . . . . O d.d.O . . . 9.d.d.%.O . . . 1 1 . . . . . . . E ",
"Y . + + . . . . u u . . . . . . . . . . . . ; ; . . . . . . . . . . . . . . c c O . . . . . . . - @ . . . . . . . . . . ; ; . Y ",
"Y . ; ; . . . . u u . . . . . . . . . . . . ; ; . . . . . . . . . . . . . . c L . . . . . . . o O O . . . . o . . . . . ; ; . Y ",
"E . . . . . . . . . c c . . } 9.d.9.. . . . . . . . . . 1 1 . . . . ; ; . . . . O O . . . . . . . . . . . . . . . . . . . . . E ",
"E . . . . . . . . . D D . . 9.w.9.#.. . . . . . . . . . & & . . . . ; ; . . . . O O . . . . . . . . . . . . . . . . . . . . . E ",
"E . . . . . . . . . D D . . 9.9.O . . . . . . . . . ; ; . . . o . . . . . . . . . . . . c c . . . . . . . . . . ) ) . . . . . Y ",
"E . . . . . . . . . c c . . } } .   . . . . . . . . ; ; . . . . . . . . . . . . . . . . J J . . . . . . . . . . } } . . . . . E ",
"Y . . . 1 1 . . . . . . . . . . . . . . . . . . . . . .   . %.d.d.d.d.%.. . . . . . . . J D . . . . 9.%.. . . . . . . . . . . E ",
"Y . . . 1 1 . . . O . . . . . . . . . . . . . . . . . . . O d.M.d.d.n.d.O . . . . . . . c c . . . . 9.%.. . . . . . . . . . . Y ",
"E . . . . . . . %.9.; O . . . . . . . . . . & & . . . . 9.d.d.9.& & 9.d.d.%.. . & & . . . . . . . . . . . . . . c D . . + + . Y ",
"E . . . . . . O w.d.$ + . . . . . . . . . . & & . . . . 9.d.d.9.& & %.9.d.%.. . & & . . . . . . . . o . . . . . D D . . + + . Y ",
"E . . . . . } 9.9.%.; O . . ; ; . . . . q 1 . . . . . . . O d.x.* & w.9.O . . . . . . . . . J J . . . . . . . . . . . . . . . Y ",
"E . . . . O 9.w.%.} + O . . ; ; . . . . q q . . . . . .   . 9.w.& & %.#..   . . . . . . . . ) ) . . . . . . . . o . . . . . . Y ",
"E . . . & q #.#.q & . . . . . . . . . . . . . . J J . . . . O @ O O O . . . . . . . . . . . . . . . . . . . . . . . } } . . . Y ",
"E . . . & q } } & @ . . . . . . . . . . . . . . ) ) . . . . . O O O o . . . . . . . . . . . o . . . . . . . . . . . #.#.. . . Y ",
"Y . . . . . & & . . . . . . . . . . . . . . . . . . . . . . . . . . . . & & . . . . ; ; . . . . . . c c . . @ @ . . . . . . . E ",
"Y . . . . . @ @ . . . . . . . . . . . . . . . . . . . . . . . . . . . . 1 1 . . . . ; ; . . . . . . k c O O - & . . . . . . . E ",
"Y . ; ; . . . . . . . . . . ) ) . . @ O . . . . . . . . + + . . . . . . . . . . . . . . . . . . . . . O #.9.%.9.9.} . . q q . Y ",
"Y . ; ; . . . . . . . . . . ) ) O . & & O O . . . . . . ; ; . . . . . . . . . . . . . . . . . . . . o . #.9.%.%.w.%.. . u u . Y ",
"Y . . . . . . . . . . . . . . O c J J ) #.} . . 1 1 . . . . . . . . - & . . O O . . . . . . ; ; . . . . + + + + u 1 . . . . . Y ",
"Y . . . . . . . . . . . . . . . J ) J J w.9.O . 1 1 . . . . . . . . - - . . O O . . . . . . * * O . . . O O O + & & . . . . . E ",
"Y . . . - - . . . . & & . . . . c J O O d.M.n.d.O . . . . . . . . . . . . . . . q q . . . . D ) #.) . . . . + + . . . . . . . E ",
"Y . . . - - . . . . & & . . . . c c . O 9.d.n.d.. X . . . . . . . . . . . . . . u u . . . . ) -.#.) . o . . + + . . . . . . . E ",
"E . . . . . o . . . . . . . . . ; ; . . . . . . . . $ $ . . . . c c . . . . . . . . . . . . #.#.@ O . . . . . . . . . . . . . Y ",
"Y . . . . . . . . . . . . . . . O O . . o o . . . . * * . . . . D D . . . . . . . . . . . . ) ) O O O . . . . . . . . . . . . E ",
"Y . . . . . j j . . . . . . . . . . . . . . O O . . . . . . . . . . . . . . #.#.. . . o . . . . . . O O u q . . . . c c . . + ! ",
"Y . . . . . j j . . . . . . . . . . . . . . + + . . . . . . . . o . . . . . #.#.. . . . . . . . . . O O u u . . . . c D O . + ! ",
"Y . + + . . . . o . . . . . q $ . . . . . . . . o o . . . . ; ; . . . . . . . . . . #.9.. . . . . . . . . . . . . . . O #.#.. Y ",
"Y . + + . . . . . . . . . . q q . . . . . . . . . . . . . . & & . . . . . . . . . . 9.9.. . . . . . . . o . . . . . X . #.#.. Y ",
"Y . . . . . J ) } ) . . . . . . . . . . . . . . j c . . . . . . . . . . . . . . . . . . . . . . . o . . . . . . $ $ . . . . . Y ",
"E . . . . . J ) } ) . . . . . . . . . . . . . . c c . . . . . . . . . . . . . . . . o o . . . . . . . . . . . . $ $ . . . o . E ",
"E . . . o . . . . . . . j c c j . . . . 1 & . . . . . . + + . . . . ; ; . . . . . . . . . . . . D D O . O . . . . O O + + O . Y ",
"Y . . . . . o . . . . . j D D j . . . . 1 & . . . . . . + + . . . . ; ; . . O O O O . . . . . O D D O . . . O O O O + + + O . Y ",
"Y . - : : - . . O O . . @ @ . . . . o . . . . . O O . . . . . . . o . . X . 9.x.M.d.. . . . u u O . ; ; . . } #.J c . o . . . E ",
"Y . - : : - . . O O . . @ O o . . . . . . . . . O O . . . . . . . . . . . O x.M.n.d.O . . . u u . . ; ; . . #.#.J u . . . . . E ",
"E . . . . . . . . . . . . . . . . . D D . . @ @ . . . . . . . . } } . . %.d.x.t.O O q q . . . . . . . . . . . . . . . . @ @ . Y ",
"Y . . . . . . . . . . . . . . . . . ) ) . . @ @ . . . . . . . . } } . . 9.d.9.%.. . q q . . . . . . . . . . . . . . . . @ @ . Y ",
"Y . . . . . c D . . . . . . . . . . ) ) . . . . . . c D D c . . . . . . . O @ : @ @ . . . . . . . . . . . . . . 1 1 . . . . . Y ",
"Y . . . . . j c . . . . . . . . . . c c . . . . . . c D D c . . . o . . . o @ @ @ @ . . . . . . . . . . . . . . 1 1 O . . . . E ",
"Y . . . @ @ . . . . . . #.#.. . k c O . . o . . . . . . . . . . . . . . . . . . . . . . . . . . u u . . . . . . . O j u . . . Y ",
"E . . . @ @ . . . . . . 9.9.. . c c . . . . . . . . . . . . . . . . . . . . . . . . . . . . . . u u . . . . . . . . u u . . . Y ",
"Y . . . . . . . . . . . . . . . . . . . c c . . . . . . #.#.@ O . . D D . . . . O O . . . . c j . . . . . . u u . . . . . . . Y ",
"Y . . . . . . . . . . . . o . . . . . . c c . . . . . O #.#.O O . . c c . . . . O O . . . . u u . . . . . . q q . . . . . . . Y ",
"E . . . q 1 . . . . o . . . . . . . . . . . . . . . 1 1 O . . . . . . . . . . . . . . . . . . . . . . . u u . . . . . . O O . Y ",
"Y . . . q 1 . . . . . . . . . . . . . . . . . . . . & & . . . . . . . . . . . . . . . . . . . . . . . . q q . . . . . . O O . Y ",
"Y . . . . . . . . . ) ) . . & $ . . . . . . . . . . . . . . . . . . . . + + . . . . c c . . . . . . . . . . . . 1 e . . . . . Y ",
"E . . . o . . . . . J J . . $ $ . . . . O O . . . . . . . . . . . . . . + + . . . . D D . . . . . . . . . . . . 1 e . . . . . Y ",
"Y . u u . . . . . . . . . . . . c D c c 9.9.. X . . . . . . . . . . . . . . . . . . . . . . . . . . @ @ . . . . . . . . . . . Y ",
"Y . c c . . . O . . . . . . . . c D c c 9.9.O . . . . . . . . . . . . . . . . . . . o . . . . . . O 1 1 O . . . . . . . . . . E ",
"E . . . . . q u $ ; . . . . . . . . @ ; @ & d.9.. . . . J ) . . . . . . . . D J . . . . . . . . - 1 9.t.d.9.. . . . . . 1 1 . Y ",
"Y . . o . . 1 q & ; . . . . . . . . O @ O @ d.9.. . . . ) ) . . . . . . . . ) ) . . . . . . . . - 1 9.d.d.%.. . . . . . 1 u . Y ",
"Y . . . ; ; . . . . . . & & . . . . . . . . . . . . . . . . . . . . - - . . . . . . . . + + . . . O J J . . . . ; ; . . . . . E ",
"Y . . . ; + . . . . . . & ; . . . . . . . . o . . . . . . o . . . . @ @ . . . . . . . . + + . . . . c c . . . . $ & . . . . . E ",
"Y . . . . . . . . . . . . . . . . . . . O O . . . . @ @ . . & & . . . . & 1 . . . . . . . . . . . . . . . . + + . . . . . . . Y ",
"E . . . . . . . . . . . . . . . . . . . O O . . . . O O . . & & . . . . & & . . . . . . . . . . . . . . . . + + . . . . . . . E ",
". . . . . . . . . . . . . . . . . . . . . . . . . . . . . . . . . . . . . . . . . . . . . . . . . . . . . . . . . . . . . . . . ",
"B.Y Y Y Y E Y Y Y Y E Y Y Y Y Y Y Y Y Y Y Y Y Y Y E Y Y E Y Y Y Y Y Y Y Y Y Y Y Y Y Y Y Y Y Y Y Y Y E Y Y E Y Y E E Y E E Y Y B."
};
