/* XPM */
static char *_c7f07ac32af42b6e29f7291999c233eWfV7q3LyYnjTHFYi[] = {
/* columns rows colors chars-per-pixel */
"64 64 204 2 ",
"   c #171719",
".  c #271F1C",
"X  c #361F13",
"o  c #10341A",
"O  c #16321C",
"+  c #18391D",
"@  c #2B2318",
"#  c #2A2D1D",
"$  c #3A261C",
"%  c #39291B",
"&  c #33321F",
"*  c #241F20",
"=  c #1D262F",
"-  c #122F37",
";  c #1A293A",
":  c #1D2C3D",
">  c #2A2825",
",  c #25252C",
"<  c #382B24",
"1  c #283923",
"2  c #353229",
"3  c #232935",
"4  c #242E3D",
"5  c #24373B",
"6  c #39393A",
"7  c #442414",
"8  c #432B1C",
"9  c #4D2C1C",
"0  c #532D1D",
"q  c #54311F",
"w  c #5D321D",
"e  c #68371D",
"r  c #4C3323",
"t  c #463529",
"y  c #543422",
"u  c #5C3521",
"i  c #543A26",
"p  c #413D3D",
"a  c #513E32",
"s  c #633520",
"d  c #683E24",
"f  c #743E24",
"g  c #0D411C",
"h  c #04531F",
"j  c #045521",
"k  c #065B24",
"l  c #0C5E28",
"z  c #15562A",
"x  c #18522A",
"c  c #14592A",
"v  c #2D5034",
"b  c #066828",
"n  c #10662C",
"m  c #116A2D",
"M  c #02752D",
"N  c #017C2F",
"B  c #13772C",
"V  c #176832",
"C  c #007730",
"Z  c #017B30",
"A  c #0C7E34",
"S  c #167C38",
"D  c #197E3E",
"F  c #286439",
"G  c #246B38",
"H  c #2B7937",
"J  c #327338",
"K  c #7C421E",
"L  c #4B4A34",
"P  c #534734",
"I  c #504D33",
"U  c #5E4B3D",
"Y  c #6A4229",
"T  c #7B4224",
"R  c #744629",
"E  c #674935",
"W  c #614D3D",
"Q  c #7B4B35",
"!  c #69513D",
"~  c #43613E",
"^  c #172941",
"/  c #1E2D42",
"(  c #083349",
")  c #073B57",
"_  c #1C3657",
"`  c #222E42",
"'  c #263545",
"]  c #393E41",
"[  c #213754",
"{  c #223D5E",
"}  c #223F62",
"|  c #1B484E",
" . c #17435F",
".. c #3C4349",
"X. c #325649",
"o. c #2C4654",
"O. c #1F7942",
"+. c #2D6941",
"@. c #267D44",
"#. c #347247",
"$. c #3D7E54",
"%. c #1F436E",
"&. c #1D4771",
"*. c #234666",
"=. c #20416A",
"-. c #2B5068",
";. c #355A63",
":. c #204470",
">. c #2A5672",
",. c #285977",
"<. c #454341",
"1. c #5C4C42",
"2. c #665843",
"3. c #755B4A",
"4. c #426A4E",
"5. c #4C7249",
"6. c #487252",
"7. c #447E55",
"8. c #6E6F4F",
"9. c #7E624D",
"0. c #874927",
"q. c #8B532F",
"w. c #94532C",
"e. c #9C572B",
"r. c #86563B",
"t. c #9C5631",
"y. c #975932",
"u. c #A45A2D",
"i. c #A45D33",
"p. c #A85B32",
"a. c #AC6335",
"s. c #AA6437",
"d. c #B66837",
"f. c #B46939",
"g. c #885D44",
"h. c #82624C",
"j. c #836A56",
"k. c #8A6C55",
"l. c #8E7057",
"z. c #9B7054",
"x. c #97755C",
"c. c #9A755C",
"v. c #A5795C",
"b. c #9C7C62",
"n. c #A47D62",
"m. c #C37B53",
"M. c #04832D",
"N. c #09862D",
"B. c #058B2C",
"V. c #0A8B2C",
"C. c #079129",
"Z. c #0C932A",
"A. c #0F992A",
"S. c #13972C",
"D. c #129B2A",
"F. c #148837",
"G. c #2B8F2D",
"H. c #16A12A",
"J. c #1AA52A",
"K. c #1EA92A",
"L. c #21AD29",
"P. c #24B229",
"I. c #2DA134",
"U. c #1C8241",
"Y. c #2A8448",
"T. c #378650",
"R. c #468254",
"E. c #A98367",
"W. c #B78D6F",
"Q. c #D7835E",
"!. c #D98863",
"~. c #C69777",
"^. c #CA9C7C",
"/. c #EBA57C",
"(. c #215E84",
"). c #1D6897",
"_. c #26638B",
"`. c #226692",
"'. c #1D74A9",
"]. c #2476AA",
"[. c #297DB2",
"{. c #1C82BD",
"}. c #2881BB",
"|. c #1B86C4",
" X c #2686C2",
".X c #2B8AC5",
"XX c #2C8DCB",
"oX c #2C90CF",
"OX c #2C93D3",
"+X c #D3A382",
"@X c #DBA985",
"#X c #E7AC86",
"$X c #F1AD82",
"%X c #E5B38C",
"&X c #EDB48D",
"*X c #F4B48A",
"=X c #EDB891",
"-X c #F4BC94",
";X c #FBBD95",
":X c #FDC097",
">X c #FEC39A",
",X c #FFC99E",
"<X c #FFCDA1",
"1X c #FFD1A5",
/* pixels */
"N N Z Z Z Z Z Z N N N N N N Z Z Z N N N N N N N N N Z Z Z Z Z Z Z Z Z Z Z Z Z Z Z Z Z Z N N N N N N N N N N N N Z Z Z Z Z Z N N ",
"N N N N N N N N N N N N N N N N N N N N N N N N N N N N N N N N N N N N N N N N N N N N N N N N N N N N N N N N N N N N N N N N ",
"V.V.N N N N V.V.N N N N N N N N N N N N N N N N N N N.F.F > 2 2 # # # #.A N N.N.N N N N N N N N V.V.N N N N N N N N V.V.N N N N ",
"V.V.N N N N V.V.N N N N N N N N N N N N N N N N N N B L r w w w u u w 8 F Z N.N.N N N N N N N M.Z.Z.M.M.N N N N N N V.V.N N N N ",
"N N N N N N N N N N N N N N B.B.N N Z N Z.Z.N N N b @ w s s s s s s s s 9 x Z N N N N N N N B.Z.K.L.P.L.N N N N N N V.V.N N N Z ",
"N N N N N N N N N N N N N N B.B.N N N M.Z.Z.N N N + u s w 8 $ $ $ $ $ 0 s y x N N N N N N N Z.A.L.P.P.K.N N N N N N V.V.N N N Z ",
"N N N N N N N N N N N N N N N N M.M.Z.Z.N N N N N g y u < c.+X+X+X+X^.a 9 w % Z K.L.N N N M.L.P.P.L.M.N N N Z.Z.N N N N N N N Z ",
"N N N N N N N N N N N N N N N N M.M.Z.Z.N N N N N g 9 t %X,X1X<X>X>X<X<Xn.0 & A L.L.M.N N N K.L.L.J.M.N N N Z.Z.N N N N N N N Z ",
"N N N.N.N N N N Z.Z.N N N N N N N N N N N N V.V.N o X t >XW.3.W.>X-Xl.h.^.g.@ S.M.N N N N N N N B.B.N N N N N N N N N N V.V.N Z ",
"N N V.V.N N N N Z.Z.N N N N N N N N N N N N V.V.Y.I b.t -X~.x.~.>X;XE.c.@X3.J S.N N N N N N N Z M.M.N N N N Z N N N N N V.V.N Z ",
"Z N N N N N N N N N D.D.N N H.K.L.K.N N N N N N T.c.*X~.:X-X9.>X;X-X@Xk.<XW S N N.N.N N N N N N N N N N N N N N N N N N N N N N ",
"Z N N N N N N N N N D.D.N N K.K.K.J.N N N N N N Y.9./.;X>X&X9.;X*XQ.@Xk.,XW O.Z N.N.N N N N N N N N N N N N N N N N N N N N N N ",
"Z N N N N N N N N N D.D.N N K.K.M.N N N N N N N Z c v.>X>X>X>X>X-X!.$X>X>XW D N N N N N D.D.N N N N N N N N N N H.H.N N N N N N ",
"Z N N N N N N N N N D.D.N N H.H.N M N N N N N N N N J b.;X>X>X>X;X!.!.>X>XW D N N N N N D.D.N N N N N N N N N N H.H.N N N N N N ",
"Z N N N Z.Z.N N N N N N N N N N N N N N Z Z Z N N N N # -X,X~.c.=X/.*X>X>XU D N N N N N D.D.N N N N K.J.N N N N N N N N N N N N ",
"Z N N N Z.Z.N N N M.N N N N N N N N N N Z Z Z N N N M 1 %X,X-Xc.P U +X1Xn.G Z N N N N N D.D.N N N N K.J.N N N N N N N N N N N N ",
"N N N N N N N N J.K.V.M.N N N N N N N N Z N V.V.N N N M t @X1X,X;X;X<X-XL I.N N V.V.N N N N N N N N N N N N N N D.D.N N N.N.N N ",
"N N N N N N N M.K.L.V.N.N N N N N N N N Z N V.V.N N j g % g.j.k.k.k.l.8.I.J.N N V.V.Z Z N N N N N N Z N N N N N D.D.N N N.N.N N ",
"N N N N N N H.K.K.J.V.N.N N V.V.N N N N Z.Z.N @.6.4.>.>.Y m.r.r.r.r.. | +.v +.Z N N Z Z N N D.D.N N N N N N N N N N N N N N N N ",
"N N N N N M.K.K.J.H.N.M.N N V.V.N N N N Z.Z.@.| ).`..XXX,.z.*X$X$X$X<.).).`._.+ m N N Z N N H.H.N N N N N N N N Z N N N N N N N ",
"N N N N V.Z.J.J.Z.V.N N N N N N N N N N N b o..XXXXX.X.XXX,.6 6 ] 2 >.6 t t 6 `.;.D Z N N N N N N N N N N N N N N N H.H.N N N N ",
"N N N N V.Z.H.H.V.B.N N N N N N N N N N N j ,.XX.X.XXX.X.X.X}..X[.6 u a.a.s.a.r  .v N N N Z Z N N N N N N N N N N N J.J.N N N N ",
"N N N N N N V.V.N N N N N N N N N N N N N 5 XX.X.X.X_.}..X.XXX].p 0.w.y.q.f.q.w.9 ;.Y.V.N N N N N N D.D.N N B.B.N N N N N N N N ",
"N N N N N N B.B.N N N N N N N N N N N N N 5 .X.X.XXX' ].XX.XXX(.e u.q R R d.Y p.Q ].o V.N N N N N N A.D.M.M.B.V.N N N N N N N N ",
"N N V.V.N N N N N N N N N N H.H.N N B.N.N 5 XXXXXXXXo.[..X.XXX`.u 0.i s.f.s.Y f Q `.+ Z N N N N N N N M.J.K.J.K.K.H.N N Z.Z.N N ",
"N N V.V.N N N N N N N N N N H.H.M.N V.V.M.5 ].].].].' [..X.X.XXX*.$ y.i.y.d.Y q 0 3.l.$.N N N N N N Z N J.K.J.J.K.J.N N Z.Z.N N ",
"N N N N N N N N N N N N N N N M.D.D.D.H.J.> 1.U U U 2 [..X.XXX}...e.f.y.u R d 7 g.:Xn.7.N N V.V.N N N N N.N.N.N.Z.Z.N N N N N Z ",
"N N N N N N N N N N N N N N N N D.H.D.D.K.P >X>X>X,X1.[.XXXX}...e.d.s.d.0.0 @ - W.1Xv.$.N N V.V.M.N N N M.M.M.N.V.V.N N N N N Z ",
"N N N N B.B.N N N N V.V.N N N N D.D.M.M.L.P >X>X:X:X1.'. X}.o.w.d.a.f.y.R d.Q = v.>X%X8.N N D.H.J.H.N N N N N.N.N N N N N N N N ",
"N N N N B.B.N N N N V.V.N N N N D.D.N M.K.P >X>X>Xk.2 6 ] ..q.p.R r 0.s.Y R p.e g.;X<Xk.N N H.J.J.H.N Z N N N.N.N N N N N N N N ",
"N N N N N N Z N N N N N N N N N V.V.N N N P >X>X:X&X&X*X*X*X~.a c.=X! w.f.u Y w a =X<Xl.N N J.J.B.M.N N N N N N N N N N N N N N ",
"N N N N N N N N N N N N N N N N N.N.N N Z v @X<X,X,X<X<X<X<X,X<X>X>X@XE t.d.8 W @X,X-X2.N N H.H.M.M.M.N N N N N N N N N N N N N ",
"N N N N N N A.A.N N N N N N N N N N N N N F.~ c.c.z.z.z.z.z.x.k.^.,X1XW.X d h.:X,X-X2.O.N N N N N N N.N.Z.Z.N N N N D.D.N N N.N.",
"N N N N N N A.A.N N N N N N N N N N N N N N F.T.O ( ) ) ) - 7 w E 2.2.9.E.E.-X1XE.I U.N N N N N N N N.N.Z.Z.N N N N D.D.M.N N.N.",
"N N N.N.N N N N Z N N N N N Z.V.N N N N N N N N O '.{.{.|.&.K d.w k.~.@X<X<X%XW F b J.K.N N N N N N N N N N N N N N N M.J.J.N N ",
"Z N N.N.N N N N N N N N N N Z.Z.N N N N N N N N O [.XX.XoX_.Y d.i.E ^.%X@X#XU l Z N K.K.N N N N N N N N Z N N N N N C N J.J.N N ",
"N N N N N N D.H.H.H.N N N N N N N N N N N N N N + }.OXoXoXOX_.Q d.8 r i 9 5 : m N N N N N N N N N Z N N N N N N V.V.N N N N N N ",
"N N N N N N D.H.H.H.N N N N N N N N N N N N N N + -.>.>.>.>.>.< u.R Y e.K - : m N N Z Z N N N N N N N N N N N N V.V.N N N Z N N ",
"N N N N Z N N N N N N N A.D.D.A.N N N N Z.V.N N O 4 ` ` ` ` ` 4 T a.$ a.0., , m N N N N N N N N D.D.M.N M.N N N N M.N.N.N.N.N N ",
"N N N N N N Z N N N N N A.D.D.A.N N N N Z.V.N N O } :.=.=.=.%._ $ i @ y 9 ` ` m M.M.N N N N N M.D.D.M.N N N M.M.M.M.N.N.N.N.N N ",
"N N B.C.C.B.N N N.N.N N B.B.N N N N Z N N N N N O { =.=.=.=.=.[ : : [ _ _ =.3 G.P.L.N N N N Z.Z.M.N V.V.N N H.J.D.D.N Z N N N N ",
"N N B.C.C.B.N N N.N.N N N.N.Z N N N N N N N N N O { =.=.=.=.%.4 1 * { =.=.%.3 G.P.L.M.N N N Z.Z.N N V.V.N N J.J.D.Z.N N N N N N ",
"N N N N N N N N N N N N N N N N N N D.D.N N B.B.O { =.=.=.=.%.' J : %.=.=.%.3 G.M.M.Z.Z.N N N N N N N N N N N N N N N N B.B.N N ",
"N N N N N N N N N N N N N N N N N N H.D.N N B.B.O { =.=.=.%._ X.H = %.=.=.%.3 G.N N Z.Z.N N N N N N N N N N N N N N N N B.B.N N ",
"N N N N N N D.D.N N N N N N N N N N H.H.N N N N O { =.=.=.%.` l b 4 %.=.=.%.3 B B.B.N N N N N N N N N N N N N N Z.Z.N N N N N N ",
"N N N N N N A.D.N N N N N N N N N N D.D.N N N N O { =.=.=.%.' j k 4 %.=.=.%.3 B B.B.N N N N N N N N N N N N N N Z.Z.M.N N N N N ",
"N N N N B.B.N N N N N N J.J.N N A.D.M.N N Z N N O { =.=.=.%.' k k 4 %.=.=.%.3 m N N N N N N N N Z.Z.N N N N N N N M.A.Z.N N N N ",
"N N N N B.B.N N N N N N K.K.N N D.D.N N N N N N O { =.=.=.:./ h k 4 %.=.=.%.= n N N N N N N N N Z.Z.N N N N N N N N Z.Z.N N N N ",
"N N N N N N N N N N N N N N N N N N N N D.D.N N O { %.=.%._ 4.A k 4 %.=.=._ X.A N.N.N N N N D.A.N N N N N N Z.Z.N N N N N N N N ",
"N N N N N N N N N N N N N Z N N N N N N D.D.N N O { =.=.%.; R.M.h 4 %.=.%.: G N N.N.N N N N Z.Z.N N N N N N Z.Z.N N N N N N N N ",
"N N N N Z.Z.N N N N Z N N N N N N N N N N N N N O { =.=.%.^ 7.N h 4 %.=.%./ G N N N N N N N N N N N N N Z.Z.N N N N N N N.N.N N ",
"N N N N Z.Z.N N N N N N N N N N N N N N N N N N O { =.=.%.^ 7.N h 4 %.=.%./ G N N N N N N N N N N N N N Z.Z.N N N N N N N.N.N N ",
"N N N N N N N N N N H.H.N N V.V.N N N N N N N N O { =.=.%.^ 7.N h 4 %.=.%./ G N N N D.D.N N N N N N N N N N N N Z.Z.N N N N N N ",
"N N N N Z N N N N N D.D.N N V.V.N N N N M.M.N N O { =.=.%.^ 7.N h 4 =.=.%./ G N N N D.D.N N N N N N N N N N N N Z.Z.N N N N N N ",
"N N Z.Z.N N N N N N N N N N N N D.D.D.D.K.K.N C O { =.=.%.^ 7.N h 4 =.=.%./ G N N N N N N N N N N N B.B.N N N N N N N N N N N N ",
"N N D.D.N N N M.N N N N N N N N D.D.D.D.K.K.M.N O { =.=.%.^ 7.N h 4 %.=.%./ G N N N Z N N N N N N N Z.Z.M.N N N N N N N N N N Z ",
"N N N N N N Z.Z.V.V.N N N N N N N N B.V.B.V.L.K.O { =.=.%.^ R.N h 4 %.=.=./ H D.N N N N N N N N B.Z.K.L.L.K.N N N N N N Z.Z.N Z ",
"N N N Z N N Z.Z.V.V.N N N N N N N N N.B.M.B.L.K.O } %.%.%.^ R.N h ` %.%.%./ G.H.N N N N N N N N B.Z.K.L.L.J.N N N N N N Z.Z.N Z ",
"N N N N V.V.N N N N N N V.V.N N N N N N N N N N + , , , ,   7.N j > , , , > V N N Z N N N.N.N N N M.D.D.N N N N V.V.N N N N N N ",
"N N N N V.N.N N N N N N V.V.N N N N N N N N Z N M # e e e @ A N j 9 e e e f % +.U.N N N N.N.N N N N D.D.N N N N V.V.N N N N N N ",
"N N N N N N N N N N N N N N N N N N N N M.M.N N N # w.t.t.T 5.F.k 0 0.T T f f i $ G Z N N N N N N N N N N N N.N.N N N N N N N N ",
"N N N N N N N N N N N N N N N N N N N N M.M.N N N # t.i.t.p.f b k $ 0 9 9 9 0 0 0 @ M N N N N N N N N N N N N.N.N N N N N N N N ",
"N N N N N N N N N N N N N N N N N N N N N N N N N O r i r i % k M z z z z z z z z c N N N N N N N N N N N N N N N N N N N N N N ",
"N N N N N Z Z N Z N N N N Z Z N N N N N Z Z Z N N N N N N N N N N N N N Z Z Z Z N N N N Z N Z N Z Z N N N N Z N N N Z Z N N N N "
};
