/* XPM */
static char *c4f059e8473a4c8bc3f3d7907d75436dk09I0thpK7CcEe8T[] = {
/* columns rows colors chars-per-pixel */
"64 64 194 2 ",
"   c None",
".  c #100B08",
"X  c #1B1613",
"o  c #1D1815",
"O  c #1E1A19",
"+  c #171516",
"@  c #0F0B09",
"#  c #2D1D16",
"$  c #251D19",
"%  c #341E13",
"&  c #2C170C",
"*  c #2F231C",
"=  c #2B211B",
"-  c #33241C",
";  c #3A261C",
":  c #3F2618",
">  c #241F20",
",  c #1C252D",
"<  c #0C2B3B",
"1  c #1D2C3D",
"2  c #1A293A",
"3  c #1A313D",
"4  c #282222",
"5  c #25252C",
"6  c #28272B",
"7  c #322720",
"8  c #332A24",
"9  c #3A2B24",
"0  c #33302E",
"q  c #3F3229",
"w  c #232935",
"e  c #242E3D",
"r  c #27343D",
"t  c #39393A",
"y  c #432414",
"u  c #432A1D",
"i  c #4D2C1C",
"p  c #532D1D",
"a  c #54311F",
"s  c #5D321D",
"d  c #65361F",
"f  c #6E391F",
"g  c #67361B",
"h  c #4C2F21",
"j  c #43342B",
"k  c #493426",
"l  c #543322",
"z  c #5B3521",
"x  c #553B2A",
"c  c #453D3A",
"v  c #513E32",
"b  c #633520",
"n  c #683E24",
"m  c #703D23",
"M  c #7A3F25",
"N  c #7C421E",
"B  c #544033",
"V  c #5E4A3D",
"C  c #5B4637",
"Z  c #4B4037",
"A  c #6C4227",
"S  c #68422A",
"D  c #7A4023",
"F  c #734529",
"G  c #77492C",
"H  c #744326",
"J  c #624D3E",
"K  c #674935",
"L  c #7B4B35",
"P  c #70513D",
"I  c #172941",
"U  c #1E2D42",
"Y  c #073B57",
"T  c #1C3553",
"R  c #1B385A",
"E  c #183E54",
"W  c #083349",
"Q  c #222E42",
"!  c #243143",
"~  c #283846",
"^  c #393E41",
"/  c #213B53",
"(  c #223D5E",
")  c #203653",
"_  c #223F62",
"`  c #17435F",
"'  c #3C4349",
"]  c #284050",
"[  c #334958",
"{  c #1F436E",
"}  c #1E4471",
"|  c #1A4F70",
" . c #20416A",
".. c #234666",
"X. c #3A5669",
"o. c #204470",
"O. c #2A5672",
"+. c #275878",
"@. c #2E556F",
"#. c #484647",
"$. c #584C44",
"%. c #5D5045",
"&. c #5A5758",
"*. c #695643",
"=. c #775947",
"-. c #6E5E51",
";. c #7D624E",
":. c #6D635E",
">. c #726259",
",. c #756C67",
"<. c #8A4923",
"1. c #854828",
"2. c #8B532F",
"3. c #94532C",
"4. c #9C572B",
"5. c #85553B",
"6. c #88573C",
"7. c #945731",
"8. c #9C5631",
"9. c #995A32",
"0. c #A45A2D",
"q. c #A45D33",
"w. c #A85B32",
"e. c #AC6335",
"r. c #AA6437",
"t. c #B36535",
"y. c #B46939",
"u. c #B96C3A",
"i. c #B66837",
"p. c #885D44",
"a. c #82624C",
"s. c #8A6B56",
"d. c #876D5A",
"f. c #916F57",
"g. c #9B7054",
"h. c #94725B",
"j. c #9A755B",
"k. c #9E7A5F",
"l. c #927057",
"z. c #A5795C",
"x. c #9F7B63",
"c. c #807D7B",
"v. c #A17C63",
"b. c #AA7E60",
"n. c #C37B53",
"m. c #89817B",
"M. c #A98367",
"N. c #B48A6D",
"B. c #B98E70",
"V. c #BB9173",
"C. c #D7835E",
"Z. c #D98863",
"A. c #CA9C7C",
"S. c #C69777",
"D. c #EBA57C",
"F. c #215E84",
"G. c #1D6897",
"H. c #24648D",
"J. c #2A6388",
"K. c #226692",
"L. c #1D74A9",
"P. c #2271A4",
"I. c #2579AF",
"U. c #2678AB",
"Y. c #2B7EB2",
"T. c #217AB3",
"R. c #1C82BD",
"E. c #2582BD",
"W. c #2D81B7",
"Q. c #1B86C4",
"!. c #2B8AC5",
"~. c #2C8DCB",
"^. c #2686C2",
"/. c #2C90CF",
"(. c #2C93D3",
"). c #D3A382",
"_. c #D9A783",
"`. c #DCA985",
"'. c #DCAC88",
"]. c #E7AC86",
"[. c #F1AD82",
"{. c #EDB48D",
"}. c #E5B38C",
"|. c #F2B38B",
" X c #F7B689",
".X c #EFB992",
"XX c #EAB791",
"oX c #F4BC94",
"OX c #FBBD95",
"+X c #FDC097",
"@X c #FEC39A",
"#X c #FFC99E",
"$X c #FFCDA1",
"%X c #FFD1A5",
/* pixels */
"                                                                                                                                ",
"                                                                                                                                ",
"                                                          - 9 9 - - *                                                           ",
"                                                      v h s s s z z s u $.                                                      ",
"                                                    % s b b b b b b b b i 8                                                     ",
"                                                  X l b s u ; ; ; ; ; p b l 9                                                   ",
"                                                  X l z 9 j.).).).).A.v i s -                                                   ",
"                                                  X i k }.#X%X$X@X@X$X$Xv.i ;                                                   ",
"                                                  @ % k +XB.=.N.@XoXf.a.A.p.#                                                   ",
"                                                  C x.j oXS.j.S.@XOXM.j._.=.                                                    ",
"                                                  j. XS.+XoX;.+XOXoX`.s.$XJ                                                     ",
"                                                  a.D.OX@X{.a.OX|.C.'.s.#XJ                                                     ",
"                                                    z.$X+X+X@X+XoXZ.[.@X@XJ                                                     ",
"                                                      v.OX+X+X+XOXZ.Z.@X@XJ                                                     ",
"                                                      * oX#XS.j..XD.|.+X+XV                                                     ",
"                                                      7 }.#XoXx.C V _.%Xv.                                                      ",
"                                                        k '.%X#XOXOX$XoXv                                                       ",
"                                                      . - p.d.s.s.s.l.d.                                                        ",
"                                                ,.:.@.O.S n.5.6.6.5.$ E &.c $.                                                  ",
"                                              / G.K.!.~.+.g.|.[.[.[.#.G.G.K.H.,                                                 ",
"                                            [ !.~.~.!.!.~.+.t t ^ 0 O.t j j t K.X.                                              ",
"                                            +.~.!.!.~.!.!.!.E.!.I.t z e.t.e.e.k ` #.                                            ",
"                                          r ~.!.!.!.J.W.!.!.~.I.c <.3.9.2.y.2.3.i X.                                            ",
"                                          r !.!.!.~.~ U.~.!.~.F.g 0.a G F u.A w.L P.@                                           ",
"                                          r ~.~.~.~.] Y.!.!.~.K.z <.l e.y.e.A m L H.O                                           ",
"                                          e P.P.P.P.~ Y.~.!.!.~...: 9.q.9.u.A a p -.j.                                          ",
"                                          7 %.V V V 0 Y.!.!.~.E.' 4.u.7.z F n y p.+Xb.c.                                        ",
"                                          B @X@X@X#X%.T.~.~.E.' 4.u.r.y.1.p = < N.%Xz.                                          ",
"                                          B +X+X+X+X$.L.^.E.[ 3.u.e.y.7.G t.L , z.@X}.d.                                        ",
"                                          B +X+X@Xs.q t ^ ' 2.w.G k 1.e.S H w.d p.OX$Xf.                                        ",
"                                          B @X+X+X{.{.|.|..XS.v k.XXP 3.y.z A s v .X$Xl.                                        ",
"                                          j `.$X#X#X#X#X#X$X#X$X@X@X'.K 9.u.u J _.#XoX;.                                        ",
"                                            %.j.j.g.g.g.g.j.h.s.A.#X%XV.% n a.+X#XoX=.                                          ",
"                                                O W Y Y Y < y s S *.*.;.M.M.oX$XM.V                                             ",
"                                                + L.R.R.Q.| N i.s s.S._.$X$X}.J                                                 ",
"                                                O Y.~.!.(.H.A i.q.K A.}.`.].V                                                   ",
"                                                O W.(././.(.J.G u.u h l i r 3                                                   ",
"                                                o @.O.O.O.O.O.8 0.F A 4.N 3 3                                                   ",
"                                                o e Q Q Q Q Q e D t.u e.1., 5                                                   ",
"                                                o _ o. . . .} R ; l * l i U Q                                                   ",
"                                                o (  . . . . .) 1 1 ) R R  .w                                                   ",
"                                                o (  . . . .{ e * > (  . .{ w                                                   ",
"                                                o (  . . . .{ ~ Z 1 {  . .{ w                                                   ",
"                                                o (  . . .{ T #.  2 {  . .{ w                                                   ",
"                                                o (  . . .{ Q     e {  . .{ w                                                   ",
"                                                o (  . . .{ !     e {  . . .w                                                   ",
"                                                o (  . . .{ !     e {  . .{ w                                                   ",
"                                                o (  . . .o.U     e {  . .{ 2                                                   ",
"                                                o ( {  .{ T &.    e {  . .T #.                                                  ",
"                                                o (  . .{ 2       e {  .{ 1                                                     ",
"                                                o (  . .{ I m.    e {  .{ U                                                     ",
"                                                o (  . .{ I m.    e {  .{ U                                                     ",
"                                                o (  . .{ I m.    e {  .{ U                                                     ",
"                                                o (  . .{ I m.    e  . .{ U                                                     ",
"                                                o (  . .{ I m.    e  . .{ U                                                     ",
"                                                o (  . .{ I m.    e {  .{ U                                                     ",
"                                                o (  . .{ I m.    e {  . .U                                                     ",
"                                                o _ { { } I m.    ! } { { U                                                     ",
"                                                $ 5 5 5 5 +       4 6 6 6 4                                                     ",
"                                                  # d d d &       i f f f m y                                                   ",
"                                                  * 3.8.8.1.>.    p 1.D D M M l ;                                               ",
"                                                  - 8.q.8.w.m     ; p i i i p p p #                                             ",
"                                                  $ l l l z u                                                                   ",
"                                                                                                                                "
};
