/* XPM */
static char *_7598895d5ed4087d5a1702dc2fda787cFz1H6xWWGMwxJFZ[] = {
/* columns rows colors chars-per-pixel */
"64 64 207 2 ",
"   c None",
".  c #000000",
"X  c #0B0B0B",
"o  c #141414",
"O  c #1B1B1B",
"+  c #3C0200",
"@  c #3A0700",
"#  c #272827",
"$  c #3F3F3F",
"%  c #333332",
"&  c #400703",
"*  c #440A01",
"=  c #4A0E02",
"-  c #400A09",
";  c #4E1302",
":  c #4D1906",
">  c #47160B",
",  c #531B02",
"<  c #531C0A",
"1  c #551A07",
"2  c #420E10",
"3  c #441618",
"4  c #54220E",
"5  c #5B240C",
"6  c #5D2607",
"7  c #4F2110",
"8  c #4D281E",
"9  c #562512",
"0  c #5A2513",
"q  c #5C2B15",
"w  c #54241C",
"e  c #5E2D19",
"r  c #572A14",
"t  c #632602",
"y  c #6B2C03",
"u  c #642D0D",
"i  c #652B0B",
"p  c #6D320B",
"a  c #71340A",
"s  c #75390E",
"d  c #703206",
"f  c #632D12",
"g  c #632B1A",
"h  c #653214",
"j  c #6B3514",
"k  c #64341B",
"l  c #68371B",
"z  c #6B391D",
"x  c #6F3815",
"c  c #753B15",
"v  c #733E1C",
"b  c #783C12",
"n  c #5C3429",
"m  c #59352A",
"M  c #6D3D21",
"N  c #6B3E2B",
"B  c #683726",
"V  c #723E22",
"C  c #7C4116",
"Z  c #77421E",
"A  c #7C441C",
"S  c #40403F",
"D  c #6E422D",
"F  c #6F4023",
"G  c #744225",
"H  c #7B4623",
"J  c #7E4925",
"K  c #75452A",
"L  c #794728",
"P  c #7C4A2A",
"I  c #75482D",
"U  c #6C483A",
"Y  c #7A4E34",
"T  c #744831",
"R  c #7C523C",
"E  c #77513B",
"W  c #4C4C4C",
"Q  c #555555",
"!  c #724D42",
"~  c #7A5C4E",
"^  c #7F5A46",
"/  c #6C5252",
"(  c #7C5B50",
")  c #686767",
"_  c #747473",
"`  c #7A767E",
"'  c #854517",
"]  c #82461D",
"[  c #8A4B1B",
"{  c #96561E",
"}  c #834B24",
"|  c #884F24",
" . c #814E2C",
".. c #8B5126",
"X. c #84512E",
"o. c #8A542D",
"O. c #8F592F",
"+. c #915424",
"@. c #945C2D",
"#. c #9A5E2F",
"$. c #91572B",
"%. c #865331",
"&. c #8A5632",
"*. c #8D5934",
"=. c #8D5D3C",
"-. c #80533A",
";. c #935D35",
":. c #985F33",
">. c #935F38",
",. c #976136",
"<. c #9B6336",
"1. c #94623B",
"2. c #9A653B",
"3. c #9E693E",
"4. c #A36935",
"5. c #A36B3D",
"6. c #A9713B",
"7. c #8A5E41",
"8. c #855F4A",
"9. c #8B664C",
"0. c #8F6144",
"q. c #9E6C42",
"w. c #92694E",
"e. c #956644",
"r. c #8D6C5C",
"t. c #8A6755",
"y. c #8F7059",
"u. c #99745D",
"i. c #A26D42",
"p. c #A47145",
"a. c #AC7545",
"s. c #A4734A",
"d. c #AB7649",
"f. c #AE7A4B",
"g. c #AF7846",
"h. c #B17E4E",
"j. c #AA7953",
"k. c #A87A57",
"l. c #8D7369",
"z. c #8A7B77",
"x. c #977D6C",
"c. c #AC805F",
"v. c #B48251",
"b. c #BA8956",
"n. c #BF8E5A",
"m. c #BA8552",
"M. c #81817F",
"N. c #93837C",
"B. c #AC866A",
"V. c #B08461",
"C. c #B18F75",
"Z. c #C4925A",
"A. c #C89861",
"S. c #988E8A",
"D. c #9F9086",
"F. c #939192",
"G. c #979398",
"H. c #A18E85",
"J. c #AF9A8E",
"K. c #BA9B84",
"L. c #A69D98",
"P. c #A0A09F",
"I. c #ABA39E",
"U. c #ACA7AA",
"Y. c #B0AAA5",
"T. c #A8B0B8",
"R. c #B1B0B4",
"E. c #B2B3B8",
"W. c #B9B9BA",
"Q. c #C4A994",
"!. c #C4A288",
"~. c #CCB9AA",
"^. c #C3BDB8",
"/. c #D5C0AF",
"(. c #C3C1BE",
"). c #CBC0B5",
"_. c #DFCAB9",
"`. c #E0CBBB",
"'. c #BBBCC1",
"]. c #C6CACF",
"[. c #C8C6C5",
"{. c #D4CECA",
"}. c #D9D2CC",
"|. c #C9CED2",
" X c #C4CCD2",
".X c #DAD9D7",
"XX c #DADDDD",
"oX c #D4D5D5",
"OX c #E5D9CE",
"+X c #E8DDD4",
"@X c #ECE6DF",
"#X c #DADFE2",
"$X c #D7DCE3",
"%X c #DEE5E6",
"&X c #E4EAED",
"*X c #ECEEED",
"=X c #E7E7E5",
"-X c #F1EEEA",
";X c #F2F2EF",
":X c #E7EEF1",
">X c #ECF1F3",
",X c #EBF7FC",
"<X c #F5F6F6",
"1X c #F9F6F4",
"2X c #F4FDFE",
"3X c #FEFEFE",
"4X c #F8F8F7",
/* pixels */
"                                                                                                                                ",
"                                                                                                                                ",
"                                                                                                                                ",
"                                                                                                                                ",
"                                                                                                                                ",
"                                                                                                                                ",
"                                                                                                                                ",
"                                                                                                                                ",
"                                                                                                                                ",
"                                                                                                                                ",
"                                                                                                                                ",
"                                                      s.p.                                                                      ",
"                                                      w.5.5.*.                                                                  ",
"                                                        p.b.>.o.*.                                                              ",
"                                                      c.6.v.q.;.X. .=.                                                          ",
"                                                      3.f.s.q.1.*.o.} =.                                                        ",
"                                                    c.<.d.q.2.2.1.*.*.H &.                                                      ",
"                                                    ;.3.q.q.2.1.q.i.;.*.Z  .                                                    ",
"                                                    } 1.1.>.1.p.v.f.1.&.%.j u.                                                  ",
"                                                  1.J  .P P 2.f.f.i.>.&.X.L j                                                   ",
"                                                  9.h M G &.i.d.p.2.*.%. .P u 8.                                                ",
"                                                    H &.2.f.v.h.3.*.%.X.P L h D                                                 ",
"                                              j.i.a.h.m.b.b.v.i.*.X. .P L G z q                                                 ",
"                                            <.g.Z.A.A.n.v.d.3.*.X.P P L M z e w                                                 ",
"                                          :.2.m.n.b.h.p.2.*.%. .P L G M l e @ B                                                 ",
"                                        k...2.2.2.1.*.%.X.P P L G M z l 9 > k *.O.o.&.                                          ",
"                                        >.O.*.%. .P P P P P L G M l q 7 0 P 1.*.%.%.} H                                         ",
"                                        o.&.X.P P  .P P L L G M q 7 0 L *.*.%.&.*.*.%.c L                                       ",
"                                         .X.*.2.$.| o.&.P G k r k P >.1.&.;.>.] c } &. .j                                       ",
"                                      =.P 1...5 n U D u Z I I *.q.i.;.%.2.] 4 m m > ; v M N                                     ",
"                                        J ] 8 ` ].#X'.z.l @.d.p.1.&.X.>.c m F.|.%XU./ < u                                       ",
"                                        A n T.3X;X.X3X,XI.Z *.>.&.X.%.c n  X3X<X.X3X,Xz.,                                       ",
"                                      g.x G.3XoX# X F.3X,Xx.s *.&. .X.5 U.3X=XS X _ 3X%X~ c                                     ",
"                                  i.2.' ~ &X3X% . . . ].3X^.H X.%.X.p ! :X3X) . . . P.3XY.u Z X.                                ",
"                                3.#.3.c N.3XW.. X o . _ 3XXX7.} X. ., l.3X=XX . X . $ 3XoXE h Z J                               ",
"                              k.+.2.;.x L.3XF.. o o . W 3X%Xw.]  .P , D.3X(.. . X . O -X&Xt.u I j L                             ",
"                              ;.;.*.&.x L.3XF.. o o . Q 3X#Xw.A P G , H.3X[.. . X . O *X>Xy.u G G h                             ",
"                              o.*.&.&.c D.3XW.. o O . M.3XoX&.H L M * l.3X*XO . o . $ 3XXX9.j G G f                             ",
"                              o.&.&.&.C r.2X1X% . . . XX3X~.b z k k f I *X3X_ . . . P.3X(.X.G L M e                             ",
"                              } X.X.%.o.Z [.3X{.# o R.3X3X0.6 G %.&.*.t J.3X4XQ O _ 3X2XK.' I L z 4                             ",
"                              v P P P %.] =.&X3X3X<X3X3XC.b 2.d.q.&. .v j {.3X3X>X3X3X).#. .L M k :                             ",
"                              T q z M G X.] 1.~.1X3X}.B.+.h.h.2.&.X. . .x c Q.-X3X@XQ.#...P L l : w                             ",
"                              e.o.;.1.2.2.d.@.[ p.j.<.4.b.f.2.*.&.X.P  .%.H s ;.s.>.[ O.%.P M e @ K                             ",
"                          2.:.5.a.g.f.f.f.f.f.f.{ { 6.a.4.@...} J A A A A A Z y t J *.X.P G k 4 M <.;.;.e.                      ",
"                      5.<.2.i.i.i.d.f.d.d.d.2.P r.r.^ E T I D D N N N N N U U ( t.Y H P G l k P 3.2.;.*.} H                     ",
"                    V.+.3.3.3.3.i.p.p.i.3.1.A -.3X3X$X].W.E.E.R.R.R.R.E.'.|.#X2X3XB.t G M G &.2.>.*.&.&.%.c 7.                  ",
"                    :.;.2.2.2.2.2.2.1.>.*.&.%.A K.3X3X4X<X<X>X*X*X*X>X<X4X3X3X3X_.A z G X.,.2.;.*.&.X. .P P j                   ",
"                    o.>.;.;.;.;.*.*.*.&.&.%.%.X.s B.1X3X3X4X4X4X4X4X4X4X3X3X3X!.a j  .*.2.<.;.*.%.X. .P P P f R                 ",
"                  1.&.;.*.*.&.&.&.&.%.%.X.X. .%. .d *.~.1X3X3X3X3X3X3X3X3X`.q.y Z *.<.2.,.;.&.X. .P P L G G l l                 ",
"                  =.o.&.&.&.%.X.X.X. . . .P  .P  .%.c a 1.K./.OX+X+X_.Q.s.s a &.,.2.2.>.*.&.X. .P L L G M z k 0                 ",
"                    J %.X.X. . .P P P P P P P P P P P P c p b } | | C d b o.,.<.,.>.;.*.X.X.P P G G M M l l ; B                 ",
"                    J J  .P P P P L I I G G G G G L L L P P J H H J  .O.>.2.<.>.*.*.o.X. .P L G M z l k k < +                   ",
"                    w.i P P L L L G G V M M M V G G L J J J  .X.o.*.;.>.;.*.*.o.X. .P P L M M l l k e 0 = +                     ",
"                      Y u M G F M z z l l l j j v v v Z J } o.o.o.o. . .} H H G V V M z l k e 0 < ; * + 2                       ",
"                        B e q q 0 9 0 0 e g B N g B K   V G V v x j f f i 5 1 1 ; ; < = + + * & & - 3                           ",
"                                                                                                                                ",
"                                                                                                                                ",
"                                                                                                                                ",
"                                                                                                                                ",
"                                                                                                                                ",
"                                                                                                                                ",
"                                                                                                                                ",
"                                                                                                                                ",
"                                                                                                                                "
};
