/* XPM */
static char *_0b6faf770a44ac6d53fbf2f740120b46R2Hw9bC2N13imC9[] = {
/* columns rows colors chars-per-pixel */
"64 64 219 2 ",
"   c #000000",
".  c #0B0B0B",
"X  c #141414",
"o  c #1B1B1B",
"O  c #3C0200",
"+  c #3A0700",
"@  c #39160D",
"#  c #372015",
"$  c #363A1E",
"%  c #272827",
"&  c #393938",
"*  c #450A02",
"=  c #4E1302",
"-  c #4A1809",
";  c #531B02",
":  c #541B09",
">  c #58230C",
",  c #4E2315",
"<  c #5A2612",
"1  c #592A15",
"2  c #5C2C15",
"3  c #4B3C1A",
"4  c #58361A",
"5  c #662A06",
"6  c #642D0D",
"7  c #6D320B",
"8  c #703206",
"9  c #71340A",
"0  c #75390E",
"q  c #632D12",
"w  c #653214",
"e  c #6B3514",
"r  c #64341B",
"t  c #6A371A",
"y  c #6B391D",
"u  c #753B15",
"i  c #783C12",
"p  c #723E1C",
"a  c #423823",
"s  c #5A352A",
"d  c #6D3D21",
"f  c #673D2B",
"g  c #6A3E2C",
"h  c #713E21",
"j  c #18491D",
"k  c #185824",
"l  c #3B4B21",
"z  c #285B2C",
"x  c #385829",
"c  c #1A672C",
"v  c #00772F",
"b  c #017C2F",
"n  c #1B6833",
"m  c #067730",
"M  c #017A30",
"N  c #0C7E33",
"B  c #147A35",
"V  c #147E38",
"C  c #27682B",
"Z  c #296837",
"A  c #326835",
"S  c #277D3B",
"D  c #3A7A3D",
"F  c #564A1E",
"G  c #7C4116",
"H  c #77421E",
"J  c #7C441C",
"K  c #574B28",
"L  c #42552C",
"P  c #474533",
"I  c #6C4429",
"U  c #744225",
"Y  c #7A4623",
"T  c #7E4925",
"R  c #754629",
"E  c #794728",
"W  c #734A28",
"Q  c #7C4A2A",
"!  c #6C5C2C",
"~  c #6C483A",
"^  c #764A31",
"/  c #665831",
"(  c #795538",
")  c #4B6C38",
"_  c #586738",
"`  c #48783B",
"'  c #517A37",
"]  c #68653A",
"[  c #776A38",
"{  c #70723A",
"}  c #2E7E42",
"|  c #397A43",
" . c #4C4C4C",
".. c #555555",
"X. c #73534C",
"o. c #7B5B4B",
"O. c #467E43",
"+. c #587C46",
"@. c #697E4B",
"#. c #777841",
"$. c #686767",
"%. c #757476",
"&. c #82461D",
"*. c #874819",
"=. c #96561E",
"-. c #834B24",
";. c #884F24",
":. c #814E2C",
">. c #8B5126",
",. c #84512E",
"<. c #8A542D",
"1. c #8F592F",
"2. c #955A2B",
"3. c #865331",
"4. c #8A5632",
"5. c #8D5934",
"6. c #845939",
"7. c #935D35",
"8. c #995F33",
"9. c #935F38",
"0. c #8C6B3A",
"q. c #966136",
"w. c #9A6336",
"e. c #95623B",
"r. c #9A653B",
"t. c #95693A",
"y. c #9E693E",
"u. c #A36B39",
"i. c #A9713B",
"p. c #8A5F41",
"a. c #8F6448",
"s. c #9E6C42",
"d. c #91684C",
"f. c #827744",
"g. c #8B6A5A",
"h. c #8F7059",
"j. c #A26D42",
"k. c #A47145",
"l. c #AC7545",
"z. c #A87448",
"x. c #AA7649",
"c. c #AE7A4B",
"v. c #B17E4E",
"b. c #A67651",
"n. c #8D7369",
"m. c #8E7C73",
"M. c #04832D",
"N. c #09862D",
"B. c #068B2B",
"V. c #0A8B2C",
"C. c #079129",
"Z. c #0C932A",
"A. c #0F982A",
"S. c #16952C",
"D. c #129A2B",
"F. c #139C2A",
"G. c #0B8232",
"H. c #198832",
"J. c #228039",
"K. c #318333",
"L. c #16A12A",
"P. c #1AA42A",
"I. c #1CA72A",
"U. c #1EAA2A",
"Y. c #23A52D",
"T. c #20AC2A",
"R. c #24B129",
"E. c #23A031",
"W. c #468E39",
"Q. c #58813A",
"!. c #2B8442",
"~. c #538E41",
"^. c #6B834A",
"/. c #B48251",
"(. c #BA8956",
"). c #BD8B57",
"_. c #8A827E",
"`. c #AC866A",
"'. c #B18F75",
"]. c #C4925A",
"[. c #C89861",
"{. c #9F9086",
"}. c #949294",
"|. c #A8948A",
" X c #BA9B84",
".X c #A69D98",
"XX c #A4A19F",
"oX c #ACA7AA",
"OX c #ACADAF",
"+X c #B1B0B4",
"@X c #B6B6B9",
"#X c #C4A288",
"$X c #C4A994",
"%X c #CCB9AA",
"&X c #C3BDB8",
"*X c #D5C0AF",
"=X c #C6C1BB",
"-X c #DFCAB9",
";X c #E0CBBB",
":X c #BBBCC1",
">X c #C7C8C9",
",X c #D4CECA",
"<X c #D9D2CC",
"1X c #C7CDD2",
"2X c #D8D9D9",
"3X c #E5D9CE",
"4X c #E8DDD4",
"5X c #ECE6DF",
"6X c #D9DEE3",
"7X c #DEE5E6",
"8X c #E5E9EA",
"9X c #ECEEED",
"0X c #F1EEEA",
"qX c #EDF0F0",
"wX c #ECF1F3",
"eX c #EBF7FC",
"rX c #F5F6F6",
"tX c #F7F9F8",
"yX c #FEFEFE",
/* pixels */
"b b b b b b b b b b b b b b b b b b b b b b b b b b b b b b b b b b b b b b b b b b b b b b b b b b b b b b b b b b b b b b b b ",
"b b b b b b b b b b b b b b b b b b b b b b b b b b b b b b b b b b b b b b b b b b b b b b b b b b b b b b b b b b b b b b b b ",
"V.V.b b b b V.V.b b b b b b b b b b b b b b b b b b N.N.b b b b V.V.b b b b N.N.b b b b b b b b V.V.b b b b b b b b V.V.b b b b ",
"V.V.b b b b V.V.b b b b b b b b b b b b b b b b b b V.V.b b b b V.V.b b b b N.N.b b b b b b b M.Z.Z.M.M.b b b b b b V.V.b b b b ",
"b b b b b b b b b b b b b b B.B.b b M b Z.Z.b b b b N.N.b b b b b b b b b b b b b b b b b b B.Z.U.T.R.T.b b b b b b V.V.b b b b ",
"b b b b b b b b b b b b b b B.B.b b b M.Z.Z.b b b b N.N.b b b b b b b b b b b b b b b b b b Z.A.T.R.R.U.b b b b b b V.V.b b b b ",
"b b b b b b b b b b b b b b b b M.M.Z.Z.b b b b b b b b b b V.V.b b b b b b v b U.T.b b b M.T.R.R.T.M.b b b Z.Z.b b b b b b b b ",
"b b b b b b b b b b b b b b b b M.M.Z.Z.b b b b b b b b b b V.V.b b b b b b b M.T.T.M.b b b U.T.T.I.M.b b b Z.Z.b b b b b b b b ",
"b b N.N.b b b b Z.Z.b b b b b b b b b b b b V.V.b b b b b b b b b b b b b b D.D.M.b b b b b b b B.B.b b b b b b b b b b V.V.b b ",
"b b V.V.b b b b Z.Z.b b b b b b b b b b b b V.V.b b b b b b b b b b b b b b D.D.b b b b b b b M M.M.b b b b M b b b b b V.V.b b ",
"b b b b b b b b b b D.D.b b P.U.T.U.b b b b b b b b b N Z.Z.b b b b V.V.b b b b N.N.b b b b b b b b b b b b b b b b b b b b b b ",
"b b b b b b b b b b F.F.b b U.U.U.P.b b b b b b b b M f.f.` N b b b V.V.b b b b N.N.b b b b b b b b b b b b b b b b b b b b b b ",
"b b b b b b b b b b F.F.b b U.U.M.b b b b b b b b b V.' i.u.6.) M b b b b b b b b b b b D.D.b b b b b b b b b b L.L.b b b b b b ",
"b b b b b b b b b b D.D.b b P.P.b v b b b b b b b b V.K.k.(.9.<.( D b b b b b b b b b b F.F.b b b b b b b b b b P.P.b b b b b b ",
"b b b b Z.Z.b b b b b b b b b b b b b b b b M M b b b +.i./.s.5.,.:.Q.I.b b b b b b b b F.F.b b b b U.I.b b b b b b b b b b b b ",
"b b b b Z.Z.b b b M.b b b b b b b b b b M M M M b M N t.c.k.s.e.5.<.-.{ N.b b b b b b b D.D.b b b b U.I.b b b b b b b b b b b b ",
"b b b b b b b b I.U.V.M.b b b b b b b b b b V.V.b b @.w.x.s.r.r.e.5.5.Y [ Y.b b V.V.b b b b b b b b b b b b b b D.F.b b N.N.b b ",
"b b b b b b b M.U.T.V.N.b b b b b b b b b b V.V.b V 7.y.s.s.r.e.s.j.7.5.H ! b b V.V.b b b b b b b b M b b b b b F.F.b b N.N.b b ",
"b b b b b b P.U.U.I.V.N.b b V.V.b b b b Z.Z.b b b O.-.e.e.9.e.k./.c.e.4.3.e +.b b b b b b b F.F.b b b b b b b b b b b b b b b b ",
"b b b b b M.U.U.I.P.N.M.b b V.V.b b b b Z.Z.b b b _ T :.Q Q t.c.c.j.9.4.,.E e V b b b b b b L.L.b b b b b b b b M b b b b b b b ",
"b b b b V.Z.P.P.Z.V.b b b b b b b b b b b b b b F.Q.w d U 4.j.x.k.r.5.3.:.Q 6 ) b b b b b b b b b b b b b b b b b b P.P.b b b b ",
"b b b b V.Z.P.P.V.B.b b b b b b b b b b b b b b L.~.Y 4.r.c./.v.y.5.4.,.Q E w K b b b b b b M b b b b b b b b b b b P.P.b b b b ",
"b b b b b b V.V.b b b b b b b b b b b b b b N +.0.l.v.(.(.(./.j.5.,.:.Q E U y 3 b b V.V.b b b b b b D.D.b b B.B.b b b b b b b b ",
"b b b b b b B.B.b b b b b b b b b b b b b J.0.l.].[.[.)./.x.y.5.,.Q Q E d y 2 $ b b V.V.b b b b b b D.D.M.M.B.V.b b b b b b b b ",
"b b V.V.b b b b b b b b b b L.L.b b B.N.N q.r.(.).(.v.k.r.5.4.:.Q E U d y 2 + K O.S b b b b b b b b b M.P.U.I.U.U.P.b b Z.Z.b b ",
"b b V.V.b b b b b b b b b b L.L.M.b V.V.@.>.r.r.r.e.5.4.,.Q Q E U d y r 1 - r 5.1.<.! S b b b b b b M b P.U.I.I.U.I.b b Z.Z.b b ",
"b b b b b b b b b b b b b b b M.D.F.F.E.9.1.5.3.:.Q Q Q Q Q E U d r 2 , 1 Q e.5.3.3.-.Y } b V.V.b b b b N.N.N.N.Z.Z.b b b b b b ",
"b b b b b b b b b b b b b b b b F.L.F.W.<.4.,.Q Q :.Q Q E E U d 2 , 1 E 5.5.3.4.5.5.4.p W G.V.V.M.b b b M.M.M.N.V.V.b b b b b b ",
"b b b b B.B.b b b b V.V.b b b b F.F.M.` :.,.5.r.2.;.<.4.Q U r 1 r Q 9.e.4.7.9.&.u -.4.:.w D F.L.P.L.b b b b N.N.b b b b b b b b ",
"b b b b B.B.b b b b V.V.b b b b D.D.b ) Q e.>.< s ~ I 6 H R R 5.s.j.7.4.r.&.> s s - = p d x L.P.P.L.b M b b N.N.b b b b b b b b ",
"b b b b b b M b b b b b b b b b V.V.b D T &., %.1X6X:Xm.t 2.x.k.e.4.,.9.u s }.1X7XOXX.: 6 A P.P.B.M.b b b b b b b b b b b b b b ",
"b b b b b b b b b b b b b b b b N.N.b N J s +XyXqX2XyXeXXXH 5.9.4.,.3.u s 1XyXrX2XyXeXm.; B L.L.M.M.M.b b b b b b b b b b b b b ",
"b b b b b b A.A.b b b b b b b b b b S #.y }.yX2X% . }.yXeXm.0 5.4.:.,.> oXyX8XP . %.yX7Xo.F D M b b N.N.Z.Z.b b b b D.D.b b N.N.",
"b b b b b b A.A.b b b b b b b b V { r.*.o.8XyX&       >XyX&XY ,.3.,.7 X.qXyX$.      }.yXoX6 Y ! S b N.N.Z.Z.b b b b D.F.M.b N.N.",
"b b N.N.b b b b M b b b b b Z.S.0.8.y.u _.yX@X  . X   $.yX2Xp.-.,.:.; n.yX8X.   .   & yX2X( w Y T !.b b M.b b b b b b M.P.P.b b ",
"b b N.N.b b b b b b b b b b Z.^.>.r.7.y .XyX}.  X X    .yX7Xd.&.:.Q ; {.yX=X    .   o 0X9Xg.6 R e I b b M b b b b b v b P.P.b b ",
"b b b b b b F.L.P.L.b b b b V 7.7.5.4.y .XyX}.  X X   ..yX6Xd.J Q U ; {.yX>X    .   o 9XqXh.6 U U w S b b b b b V.V.b b b b b b ",
"b b b b b b F.L.P.L.b b b b | <.5.4.4.u {.yX@X  X o   _.yX<X4.Y E d * n.yX9Xo   X   & yX2Xd.e U U q A b b b b b V.V.b b b M b b ",
"b b b b M b b b b b b b A.D.' <.4.4.4.G h.eXrX&       2XyX%Xi y r r q R 9XyX%.      XXyX=X,.Y E d 2 z b M.b b b b M.N.N.N.N.b b ",
"b b b b b b M b b b b b A.F.W.-.,.,.,.<.H >XyX,X% X +XyXyXa.> U ,.4.5.5 |.yXtX..o %.yXtX X&.R E y > C b b b M.M.M.M.N.N.N.N.b b ",
"b b B.C.C.B.b b N.N.b b B.B.!.p Q Q Q 3.&.9.8XyXyXrXyXyX'.i t.x.s.4.:.p e ,XyXyXqXyXyX=X8.:.E d r ; J.V.b b P.P.F.D.b M b b b b ",
"b b B.C.C.B.b b N.N.b b N.N.M / 2 y d U ,.&.e.%XrXyX<X`.>.v.c.r.4.,.:.:.e p $X0XyX5X$X8.>.Q E r ; a V.V.b b P.P.F.Z.b b b b b b ",
"b b b b b b b b b b b b b N D [ <.7.e.r.r.x.2.*.k.b.w.u.(.c.r.5.4.,.Q :.3.Y 0 7.k.9.*.1.3.Q d 2 + K ` B b b b b b b b b B.B.b b ",
"b b b b b b b b b b b b +.t.8.u.l.l.c.c.c.c.c.c.=.=.i.l.u.2.>.-.T J J J J J H 8 5 T 5.,.Q U r , d w.7.7.] N b b b b b b B.B.b b ",
"b b b b b b D.F.b b b { w.r.j.j.j.x.c.x.x.x.r.Q g.h.o.( ^ R I I g g g f g ~ ~ o.g.^ Y Q U t r Q y.r.7.5.-.W V b Z.Z.b b b b b b ",
"b b b b b b Z.D.b b ^.2.y.y.y.y.j.k.k.j.y.e.J 6.yXyX6X1X@X@X@X+X+X+X+X@X:X1X6XtXyX`.5 U d U 5.r.9.5.4.4.3.u ] b Z.Z.M.b b b b b ",
"b b b b B.B.b b b H.8.7.r.r.r.r.r.r.e.9.5.4.3.J  XyXyXtXrXrXqX9X9X9XqXrXtXyXyXyX-XJ y Y ,.q.r.7.5.4.,.:.Q Q w } b M.A.Z.b b b b ",
"b b b b B.B.b b b O.<.9.7.7.7.7.5.5.5.4.4.4.4.,.0 `.rXyXyXtXrXrXrXrXtXtXyXyXyX#X9 e :.5.r.w.7.5.3.,.:.Q Q Q q _ b b Z.Z.b b b b ",
"b b b b b b b b b ) 4.7.5.5.4.4.4.4.4.3.,.,.:.3.:.8 5.%XtXyXyXyXyXyXyXyXyX;Xs.5 H 5.w.r.q.7.4.,.:.Q Q E U U t K b b b b b b b b ",
"b b b b b b b b b ) <.4.4.4.4.,.,.,.:.:.:.Q :.Q :.3.p 9 e. X*X3X4X4X-X$Xb.0 9 4.q.r.r.9.5.4.,.:.Q E E U d y r 3 b b b b b b b b ",
"b b b b Z.Z.b b b D T 4.,.,.:.:.Q Q Q Q Q Q Q Q Q Q Q Q u 8 i -.;.;.G 8 i <.q.w.q.9.7.4.,.,.Q Q U U d d r r = L b b b b N.N.b b ",
"b b b b Z.Z.b b b V T T :.Q Q Q Q E R R U U U U U E E E Q Q T Y Y T :.1.9.r.w.9.7.5.<.,.:.Q E U d y r r r : O B b b b b N.N.b b ",
"b b b b b b b b b b Q.6 Q Q E E E U U d d d d h U U E T T T :.,.<.5.7.9.7.5.5.<.,.:.Q E E d d r r r 2 < * O Z b Z.Z.b b b b b b ",
"b b b b M b b b b b F.] 6 d U U d y y t t t e e p p u H T -.<.<.<.<.:.-.-.Y Y Y h d d y t r 2 < : = * O # n b b Z.Z.b b b b b b ",
"b b Z.Z.b b b b b b b M x 2 1 2 < > < 1 4 F K L l x L x L K I p t e q q 6 > : : = = : = O O * * * @ $ C b b b b b b b b b b b b ",
"b b D.D.b b b M.b b b b b m c k C K.H.S.U.U.M.b b b b b b b b B c c c c C z z z z A j z | Z k c B b Z.Z.M.b b b b b b b b b b b ",
"b b b b b b Z.Z.V.V.b b b b b b b b B.V.B.V.T.U.b b b b F.L.b b b b b b b b F.F.b b b b b b b b B.Z.U.T.T.U.b b b b b b Z.Z.b b ",
"b b b M b b V.Z.V.V.b b b b b b b b N.B.M.B.T.U.b b b b L.L.b b b b b b b b L.L.b b b b b b b b B.Z.U.T.T.I.b b b b b b Z.Z.b b ",
"b b b b V.V.b b b b b b V.V.b b b b b b b b b b b b b b b b b b b b B.B.b b b b b b b b N.N.b b b M.F.F.b b b b V.V.b b b b b b ",
"b b b b V.N.b b b b b b V.V.b b b b b b b b M b b b b b b M b b b b B.B.b b b b b b b b N.N.b b b b D.D.b b b b V.V.b b b b b b ",
"b b b b b b b b b b b b b b b b b b b b M.M.b b b b B.B.b b V.V.b b b b V.Z.b b b b b b b b b b b b b b b b N.N.b b b b b b b b ",
"b b b b b b b b b b b b b b b b b b b b M.M.b b b b N.N.b b V.V.b b b b V.V.b b b b b b b b b b b b b b b b N.N.b b b b b b b b ",
"b b b b b b b b b b b b b b b b b b b b b b b b b b b b b b b b b b b b b b b b b b b b b b b b b b b b b b b b b b b b b b b b ",
"b b b b b b b b b b b b b b b b b b b b b b b b b b b b b b b b b b b b b b b b b b b b b b b b b b b b b b b b b b b b b b b b "
};
