/* XPM */
static char *_02d360c049b4923970388a83666fe3aLGmw3eVoAFNa9trb[] = {
/* columns rows colors chars-per-pixel */
"64 64 137 2 ",
"   c None",
".  c #111111",
"X  c #1D1D1D",
"o  c #252525",
"O  c #282727",
"+  c #272827",
"@  c #282827",
"#  c #2C2C2C",
"$  c #302F2F",
"%  c #30302F",
"&  c #302F30",
"*  c #333232",
"=  c #383637",
"-  c #383738",
";  c #3B3A3B",
":  c #403F3F",
">  c #454344",
",  c #484747",
"<  c #494748",
"1  c #4C4B4B",
"2  c #504F4F",
"3  c #51504F",
"4  c #514F50",
"5  c #535252",
"6  c #585656",
"7  c #595758",
"8  c #5C5A5A",
"9  c #605E5E",
"0  c #61605F",
"q  c #646362",
"w  c #686766",
"e  c #696867",
"r  c #696768",
"t  c #6D6C6C",
"y  c #706E6F",
"u  c #71706F",
"i  c #726F70",
"p  c #747373",
"a  c #787676",
"s  c #797877",
"d  c #7C7A7A",
"f  c #807F7E",
"g  c #82807F",
"h  c #848282",
"j  c #888786",
"k  c #8E8C8B",
"l  c #908E8E",
"z  c #91908F",
"x  c #959493",
"c  c #989796",
"v  c #999897",
"b  c #9B9A99",
"n  c #A19F9E",
"m  c #A09E9D",
"M  c #A1A09F",
"N  c #A0A09E",
"B  c #A2A09F",
"V  c #A2A09F",
"C  c #A2A1A1",
"Z  c #A3A2A1",
"A  c #A4A2A2",
"S  c #A5A4A3",
"D  c #A4A4A2",
"F  c #A6A5A3",
"G  c #A6A6A5",
"H  c #A5A4A3",
"J  c #A8A7A6",
"K  c #A8A7A6",
"L  c #A8A8A6",
"P  c #ABA8A7",
"I  c #A9A9A8",
"U  c #ACABAA",
"Y  c #AEADAC",
"T  c #AFAEAD",
"R  c #AEAEAD",
"E  c #AFAFAE",
"W  c #AEACAB",
"Q  c #B1AFAE",
"!  c #B0AEAD",
"~  c #B1B0AF",
"^  c #B1B0AF",
"/  c #B2B1B0",
"(  c #B3B2B0",
")  c #B3B2B1",
"_  c #B4B3B2",
"`  c #B5B4B2",
"'  c #B6B5B3",
"]  c #B6B5B4",
"[  c #B7B6B4",
"{  c #B6B6B5",
"}  c #B7B6B5",
"|  c #B7B7B5",
" . c #B5B4B3",
".. c #B8B6B5",
"X. c #B8B7B5",
"o. c #B8B7B6",
"O. c #B8B7B6",
"+. c #B8B8B6",
"@. c #B9B8B6",
"#. c #B9B8B7",
"$. c #BAB9B7",
"%. c #B9B8B7",
"&. c #BAB9B8",
"*. c #BBB9B9",
"=. c #BBBAB9",
"-. c #BBBBB9",
";. c #BCBAB9",
":. c #BCBBB9",
">. c #BCBBBA",
",. c #BDBCBA",
"<. c #BCBCBB",
"1. c #BDBDBB",
"2. c #BEBDBB",
"3. c #BEBDBC",
"4. c #BFBDBC",
"5. c #BEBEBC",
"6. c #BFBEBC",
"7. c #BFBEBD",
"8. c #BFBFBD",
"9. c #BFBFBE",
"0. c #BCBBBA",
"q. c #C0BEBD",
"w. c #C0C0BE",
"e. c #C1C1C0",
"r. c #C2C1C0",
"t. c #C5C5C3",
"y. c #C8C8C6",
"u. c #CAC9C8",
"i. c #CBCBC9",
"p. c #CDCBC9",
"a. c #CCCACA",
"s. c #CCCBCA",
"d. c #CDCBCA",
"f. c #CDCCCA",
"g. c #CDCCCB",
"h. c #CFCDCC",
"j. c #DEDDDB",
/* pixels */
"                                                                                                                                ",
"                                                                                                                                ",
"                                                                                                                                ",
"                                                                                                                                ",
"                                                                                                                                ",
"                                                                                                                                ",
"                                                                                                                                ",
"                                                                                                                                ",
"                                                                                                                                ",
"                                                                                                                                ",
"                                                  o o # # * # # * * * * * * # # #                                               ",
"                                                  # # @ o o + o o o o o o o o o X                                               ",
"                                          o o o o p k b b b b b b b b b b v b F j # o # o                                       ",
"                                          * = $ * x o.i.h.a.i.a.a.a.a.a.a.f.f.j.) $ # = #                                       ",
"                                      o * j v k k v b b b b b b b b b v b 2.$.b v k k b h * X                                   ",
"                                      X * b Q S S b v x x x x x x x x l x q.>.x x S S ) x # X                                   ",
"                                  X = d k b b b b b b b v v v v v x v ] o.N b v v b b b x z p # o                               ",
"                                  o ; Z ~ b v b b b v v v v v v v x b 3.3.x x v v v b b b o.x # *                               ",
"                              # * q s b N b v x x x x x x x x z b 2.-.b v v v v v x b 3.>.T S v d # X                           ",
"                              = * p j x b b v b b b b b b v b x b 3.>.x x v v v v v m >.$.U I ) x - #                           ",
"                          o o t a p p p s x Z ] $.] ] ] ] o.o.>.` v x x x v v x b 3._ d d v m 3.] N h # o                       ",
"                          = = p h p p p p k b $.2.-.-.-.-.>.>.w.] x z x x x v x b t.] p p x b e.2.T j # *                       ",
"                      X X q p p p p p p p p s b N b b b b b b v m $.-.$.) x x x v b b x x s f b b A g o #                       ",
"                      # ; p h a s p p p p p s z x x x x x x x l v -.-.3.-.b x v x x x b x s d x x J j * =                       ",
"                  o # q d y u v b s p p p p p p p l b b b v x x x v x ) e.-._ v x v v v x x x k v y.T s q # #                   ",
"                  # * e h a s x c a p p p p p p p x b z z x x x x x k P o.3.$.v x v v v v v v v m 3.T j p # #                   ",
"                  o # q d x b a t p p p p p p x b b v p u x v x x x x x x 3.-.x x v v v v x b e.-.x x S h o o                   ",
"                  * = q d x v p t p p p p p p x b x x a p x v x x x x x x ] ` b v v v v v x b -.` x x S j - =                   ",
"              # # q s p p p p p p p p p p p p x b s p x x v v x x x x x x x b -.` x x v v v v b v x v x x N d # #               ",
"              * # e h p p p u p p p p p p p p z v p p x b x x x x x x x x x v -.` x x x x x x x x x x x v T h # *               ",
"              * # q d p p p p p p p p l x x z s a p a v b p p x v x x x x x x v v x x x x x x x x x x x x F f # *               ",
"              * # q d p p p p p p y p x b b x p p p a x x p p x v x x x x x x x x v b b v x x x x x x v v F f # *               ",
"              X # q d p p p p 8 5 5 8 x b b x p p p p p a z x x x v v v x v x z x _ ] 2.T z x x x l v 3.` A d # *               ",
"              o = q s t t y y 8 6 6 8 k x x k p p p p p p x b x x x x x v x x x b ] o.o.W x v b b x b o.T A d # #               ",
"          # & 1 8 t s 7 1 4 5 t p p p p p p p p p p p p p x b v x p t k b z x ` o.2._ x v ] -.$.$.3._ s d P f X &               ",
"          * * 1 8 r y 5 < 1 1 e p p p p y t y p p p p p p k x v x p y k b x b ) ` ) I l x _ ] ] ] -.~ p p Z g = ;               ",
"          % # < 6 4 2 2 5 5 5 5 5 t p p p 8 8 p p p p p p p a x b x x x v $.o.b l p d v v x x x x v x a p t d P d o o           ",
"          % # < 6 2 1 5 5 5 5 4 5 t p p p 8 8 u p p p p p y p l x x x k x _ ` v k u a x x x x x x v z p p y f Q h * #           ",
"          * # < 6 5 5 5 5 5 5 5 5 t p p p 8 8 p p p i p p p p p p p p p p x v v l p p p d x v v b b x p a x x A f # #           ",
"          * # < 6 1 1 5 5 5 5 5 5 t p p p 8 8 y p a s p p p p p p p p y p z x v x d s p s v v x x x l p a v v A f & o           ",
"          $ # < 6 ; - 1 6 5 5 5 5 y a p p 8 6 t p x v p y p p p p p p p p x v x x v l t p b x p p p p p a v b J h # #           ",
"          # * < 6 ; = , 1 2 5 2 4 w y p p 8 8 y p j k p u p p p p p p t p x v x x v x a d x k p p p p p a l z b s # #           ",
"          # * < 6 ; - - = < 6 1 1 5 7 p a p p p p 9 8 p p p p p p a p 8 q x b x x x x v x p p p p p p p p p p h w * o           ",
"          # * > 2 ; - ; - < 5 1 1 5 6 t t p p p p q 8 t u p p y t y t 8 q k x x x x x b x p p p p s a p p p p p 0 * #           ",
"          # = = - - - < 4 2 5 5 5 5 6 5 5 y a p p p p 8 8 p a 8 5 8 8 8 8 i p x b x x v z p y y a b l u p d t 1 > # *           ",
"          # = * = - ; < 5 2 5 5 5 5 5 2 2 r p p p p p 8 8 p a 8 5 6 8 8 9 t t j x x x v l a p t p x k p p p w 1 > # *           ",
"              X * - ; < 5 2 5 5 5 5 2 > > 2 6 p p p p 8 6 p s 8 5 6 8 p p 8 7 7 q b b v x v k e t p a d p 8 7 7 < # *           ",
"              X * = - , 1 2 5 5 5 5 2 , < 2 6 e t p p 9 8 t p 8 5 6 8 y y 8 7 5 9 k l k l b k p p p p y q 5 2 1 > # #           ",
"              X * # # ; , 1 5 5 5 5 5 5 5 5 5 5 5 e p p p 8 6 7 7 7 7 7 7 7 8 8 8 6 8 t s b b m x g t ; > > ; # #               ",
"              o * # o - > < 1 1 1 2 5 5 5 5 5 5 5 e p y t 7 6 7 7 7 7 6 6 7 8 8 8 6 8 e p j k l j p q = ; ; = # #               ",
"                  o $ # # - > : > 2 5 5 5 5 6 5 5 y p 6 5 7 7 7 8 8 8 8 8 8 8 8 8 8 8 8 8 2 2 1 1 2 > * * * #                   ",
"                  X # O # = ; ; ; < 1 1 1 1 1 4 5 e t 5 5 6 7 5 5 5 5 5 5 7 7 7 7 7 7 7 5 , > > > < > * # # O                   ",
"                          = - - - - - - - - - < 5 6 7 8 8 8 8 > ; ; : ; : 2 3 2 2 4 3 6 1 - - - - > o                           ",
"                          X X X X X X X X X X > > , < < < < < ; = - - - - > > > > > > < > o X X X o .                           ",
"                                              # # # # # # # # # # # # # # # # # # # # # #                                       ",
"                                              # * * * * * * * * * * * * * * * * * * * * #                                       ",
"                                                                                                                                ",
"                                                                                                                                ",
"                                                                                                                                ",
"                                                                                                                                ",
"                                                                                                                                ",
"                                                                                                                                ",
"                                                                                                                                ",
"                                                                                                                                "
};
