/* XPM */
static char *_57bdc48fe0443c5a6e60dcd71484722ER6lHyibIZGKAzY6[] = {
/* columns rows colors chars-per-pixel */
"64 64 140 2 ",
"   c #1E1E1E",
".  c #19241D",
"X  c #12331F",
"o  c #1E2520",
"O  c #1B2921",
"+  c #163120",
"@  c #1D3526",
"#  c #153A22",
"$  c #1B3C24",
"%  c #1F3628",
"&  c #1D3B28",
"*  c #252525",
"=  c #232B26",
"-  c #282827",
";  c #272D29",
":  c #2C2C2C",
">  c #302F2F",
",  c #24352A",
"<  c #2B342E",
"1  c #223C2B",
"2  c #302F30",
"3  c #2F3331",
"4  c #2C3D31",
"5  c #343333",
"6  c #383737",
"7  c #343934",
"8  c #383738",
"9  c #3B3A3B",
"0  c #403F3F",
"q  c #0A421E",
"w  c #144124",
"e  c #174729",
"r  c #1C4029",
"t  c #17482A",
"y  c #1B4D2C",
"u  c #19512D",
"i  c #1F4E30",
"p  c #204927",
"a  c #24422E",
"s  c #2A462D",
"d  c #264B2D",
"f  c #21502B",
"g  c #254330",
"h  c #294231",
"j  c #214E31",
"k  c #284A30",
"l  c #3F433F",
"z  c #334B3B",
"x  c #205030",
"c  c #2A5332",
"v  c #006E2C",
"b  c #02762E",
"n  c #017C2F",
"m  c #0A7B2D",
"M  c #067630",
"N  c #007A30",
"B  c #454444",
"V  c #484747",
"C  c #494748",
"Z  c #4C4B4B",
"A  c #504F4F",
"S  c #51504F",
"D  c #514F50",
"F  c #535252",
"G  c #585656",
"H  c #595758",
"J  c #5C5A5A",
"K  c #605E5E",
"L  c #61605F",
"P  c #646362",
"I  c #686766",
"U  c #696867",
"Y  c #696768",
"T  c #6D6C6C",
"R  c #706E6F",
"E  c #71706F",
"W  c #726F70",
"Q  c #747373",
"!  c #787676",
"~  c #797877",
"^  c #7C7A7A",
"/  c #807F7E",
"(  c #04832D",
")  c #09862E",
"_  c #068A2C",
"`  c #0A8A2C",
"'  c #108D29",
"]  c #079129",
"[  c #0C932A",
"{  c #0E992A",
"}  c #129C2A",
"|  c #16A12A",
" . c #1AA42A",
".. c #1EAA2A",
"X. c #21AD29",
"o. c #24B129",
"O. c #82817F",
"+. c #848382",
"@. c #888786",
"#. c #858885",
"$. c #8E8C8B",
"%. c #908E8E",
"&. c #91908F",
"*. c #959493",
"=. c #969594",
"-. c #989797",
";. c #999896",
":. c #9B9A99",
">. c #9C9B9A",
",. c #9D9C9B",
"<. c #9F9E9D",
"1. c #A09F9E",
"2. c #A1A09F",
"3. c #A3A2A1",
"4. c #A5A3A2",
"5. c #A5A4A3",
"6. c #A6A4A3",
"7. c #A8A7A6",
"8. c #AAA8A7",
"9. c #ADACAC",
"0. c #B1AFAE",
"q. c #B1B0AF",
"w. c #B3B2B1",
"e. c #B5B4B3",
"r. c #B6B5B4",
"t. c #B8B7B6",
"y. c #BAB9B7",
"u. c #BCBBB9",
"i. c #BCBCBA",
"p. c #BDBCBA",
"a. c #BFBFBD",
"s. c #C0BEBD",
"d. c #C0C0BE",
"f. c #C3C2C1",
"g. c #C8C8C6",
"h. c #CBCBC9",
"j. c #CCCBCA",
"k. c #CDCCCB",
"l. c #CFCDCC",
"z. c #DEDDDB",
/* pixels */
"n n n n n n n n n n n n n n n n n n n n n n n n n n n n n n n n n n n n n n n n n n n n n n n n n n n n n n n n n n n n n n n n ",
"n n n n n n n n n n n n n n n n n n n n n n n n n n n n n n n n n n n n n n n n n n n n n n n n n n n n n n n n n n n n n n n n ",
"` ` n n n n ` ` n n n n n n n n n n n n n n n n n n ) ) n n n n ` ` n n n n ) ) n n n n n n n n ` ` n n n n n n n n ` ` n n n n ",
"` ` n n n n ` ` n n n n n n n n n n n n n n n n n n ` ` n n n n ` ` n n n n ) ) n n n n n n n ( [ [ ( ( n n n n n n ` ` n n n n ",
"n n n n n n n n n n n n n n _ _ n n N n [ [ n n n n ) ) n n n n n n n n n n n n n n n n n n _ [ ..X.o.X.n n n n n n ` ` n n n n ",
"n n n n n n n n n n n n n n _ _ n n n ( [ [ n n n n ) ) n n n n n n n n n n n n n n n n n n [ { X.o.o...n n n n n n ` ` n n n n ",
"n n n n n n n n n n n n n n n n ( ( [ [ n n n n n n n n n n ` ` n n n n n n b n ..X.n n n ( X.o.o.X.( n n n [ [ n n n n n n n n ",
"n n n n n n n n n n n n n n n n ( ( [ [ n n n n n n n n n n ` ` n n n n n n n ( X.X.( n n n ..X.X. .( n n n [ [ n n n n n n n n ",
"n n ) ) n n n n [ [ n n n n n n n n n n n n ` ` n n n n n n n n n n n n n n } } ( n n n n n n n _ _ n n n n n n n n n n ` ` n n ",
"n n ` ` n n n n [ [ n n n n n n n n n n n n ` ` n n n n n n n n n n n n n n } } n n n n n n n N ( ( n n n n N n n n n n ` ` n n ",
"n n n n n n n n n n } } n n  ...X...n n n n n n n t & a d d a a g g k k g g a a y ) n n n n n n n n n n n n n n n n n n n n n n ",
"n n n n n n n n n n } } n n ...... .n n n n n n n : : - - - - - - - - - - - - - o ) n n n n n n n n n n n n n n n n n n n n n n ",
"n n n n n n n n n n } } n n ....( n n n n $ % @ @ Q $.:.,.:.:.:.:.:.:.:.:.;.:.5.#.1 @ 1 p } n n n n n n n n n n | | n n n n n n ",
"n n n n n n n n n n } } n n  . .n b n n n 5 6 > 5 =.t.h.l.j.h.j.j.j.j.j.j.k.k.z.w.> : 6 < } n n n n n n n n n n  . .n n n n n n ",
"n n n n [ [ n n n n n n n n n n n n n @ 4 #.-.$.$.-.:.>.>.>.:.>.>.>.>.;.,.i.y.<.;.$.$.:.O.h # n n n .. .n n n n n n n n n n n n ",
"n n n n [ [ n n n ( n n n n n n n n n   5 >.0.5.5.>.;.=.=.=.=.=.=.=.*.%.*.s.i.*.=.5.5.w.=.: . n n n .. .n n n n n n n n n n n n ",
"n n n n n n n n  ...` ( n n n n n X 4 ^ $.:.,.:.:.:.:.:.;.;.;.;.;.*.-.r.t.2.,.;.;.:.:.:.=.&.Q , r n n n n n n n } } n n ) ) n n ",
"n n n n n n n ( ..X.` ) n n n n n * 9 3.q.>.;.:.:.:.;.;.;.;.;.-.;.=.:.a.a.=.*.;.;.;.:.:.,.t.*.: 3 n N n n n n n } } n n ) ) n n ",
"n n n n n n  ..... .` ) n n ` 1 4 P ~ :.2.:.;.=.=.=.=.=.=.=.=.&.:.i.u.,.-.-.-.;.;.*.>.a.i.9.5.-.^ , # n n n n n n n n n n n n n ",
"n n n n n ( .... . .) ( n b m 6 5 Q #.=.:.:.;.:.:.:.:.:.:.;.:.=.<.a.i.=.*.-.-.-.;.-.1.i.y.9.8.w.*.8 , b n n n n N n n n n n n n ",
"n n n n ` [  . .[ ` n n n @ * T ! Q Q Q ~ =.3.r.y.r.r.r.r.t.t.i.e.-.*.=.=.-.-.*.,.a.w.^ ^ -.1.a.r.2.+.< & n n n n n  . .n n n n ",
"n n n n ` [  . .` _ n n n 7 6 Q +.Q Q Q Q $.:.y.i.u.u.u.u.i.i.d.r.*.&.=.=.=.-.*.,.f.r.Q Q *.<.f.i.9.@.: 4 n n n n n  . .n n n n ",
"n n n n n n ` ` n n n # O P Q Q Q Q Q Q Q Q ~ <.2.>.:.>.>.>.>.;.1.y.u.y.w.*.*.=.;.<.>.=.*.~ / ,.<.4.O.- 1 n _ _ n n n n n n n n ",
"n n n n n n _ _ n b M < 9 Q +.! ~ Q Q Q Q Q ~ *.*.*.*.*.*.*.*.%.;.u.u.a.u.:.=.-.=.*.*.<.=.~ ^ *.=.7.@.5 h m ` ` n n n n n n n n ",
"n n ` ` n n n n n @ : P ^ R E -.<.~ Q Q Q Q Q Q Q %.:.:.:.-.=.=.=.-.*.w.f.u.w.-.=.-.-.-.=.=.=.$.-.g.9.~ P < d .... .n n [ [ n n ",
"n n ` ` n n n n n < 5 U +.! ~ *.-.! Q Q Q Q Q Q Q *.:.&.&.=.=.=.=.*.$.8.t.a.y.-.=.-.-.-.-.;.;.;.1.a.9.@.Q : s  ... .n n [ [ n n ",
"n n n n n n n n n @ : P ^ =.<.! T Q Q Q Q Q Q *.:.:.-.Q E *.;.=.=.=.=.*.=.a.u.*.*.-.-.-.-.*.:.f.u.*.*.5.+.- $ ) [ [ n n n n n n ",
"n n n n n n n M M 4 6 P ^ *.;.Q T Q Q Q Q Q Q *.:.=.*.! Q *.;.=.=.=.=.*.=.r.e.:.-.-.-.-.-.*.:.u.e.*.*.5.@.8 h m ` ` n n n n n n ",
"n n n n _ _ n a : P ~ Q Q Q Q Q Q Q Q Q Q Q Q *.:.~ Q *.=.-.-.=.=.=.=.=.=.=.:.u.e.=.=.-.-.-.=.;.-.=.-.-.=.2.^ ; a n n n n n n n ",
"n n n n _ _ n 4 : U +.Q Q Q E Q Q Q Q Q Q Q Q &.-.Q Q =.:.*.*.=.=.=.=.=.=.*.-.u.e.=.=.=.=.=.=.*.=.=.=.=.-.9.+.: 4 n n n n n n n ",
"n n n n n n N h : P ^ Q Q Q Q Q Q Q Q %.=.=.&.~ ! Q ! ;.:.Q Q =.-.=.=.=.=.=.=.;.-.*.*.*.=.=.=.=.=.=.=.*.*.5./ : h n n n n n n n ",
"n n n n n n n h : P ^ Q Q Q Q Q Q R Q *.>.>.*.Q Q Q ! *.*.Q Q =.-.=.=.=.=.=.=.*.*.;.:.:.;.=.=.=.=.=.=.;.;.5./ : h n n n n n n n ",
"n n n n n n { $ : P ^ Q Q Q Q J F F J *.>.>.*.Q Q Q Q Q ! &.=.=.=.;.;.-.=.-.=.&.=.w.r.i.9.&.*.*.*.%.;.a.e.4.^ : g n } } n n ) ) ",
"n n n n N M ' & 6 P ~ T T R R J G G J $.*.*.$.Q Q Q Q Q Q *.:.=.=.*.*.*.-.=.=.=.,.r.t.t.9.=.;.:.:.=.,.t.9.4.^ : 1 n } } ( n ) ) ",
"n n ) ) n 1 3 Z J T ~ H Z D F T Q Q Q Q Q Q Q Q Q Q Q Q Q *.:.;.*.Q T $.>.&.=.e.t.i.w.*.-.r.u.y.y.a.w.~ ^ 8./   g n n (  . .n n ",
"n n ) ) n 4 5 Z J Y R F C Z Z U Q Q Q Q R T R Q Q Q Q Q Q $.*.-.*.Q R $.:.=.:.w.e.w.8.%.*.w.r.r.r.u.q.Q Q 3.O.6 z b v n  . .n n ",
"n n n n n a : C G D A A F F F F F T Q Q Q J J Q Q Q Q Q Q Q ! =.:.=.=.=.;.y.t.:.%.Q ^ ;.-.=.=.=.=.;.*.! Q T ^ 8.^ * @ n n n n n ",
"n n n n n a : C G A Z F F F F D F T Q Q Q J J E Q Q Q Q Q R Q %.*.*.*.$.*.w.e.-.$.E ! *.*.*.*.*.*.-.&.Q Q R / 0.+.5 1 n n N n n ",
"n n n n N g : C G F F F F F F F F T Q Q Q J J Q Q Q W Q Q Q Q Q Q Q Q Q Q *.-.;.%.Q Q Q ^ =.-.;.:.>.=.Q ! *.=.4./ : 1 ) ) ) n n ",
"n n n n n g : C G Z Z F F F F F F T Q Q Q J J R Q ! ~ Q Q Q Q Q Q Q Q R Q &.=.;.*.^ ~ Q ~ -.-.*.*.*.%.Q ! -.;.4./ 2 1 ) ) ) n n ",
"n n _ ] ] a : C G 9 8 Z G F F F F R ! Q Q J G T Q *.;.Q R Q Q Q Q Q Q Q Q *.-.=.*.;.%.T Q <.=.Q Q Q Q Q ! -.:.7.+.: 1 N n n n n ",
"n n _ ] ] a 5 C G 9 6 V Z A F A D I R Q Q J J R Q @.$.Q E Q Q Q Q Q Q T Q *.-.*.*.;.*.! ^ *.$.Q Q Q Q Q ! %.&.>.~ : 1 n n n n n ",
"n n n n n 1 5 C G 9 8 8 6 C G Z Z F H Q ! Q Q Q Q K J Q Q Q Q Q Q ! Q J P *.,.=.*.*.*.;.*.Q Q Q Q Q Q Q Q Q Q +.I 5 % n _ _ n n ",
"n n n n n 1 5 B A 9 8 9 8 C F Z Z F G T T Q Q Q Q P J T E Q Q R T R T J P $.*.*.=.*.*.:.*.Q Q Q Q ~ ! Q Q Q Q Q L 5 1 n _ _ n n ",
"n n n n n ; 6 6 8 8 8 C D A F F F F G F F R ! Q Q Q Q J J Q ! J F J J J J W Q *.<.*.*.-.&.Q R R ! :.%.E Q ^ T Z B : h n n n n n ",
"n n n n n u c 7 6 8 9 C F A F F F F F A A Y Q Q Q Q Q J J Q ! J F G J J K T T @.*.*.*.-.%.! Q T Q =.$.Q Q ! I Z B : h n n n n n ",
"n n n n _ _ n + 5 8 9 C F A F F F F A B B A G Q Q Q Q J G Q ~ J F G J Q Q J H H P :.>.-.=.-.$.U T Q ! ^ Q J H H C : 4 [ n n n n ",
"n n n n _ _ n + 5 6 8 V Z A F F F F A V C A G U T Q Q K J T Q J F G J R R J H F K $.%.$.%.:.$.Q Q Q Q R P F S Z l , f [ n n n n ",
"n n n n n n n O 5 : : 9 V Z F F F F F F F F F F F U Q Q Q J G H H H H H H H J J J G J T ~ >.,.1.=.O.T 9 B B 9 : < n n n n n n n ",
"n n n n n n n e g : - 8 B C Z Z Z A F F F F F F F U Q R T H G H H H H G G H J J J G J U Q @.$.%.@.Q P 6 9 9 7 a y n n n n n n n ",
"n n n n [ [ n n n = > : : 8 B 0 B A F F F F G F F R Q G F H H H J J J J J J J J J J J J J A A Z Z A B 5 5 5 1 n n n n n ) ) n n ",
"n n n n [ [ n n n w 1 1 1 7 9 9 9 C Z Z Z Z Z D F U T F F G H F F F F F F H H H H H H H F V B B B C l h a 1 t n n n n n ) ) n n ",
"n n n n n n n n n n | | n 6 8 8 8 8 8 8 8 8 8 C F G J J J J J B 9 9 0 9 0 A S A A D S G Z 8 8 8 8 B = n n n n n [ [ n n n n n n ",
"n n n n N n n n n n } } n w $ $ # # # # # # # B B V C C C C C 9 6 8 8 8 8 B B B B B B C B # # # # $ q n n n n n [ [ n n n n n n ",
"n n [ [ n n n n n n n n n n n n } } } } ....n : : : : : : : : : : : : : : : : : : : : : : n n n n n _ _ n n n n n n n n n n n n ",
"n n } } n n n ( n n n n n n n n } } } } ....( y i j j j j x i j j i i j i i j y j j i j u n n n n ( [ [ ( n n n n n n n n n n n ",
"n n n n n n [ [ ` ` n n n n n n n n _ ` _ ` X...n n n n } | ( n n n n n n n } } n n n n n n n n _ [ ..X.X...n n n n n n [ [ n n ",
"n n n N n n [ [ ` ` n n n n n n n n ) _ ( _ X...n n n n | | n n n n n n n n | | n n n n n n n n _ [ ..X.X. .n n n n n n [ [ n n ",
"n n n n ` ` n n n n n n ` ` n n n n n n n n n n n n n n n n n n n n _ _ n n n n n n n n ) ) n n n ( } } n n n n ` ` n n n n n n ",
"n n n n ` ) n n n n n n ` ` n n n n n n n n N n n n n n n N n n n n _ _ n n n n n n n n ) ) n n n n } } n n n n ` ` n n n n n n ",
"n n n n n n n n n n n n n n n n n n n n ( ( n n n n _ _ n n ` ` n n n n ` [ n n n n n n n n n n n n n n n n ) ) n n n n n n n n ",
"n n n n n n n n n n n n n n n n n n n n ( ( n n n n ) ) n n ` ` n n n n ` ` n n n n n n n n n n n n n n n n ) ) n n n n n n n n ",
"n n n n n n n n n n n n n n n n n n n n n n n n n n n n n n n n n n n n n n n n n n n n n n n n n n n n n n n n n n n n n n n n ",
"n n n n n n n n n n n n n n n n n n n n n n n n n n n n n n n n n n n n n n n n n n n n n n n n n n n n n n n n n n n n n n n n "
};
